<?xml version="1.0" encoding="UTF-8"?> <!-- Generator: Adobe Illustrator 23.1.1, SVG Export Plug-In . SVG Version: 6.00 Build 0) --> <svg xmlns:cc="http://creativecommons.org/ns#" xmlns:dc="http://purl.org/dc/elements/1.1/" xmlns:rdf="http://www.w3.org/1999/02/22-rdf-syntax-ns#" xmlns:svg="http://www.w3.org/2000/svg" xmlns="http://www.w3.org/2000/svg" xmlns:xlink="http://www.w3.org/1999/xlink" id="svg2" x="0px" y="0px" viewBox="0 0 500 325.8" style="enable-background:new 0 0 500 325.8;" xml:space="preserve"> <style type="text/css"> .st0{fill:#EE2722;} .st1{fill:#FFFFFF;} </style> <g id="g10" transform="matrix(1.3333333,0,0,-1.3333333,0,325.774)"> <g id="g2512" transform="matrix(2.7788183,0,0,2.7788198,-128.27083,-1660.4171)"> <path id="path1640" class="st0" d="M154.2,600.8c-0.6-1.8-3-3.3-5.2-3.3H49.2c-2.2,0-3.5,1.5-2.9,3.3L77,682.2 c0.6,1.8,3,3.3,5.2,3.3h95.9c2.2,0,3.5-1.5,2.9-3.3L154.2,600.8"></path> <path id="path1670" class="st1" d="M160.5,645.8h-22.3l-20.4-15l4.8,15H87.1c1.6,1.6,3.8,2.6,7.7,3.2l16.3,2.9 c6.5,1.2,15.9,4.4,18.5,12.5c3.8,11.9-8.5,14.3-22.5,14.3c-10.8,0-25.5-2-31.5-16.6H94c2.3,5.5,7.1,5.9,11.8,5.9 c4,0,6.7-1,5.9-3.4c-0.6-1.8-2.1-2.9-4.4-3.3l-13.4-2.7c-10.9-2.2-22.8-7.2-28.4-23.5h37l-10.2-31.8h16.8l3.6,11.4l7.1,4.9 l6.4-16.3h22.3l-12.3,26.1L160.5,645.8"></path> </g> </g> </svg> 