<?xml version="1.0" encoding="UTF-8"?> <!-- Generator: Adobe Illustrator 24.0.0, SVG Export Plug-In . SVG Version: 6.00 Build 0) --> <svg xmlns="http://www.w3.org/2000/svg" xmlns:xlink="http://www.w3.org/1999/xlink" id="Layer_1" x="0px" y="0px" viewBox="0 0 125 19" style="enable-background:new 0 0 125 19;" xml:space="preserve"> <style type="text/css"> .st0{fill-rule:evenodd;clip-rule:evenodd;} </style> <g id="Symbols"> <g id="Navigation_x2F_Top_x2F_Light_x2F_Desktop" transform="translate(-90.000000, -31.000000)"> <g id="Element_x2F_Logo_x2F_Bethesda" transform="translate(90.000000, 31.000000)"> <g id="Combined-Shape"> <path id="path-1_1_" class="st0" d="M0,8h7.7V0H0V8z M41,8V5h2.2V1h5v4h2.7v3.1h-2.7v4.6c0,1.2,0.3,1.8,1.5,1.8 c0.4,0,0.8,0,1.1-0.1v3.8c-1,0-2.1,0.2-3.2,0.2c-2.1,0-4.4-0.3-4.4-4V8.1h-2.2c0.6,1.2,0.9,2.8,0.9,4.6h-9.5 c0.1,1.5,1,2.6,2.5,2.6c0.8,0,1.7-0.3,2.1-0.9h4.6c-1,2.9-3.7,4.2-6.7,4.2c-4.2,0-7.3-2.5-7.3-6.9c0-3.9,2.8-7,6.9-7 C37.8,4.7,39.9,5.8,41,8z M2.7,5.2V2.8H5v2.4H2.7z M10.7,18.2V0h9.8c4.7,0,5.7,2.7,5.7,4.6c0,1.8-0.9,2.8-2.2,3.6 c1.6,0.6,3.1,1.9,3.1,4.5c0,3.6-3.1,5.5-6.3,5.5H10.7z M16.2,4.4v2.8h2.9c1.2,0,1.9-0.3,1.9-1.5c0-0.9-0.8-1.3-1.9-1.3H16.2z M16.2,10.5v3.4h3.2c1.2,0,2.2-0.3,2.2-1.7c0-1.1-0.6-1.7-1.9-1.7H16.2z M32.5,10.1h4.8c0-1.2-0.9-2.2-2.2-2.2 C33.5,7.9,32.7,8.7,32.5,10.1z M51.7,18.2V0h5v6.4h0c0.9-1,2-1.8,4.1-1.8c2.3,0,4.5,1.5,4.5,4.5v9.1h-5v-6.9 c0-1.5-0.2-2.6-1.6-2.6c-0.9,0-2,0.4-2,2.6v7H51.7z M80.2,12.8h-9.5c0.1,1.5,1,2.6,2.5,2.6c0.8,0,1.7-0.5,2.1-1.2H80 c-1,2.9-3.7,4.4-6.7,4.4c-4.2,0-7.3-2.5-7.3-6.9c0-3.9,2.8-7,6.9-7C78,4.7,80.2,7.6,80.2,12.8z M70.7,10.1h4.7 c0-1.2-0.9-2.2-2.2-2.2C71.8,7.9,70.9,8.7,70.7,10.1z M92.7,8.8h-4.5c0-0.4-0.3-0.8-0.6-1c-0.3-0.3-0.7-0.4-1.1-0.4 c-0.7,0-1.5,0.2-1.5,1c0,0.4,0.3,0.6,0.6,0.7c0.8,0.4,2.7,0.5,4.4,1c1.7,0.5,3.1,1.5,3.1,3.7c0,3.7-3.5,4.7-6.6,4.7 c-3.1,0-6.4-1-6.5-4.4h4.8c0,0.5,0.2,0.6,0.6,0.9c0.3,0.2,0.7,0.4,1.3,0.4c0.7,0,1.7-0.3,1.7-1c0-0.8-0.4-1-2.7-1.4 c-3.8-0.7-5.3-1.9-5.3-4.2c0-3.3,3.5-4.2,6.2-4.2C89.2,4.7,92.6,5.5,92.7,8.8z M107.4,0v18.2h-4.8v-1.5h-0.1 c-0.6,0.8-1.4,1.8-3.8,1.8c-3.7,0-5.5-3.7-5.5-7c0-3.1,1.2-6.9,5.6-6.9c1.5,0,2.8,0.7,3.6,1.8h0.1V0H107.4z M121.6,9.8v5.4 c0,1,0,2.1,0.6,3h-5.1c-0.1-0.4-0.2-0.9-0.2-1.3h-0.1c-1.1,1.2-2.6,1.6-4.2,1.6c-2.5,0-4.6-1.2-4.6-4c0-4.2,4.8-4,7.4-4.5 c0.7-0.1,1.4-0.3,1.4-1.2c0-0.9-0.8-1.2-1.6-1.2c-1.5,0-1.8,0.8-1.9,1.4h-4.6c0.2-3.7,3.6-4.3,6.7-4.3 C121.6,4.7,121.6,7.3,121.6,9.8z M102.6,11.6c0-1.6-0.4-3.3-2.2-3.3c-1.8,0-2.2,1.7-2.2,3.3c0,1.6,0.4,3.3,2.2,3.3 C102.2,14.9,102.6,13.2,102.6,11.6z M116.8,13.5v-1.2c-0.6,0.3-1.3,0.5-2,0.6c-1.1,0.3-1.7,0.5-1.7,1.4c0,0.6,0.7,1.2,1.6,1.2 C115.9,15.6,116.7,14.9,116.8,13.5z M123.2,3.1c0.2,0,0.5,0.1,0.7,0.2c0.2,0.1,0.4,0.3,0.5,0.5c0.1,0.2,0.2,0.5,0.2,0.7 c0,0.3-0.1,0.5-0.2,0.7c-0.1,0.2-0.3,0.4-0.5,0.5c-0.2,0.1-0.5,0.2-0.7,0.2c-0.3,0-0.5-0.1-0.7-0.2c-0.2-0.1-0.4-0.3-0.5-0.5 c-0.1-0.2-0.2-0.5-0.2-0.7c0-0.3,0.1-0.5,0.2-0.7c0.1-0.2,0.3-0.4,0.5-0.5C122.8,3.2,123,3.1,123.2,3.1z M123.2,3.4 c-0.2,0-0.4,0.1-0.6,0.2c-0.2,0.1-0.3,0.3-0.5,0.5c-0.1,0.2-0.2,0.4-0.2,0.6c0,0.2,0.1,0.4,0.2,0.6c0.1,0.2,0.3,0.3,0.5,0.5 c0.2,0.1,0.4,0.2,0.6,0.2c0.2,0,0.4-0.1,0.6-0.2c0.2-0.1,0.3-0.3,0.5-0.5c0.1-0.2,0.2-0.4,0.2-0.6c0-0.2-0.1-0.4-0.2-0.6 c-0.1-0.2-0.3-0.4-0.5-0.5C123.6,3.4,123.4,3.4,123.2,3.4z M122.6,5.5V3.9h0.5c0.2,0,0.3,0,0.4,0c0.1,0,0.1,0.1,0.2,0.2 c0,0.1,0.1,0.2,0.1,0.2c0,0.1,0,0.2-0.1,0.3c-0.1,0.1-0.2,0.1-0.3,0.1c0.1,0,0.1,0.1,0.1,0.1c0.1,0.1,0.1,0.2,0.2,0.3l0.2,0.3 h-0.3l-0.1-0.3c-0.1-0.2-0.2-0.3-0.3-0.4c0,0-0.1-0.1-0.2-0.1h-0.1v0.7H122.6z M122.9,4.6h0.3c0.1,0,0.2,0,0.3-0.1 c0.1,0,0.1-0.1,0.1-0.2c0,0,0-0.1,0-0.1s-0.1-0.1-0.1-0.1c0,0-0.1,0-0.3,0h-0.3V4.6z"></path> </g> </g> </g> </g> </svg> 