<?xml version="1.0" encoding="UTF-8"?> <!-- Generator: Adobe Illustrator 24.0.0, SVG Export Plug-In . SVG Version: 6.00 Build 0) --> <svg xmlns="http://www.w3.org/2000/svg" xmlns:xlink="http://www.w3.org/1999/xlink" id="Layer_1" x="0px" y="0px" viewBox="0 0 1428.4 294.1" style="enable-background:new 0 0 1428.4 294.1;" xml:space="preserve"> <style type="text/css"> .st0{fill:#020202;} </style> <g> <path shape-rendering="geometricPrecision" class="st0" d="M433.1,219.6c-2.5,0-4.6-2.1-4.6-4.6V58.8c0-2.5,2.1-4.6,4.6-4.6l51.4,0 l32.8,0c24.4,0.1,53.3,13.8,53.3,45.3c0,17.6-12.5,26.9-18.7,32.8c9.4,4.7,22,18.7,22,38.9c0,15.8-6.2,28-16.3,36.1 c-10.2,8.1-24.3,12.2-40.3,12.2h-39.6L433.1,219.6L433.1,219.6z M458.1,147.9c-2.5,0-4.6,2.1-4.6,4.6V190c0,2.5,2.1,4.6,4.6,4.6 h59.2c21.9-0.1,31.5-8,31.6-23.4c-0.1-14.3-7.1-23.2-31.6-23.3H458.1z M517.3,122.9c15.9,0,28.2-9.2,28.3-23.3 c0-12.6-11.8-20.2-28.3-20.3h-59.2c-2.5,0-4.6,2.1-4.6,4.6v34.5c0,2.5,2.1,4.6,4.6,4.6H517.3z"></path> <path shape-rendering="geometricPrecision" class="st0" d="M610.1,157c0,15.6,3,32.1,13.6,44.8c10.6,12.6,28.8,21.3,59,21.3h0 c30.1,0,48.3-8.6,59-21.3c10.6-12.7,13.6-29.2,13.6-44.8V58.8c0-2.5-2-4.6-4.6-4.6h-15.8c-2.5,0-4.6,2-4.6,4.6V157 c-0.1,23.8-9.6,40.9-47.5,41c-38-0.1-47.4-17.2-47.5-41V58.8c0-2.5-2.1-4.6-4.6-4.6h-15.8c-2.5,0-4.6,2-4.6,4.6L610.1,157 L610.1,157z"></path> <g> <g> <path shape-rendering="geometricPrecision" class="st0" d="M926.6,173.4c0,2.5-1.3,2.9-2.8,1L832.7,57.8c-1.5-2-4.9-3.6-7.4-3.6 h-15.5c-2.5,0-4.6,2-4.6,4.6V215c0,2.5,2.1,4.6,4.6,4.6h15.9c2.5,0,4.6-2.1,4.6-4.6V100.4c0-2.5,1.3-3,2.8-1L924.1,216 c1.5,2,4.9,3.6,7.4,3.6H947c2.5,0,4.6-2.1,4.6-4.6V58.8c0-2.5-2.1-4.6-4.6-4.6h-15.9c-2.5,0-4.6,2-4.6,4.6L926.6,173.4 L926.6,173.4z"></path> </g> </g> <path shape-rendering="geometricPrecision" class="st0" d="M1218,115.3L1218,115.3h-15.8h0c-2.5,0-4.6,2.1-4.6,4.6V215 c0,2.5,2.1,4.6,4.6,4.6h0.7h14.4h0.7c2.5,0,4.6-2.1,4.6-4.6v-95.2C1222.5,117.3,1220.5,115.3,1218,115.3z"></path> <g> <g> <path shape-rendering="geometricPrecision" class="st0" d="M1294.8,194.6c-2.5,0-4.6-2.1-4.6-4.6v-39.5c0-2.5,2.1-4.6,4.6-4.6 h62.7c2.5,0,4.6-2.1,4.6-4.6v-15.9c0-2.5-2.1-4.6-4.6-4.6h-62.7c-2.5,0-4.6-2.1-4.6-4.6V83.8c0-2.5,2.1-4.6,4.6-4.6h95.5 c2.5,0,4.6-2.1,4.6-4.6V58.8c0-2.5-2.1-4.6-4.6-4.6h-120.5c-2.5,0-4.6,2-4.6,4.6V215c0,2.5,2.1,4.6,4.6,4.6h124.6 c2.5,0,4.6-2.1,4.6-4.6v-15.9c0-2.5-2.1-4.6-4.6-4.6L1294.8,194.6L1294.8,194.6z"></path> </g> </g> <path shape-rendering="geometricPrecision" class="st0" d="M1082.5,75.1c24.5,0,37.2,10.3,45.4,18.3c1.7,1.6,1.8,1.7,1.8,1.7 c1.8,1.8,4.7,1.8,6.4,0l11-11.3c1.8-1.8,1.7-4.7-0.1-6.5c0,0,0,0-1.7-1.6c-11-10.1-31.1-25.7-65.2-25.7c-26.4,0-49,9.7-65,25.3 c-16,15.6-25.4,37.1-25.4,60.7c0,28.1,11.5,49.7,28.5,64.3c17,14.6,39.5,22.1,61.5,22.1c48.7-0.1,68.8-21.6,73.2-27.3 c0.6-0.8,0.6-0.8,0.6-0.8c0.2-0.3,0.4-0.7,0.6-0.8c0.1-0.2,0.3-0.3,0.3-0.4c0-0.1,0.1-0.3,0.1-0.6c0-0.3,0-2.6,0-5.1v-51.1 c0-2.5-2.1-4.6-4.6-4.6h-58.4c-2.5,0-4.6,2.1-4.6,4.6v15.2c0,2.5,2.1,4.6,4.6,4.6h33.2c2.5,0,4.6,2.1,4.6,4.6v17.6 c0,2.5-0.5,5-1.2,5.6c0,0,0,0-0.9,0.7c-0.4,0.3-0.7,0.6-1.1,0.8c-6.6,4.8-19.4,12.1-45.5,12.1c-41.2,0-66.1-28.5-66.1-60.2 C1014.7,103.1,1039.4,75.1,1082.5,75.1"></path> <path shape-rendering="geometricPrecision" class="st0" d="M1210,52.7c-13,0-23.5,10.5-23.5,23.5c0,13,10.5,23.5,23.5,23.5 c13,0,23.5-10.5,23.5-23.5C1233.6,63.2,1223,52.7,1210,52.7z"></path> <path shape-rendering="geometricPrecision" class="st0" d="M1419.1,61.8c1.2,0,2.2,0.1,2.7,0.4c1,0.4,1.6,1.3,1.6,2.5 c0,0.9-0.3,1.6-1,2c-0.3,0.2-0.8,0.4-1.4,0.5c0.8,0.1,1.4,0.4,1.7,1c0.4,0.5,0.6,1.1,0.6,1.6v0.7c0,0.2,0,0.5,0,0.8 c0,0.3,0.1,0.4,0.1,0.5l0.1,0.1h-1.7c0,0,0-0.1,0-0.1c0,0,0-0.1,0-0.1l0-0.3v-0.8c0-1.2-0.3-1.9-0.9-2.3c-0.4-0.2-1-0.3-2-0.3h-1.4 v4h-1.8V61.8H1419.1z M1420.9,63.4c-0.4-0.2-1.2-0.4-2.1-0.4h-1.5v3.6h1.6c0.8,0,1.3-0.1,1.7-0.2c0.7-0.3,1-0.8,1-1.6 C1421.6,64.2,1421.4,63.7,1420.9,63.4 M1425.7,73.4c-1.8,1.8-3.9,2.7-6.5,2.7c-2.5,0-4.7-0.9-6.4-2.7c-1.8-1.8-2.6-4-2.6-6.5 c0-2.5,0.9-4.7,2.7-6.5c1.8-1.8,3.9-2.7,6.4-2.7c2.5,0,4.7,0.9,6.5,2.7c1.8,1.8,2.7,3.9,2.7,6.5 C1428.4,69.4,1427.5,71.6,1425.7,73.4 M1413.7,61.3c-1.5,1.5-2.3,3.4-2.3,5.6c0,2.2,0.8,4.1,2.3,5.6s3.4,2.3,5.6,2.3s4-0.8,5.6-2.3 c1.5-1.6,2.3-3.4,2.3-5.6c0-2.2-0.8-4-2.3-5.6c-1.5-1.5-3.4-2.3-5.6-2.3C1417.1,59,1415.2,59.7,1413.7,61.3"></path> </g> <path shape-rendering="geometricPrecision" class="st0" d="M304.2,156.9l-14-10.4V0L158.1,6.4L26.1,0v37.4L5.5,29.2l-0.2-0.1l-0.2,0 C4.9,29,4.5,28.9,4,28.9H3.9H3.8c-1.1,0-2.1,0.5-2.8,1.3S0,32.1,0,33.2c0.1,1.4,0.8,2.6,2,3.3l22.3,13.8l1.7,1.1v96.1 c0.2,41.3,31.3,76.2,62.1,101.6c30.2,24.8,60.8,40.4,64.7,42.4l2.9,1.5l1.5,0.8l1.1,0.5l5.1-2.8c2.6-1.3,33.8-17,64.7-42.4 c27.9-23,56.1-54.1,61.1-90.5l11,5.4l0.3,0.1l0.3,0.1c0.4,0.1,0.8,0.2,1.1,0.2c1.2,0,2.2-0.5,2.9-1.3c0.7-0.8,1.1-1.8,1.1-2.9 C305.9,158.7,305.2,157.6,304.2,156.9z M30.7,4.9L158.1,11h0.1l127.3-6.2V143l-4.4-3.2l-1.9-1.4l0-4.6v-123l-121.1,5.9L37,10.7v31 l-6.3-2.5V4.9z M233.7,42.4v-5.7h20.9l-12.2,28.8h-6.7l10-23.1C245.6,42.4,233.7,42.4,233.7,42.4z M151.1,103 c3.1,1.2,4.7,4.4,4.7,4.4l7.6,13.9l24.7,16.3c-2.2,4-3,7.1-3.4,8.4c-0.2,0.6-0.2,0.9-0.2,0.9l3.5,18.7c-0.2,0.1-0.4,0.1-0.5,0.1 c-4.3,1.4-8.1,3.6-12.3,6l-2,1.1l-0.2,0.1c-0.7,0.4-1.4,0.8-2.2,1.2l-0.1,0l-0.1,0c-1,0.6-2,1-3.2,1.5c-1.8,0.7-3.7,1-5.3,1 c-2.2,0-4-0.5-5.1-0.8c-0.4-0.1-0.7-0.2-0.9-0.2l-0.1,0l-0.1,0c-3-0.6-7.4-4.4-11-7.5c-2.4-2.1-4.7-4-6.9-5.4 c-0.9-0.6-2-1.1-3.4-1.8l-0.3-0.1c-0.1,0-0.2-0.1-0.2-0.1l5.7-20c0,0,0-0.1-0.1-0.1l-22.6-36.9c-0.6-0.7-0.5-1.8,0.2-2.4l15.4-28.7 c0.2-0.4,0.6-0.7,1.1-0.8c0.1,0,0.3-0.1,0.4-0.1c0,0,0,0,0.1,0c0.3,0,0.7,0.1,1,0.3l14.9,6.3c0,0,0,0,0,0l16.7,7.5 c0.9,0.4,1.3,1.4,0.9,2.4l-6.9,11.1c-0.3,0.7-0.9,1.1-1.6,1.2c0,0,0,0,0,0c-0.2,0-0.4,0-0.7-0.1l-15.8-6.3l-2.4,3.9 C140.3,97.8,142.8,98.8,151.1,103z M233.1,190.9c0.4,0,0.8,0,1.1-0.1c0.4,0,0.8-0.1,1.2-0.1c0.9,0,1.7,0.2,2.1,1.2 c0.7,2.1-1.8,4.4-2.3,6.2c-0.2,0.8-0.1,1.8-0.4,2.6c-1.1,3.2-3.7,6-5.3,8.9c-0.4,0-0.9-0.2-1.3-0.4c-1.7-0.9,3.9-7.4,4.3-8.2 c1.1-1.8-9.3-1.8-9.9-2.1c-2.2-1.1-3.8-3.8-4.6-6c-0.9-2.2-1.6-6.3,1.3-7.3c0.4-0.1,0.8-0.2,1.2-0.2c0.3,0,0.6,0,0.8,0 c0.3,0,0.6,0,0.8,0c0.4,0,0.8,0,1.2-0.2c1.1-0.4,2-1.6,2.6-2.4c-3-2.4-5.9-3.3-8.7-3.3c-4.8,0-9.5,2.6-14.9,4.5 c-3.7,0.7-7.1,1.2-8.6,1.6c-6.5,1.3-12.9,6.9-18.1,8.6c0,0-6.5,2.5-13.3,2.5c-0.7,0-1.3,0-2-0.1c-7.4-0.6-12.2-0.6-23.3-10 c-5.8-4.6-7.2-7.8-22.2-11c-6.6-1.3-12.7-2.9-12.3-6.6c0.1-2.3,4.1-4.5,3-6.9c-0.5-1.2-1.1-4.2-0.2-6.1c-1.9-3.6-3.6-4.4-8.8-6 c-2.8-0.9-5.2-0.9-5.6-0.9c0,0,0,0,0,0l-0.2,0c0.2,1,0.2,2.1,0.1,3.1c-0.7,3.9-2,8.1-5.7,8.1c-0.3,0-0.6,0-0.9-0.1 c-0.2-0.6,2.1-3.2-1.6-7.6c-2.2-2.6-6.8-9.9-1.9-13.4c0.3-0.2,0.8-0.5,1.3-0.8c0.1,0,0.1-0.1,0.2-0.1c1.2-0.6,3-1.1,5.2-1.1 c2.6,0,6,0.7,10.2,2.9c1.1,0.9,8.3,1.9,13.2,2.8c0.9,0.1,1.8,0.3,2.5,0.5c5.4,1.1,9.5,6.1,5.7,9.9c-2.5,2-6.4,4.8-4.5,5.7 c0.1,0,0.1,0.1,0.2,0.1c0.2,0,0.5,0.1,0.8,0.1c0.2,0.1,0.4,0.1,0.6,0.1c1.6,0.4,3.1,0.7,4.6,1.1c0.1,0,0.2,0.1,0.4,0.1 c0.2,0.1,0.5,0.1,0.8,0.2c2.9,0.8,6.3,1.8,9.1,2.9c0.2,0.1,0.4,0.2,0.6,0.3c0.4,0.1,0.7,0.3,1,0.4c1.1,0.5,2.1,1,2.9,1.5 c5.6,3.6,13.1,12.3,19.4,13.5c1.1,0.2,3.6,1.1,7,1.1c2,0,4.2-0.4,6.7-1.2c1.2-0.4,2.5-1,3.9-1.8c0.8-0.4,1.6-0.9,2.4-1.3 c4.7-2.6,9-5.3,13.6-6.8c2.1-0.7,4.2-1.2,6.4-1.2c0.1,0,0.1,0,0.2,0c3.2-0.4,6.3-0.5,7.2-0.9c4.8-1.5,9.6-3.2,14.6-3.2 c1.8,0,3.6,0.2,5.4,0.8c3.9,1.1,7,3.8,9.4,7c1,1.3,5.9,8.2,4.5,9.9c-1.5,1.9-4.7,4-5.1,6.5C231.1,190.5,231.9,190.9,233.1,190.9z M179.5,228.8c0.6,0,0.4,0.8,0.8,0.6c0.4-0.2,0.8-0.3,1,0.4c0.3,0.9-0.8,0.5-0.5,0.9c0.4,0.5-0.9,2.3-1.8,2.7 c-0.8,0.4-0.8-0.6-1.4-0.6c-0.6,0-0.4,0.4-0.7-0.1c-0.3-0.5-0.1-0.9,0.2-1.2c0.3-0.3-0.1-0.8-0.1-0.8l-1.5-4.8l-12.7,10.3l12.8,11.4 c0,0,2.1,4.4,1.1,4.3c-2.6-0.1-4.3-0.5-4.3-0.5L158.2,240l-14.1,11.5c0,0-1.7,0.4-4.3,0.5c-1.1,0,1.1-4.3,1.1-4.3l12.8-11.4 l-12.7-10.3l-1.5,4.8c0,0-0.4,0.5-0.1,0.8c0.3,0.3,0.5,0.7,0.2,1.2c-0.3,0.5-0.1,0.1-0.7,0.1c-0.6,0-0.6,1-1.4,0.6 c-0.8-0.4-2.2-2.2-1.8-2.7c0.3-0.4-0.9,0-0.5-0.9c0.2-0.7,0.6-0.6,1-0.4c0.4,0.2,0.2-0.6,0.8-0.6c0.9,0,1.3-6.7,1.3-6.7l-7.9-6.9 l-1.2-1.4c0,0-1.2,0.2-2.1-0.6c-0.8-0.8-1.1-3-0.3-4c0.8-0.9,2.5-1.1,3.9,0.3c0.8,0.8,0.7,1.7,0.7,1.7l1.4,1.2l8.3,6.3 c0,0,6.6-2.2,6.5-2.9c-0.1-0.6,0.8-0.5,0.5-0.9c-0.2-0.4-0.4-0.7,0.3-1.1c0.9-0.4,0.6,0.8,1,0.4c0.5-0.4,2.5,0.6,3,1.4 c0.5,0.8-0.6,0.9-0.5,1.5c0.1,0.6,0.4,0.4,0,0.7c-0.5,0.4-0.9,0.2-1.2-0.1c-0.5-0.4-0.2-0.6-0.2-0.6l-5.2,3.5l12.8,11.4l12.8-11.4 l-5.2-3.5c0,0,0.3,0.2-0.2,0.6c-0.3,0.3-0.8,0.4-1.2,0.1c-0.5-0.3-0.1-0.1,0-0.7c0.1-0.6-1-0.7-0.5-1.5c0.5-0.8,2.5-1.8,3-1.4 c0.3,0.3,0.1-0.9,1-0.4c0.7,0.3,0.6,0.7,0.3,1.1c-0.2,0.4,0.6,0.3,0.5,0.9c-0.1,0.6,6.5,2.9,6.5,2.9l8.3-6.3l1.4-1.2 c0,0-0.2-0.9,0.7-1.7c1.5-1.4,3.1-1.2,3.9-0.3c0.8,1,0.6,3.2-0.3,4c-0.8,0.8-2.1,0.6-2.1,0.6l-1.2,1.4l-7.9,6.9 C178.2,222.1,178.6,228.8,179.5,228.8z M162.9,61.8l-8.8,14.6l-2.1-0.9l-0.5-0.2l-2.2-0.9l-11.4-4.9l9.8-16.6 c0.3-0.6,0.9-0.9,1.5-0.9c0,0,0,0,0.1,0c0.3,0,0.6,0.1,0.9,0.2l12.1,7.1C163.1,59.9,163.4,61,162.9,61.8z M166.1,63.9 c0.3-0.5,0.9-0.8,1.5-0.9c0,0,0,0,0.1,0c0.3,0,0.6,0.1,0.9,0.3l11,6.5c0.9,0.5,1.1,1.6,0.6,2.5l-0.5,0.8c0,0.1-0.1,0.1-0.1,0.1 l-4.2,6.8l-3.9,6.3c-0.1-0.2-0.1-0.3-0.2-0.5c-0.4-1-1.1-1.8-1.9-2.4c-0.4-0.3-0.8-0.6-1.2-0.8l-10.7-4.8L166.1,63.9z M165.6,101.8 l5.7-9.1l11-17.7c0.3-0.6,0.9-0.8,1.6-0.8c0,0,0,0,0,0c0.3,0,0.6,0.1,0.9,0.3l9.9,5.8c0.8,0.5,1.1,1.6,0.6,2.5l-9.9,15.7l-1.3,2.1 l-5.4,8.6c-0.1,0.1-0.1,0.3-0.2,0.4c-0.4,0.5-0.9,0.8-1.5,0.8c0,0,0,0,0,0c-0.3,0-0.6-0.1-0.9-0.3l-9.9-5.8 C165.4,103.7,165.1,102.6,165.6,101.8z M181.5,110.9l15.4-24.6c0.4-0.5,0.9-0.8,1.5-0.8c0,0,0,0,0,0c0.3,0,0.7,0.1,0.9,0.3l7.9,4.7 c0.9,0.5,1.1,1.6,0.6,2.5l-15.4,24.6c-0.3,0.5-0.9,0.8-1.5,0.8c0,0,0,0,0,0c-0.3,0-0.6-0.1-0.9-0.3l-7.9-4.7 C181.3,112.8,181,111.7,181.5,110.9z M3.7,33.6c-0.2-0.1-0.4-0.4-0.4-0.6c0-0.4,0.3-0.8,0.7-0.8c0,0,0,0,0,0c0.1,0,0.3,0,0.3,0 l32.8,13l55,21.9l-1.6-30.7L134.9,68c0,0-0.5-0.2-1.3-0.2c-0.4,0-0.8,0.1-1.2,0.2c-1.4,0.4-1.7,1.3-1.7,1.3l-0.7,1.4 c0,0,0,0-0.1,0.1l-0.1,0.1l-0.1,0.1l-8.1,15.1l-11.3-7.9l-4.8,18.4L37,54.2l-6.3-3.9l-4.6-2.9L3.7,33.6z M225.2,245.4 c-30.4,25-61.4,40.6-63.9,41.8l-3.1,1.7l-0.4-0.2l-1.4-0.7v0l-1.3-0.6c-2.7-1.3-33.6-17-64-41.9c-30.4-25-60.3-59.2-60.4-98V54.2 l4.6,2.8l1.7,1.1v3.7v85.6c0,73.9,113.8,131.9,118.6,134.3l2.6,1.3l2.4-1.3c4.7-2.4,112.4-57.3,118.3-128.4l4.8,2.4l1,0.5 C280.7,191.3,253.2,222.3,225.2,245.4z M302,160.9C301.9,160.9,301.9,160.9,302,160.9c-0.1,0-0.3-0.1-0.3-0.1l-11.9-5.9l-4.5-2.2 l-6.1-3L231,126.1l-4.9,32.6L166.9,119l-8.1-15l26,14.7l3.5,2.1c0.5,0.3,1,0.5,1.6,0.6c0.4,0.1,0.8,0.2,1.2,0.2c0,0,0,0,0,0 c1.2,0,2.3-0.5,3.1-1.3c0.4-0.3,0.8-0.7,1.1-1.2l1.9-3l1.8-2.7l13.7,11.3l4.4-28.7l62.2,46.3l23.1,17.2c0.2,0.1,0.3,0.4,0.4,0.6 C302.7,160.6,302.4,160.9,302,160.9z"></path> </svg> 