<svg xmlns="http://www.w3.org/2000/svg" width="148.067" height="112.22" viewBox="0 0 148.067 112.22">
  <path id="discord-mark-white" d="M125.427,9.4A122.457,122.457,0,0,0,94.88,0a83.923,83.923,0,0,0-3.913,7.954,113.757,113.757,0,0,0-33.9,0A84.281,84.281,0,0,0,53.152,0,123.319,123.319,0,0,0,22.582,9.422C3.249,38.024-1.991,65.916.629,93.412h0A123.133,123.133,0,0,0,38.094,112.22a90.489,90.489,0,0,0,8.024-12.939,79.681,79.681,0,0,1-12.636-6.033c1.06-.769,2.1-1.561,3.1-2.329a88.009,88.009,0,0,0,74.907,0c1.013.827,2.05,1.619,3.1,2.329a79.986,79.986,0,0,1-12.659,6.044,89.673,89.673,0,0,0,8.024,12.927,122.574,122.574,0,0,0,37.488-18.8h0C150.512,61.537,142.185,33.9,125.427,9.4ZM49.437,76.5c-7.3,0-13.335-6.627-13.335-14.779s5.823-14.837,13.311-14.837S62.888,53.571,62.76,61.724,56.879,76.5,49.437,76.5Zm49.193,0c-7.314,0-13.323-6.627-13.323-14.779S91.13,46.887,98.63,46.887s13.439,6.685,13.311,14.837S106.071,76.5,98.63,76.5Z" transform="translate(0)" fill="#5965f2"/>
</svg>
