<svg id="PUBLISHING" xmlns="http://www.w3.org/2000/svg" xmlns:xlink="http://www.w3.org/1999/xlink" width="428.461" height="172.207" viewBox="0 0 428.461 172.207">
  <defs>
    <clipPath id="clip-path">
      <rect id="Rectangle_200" data-name="Rectangle 200" width="295.027" height="127.626" fill="#e49227"/>
    </clipPath>
    <clipPath id="clip-path-2">
      <rect id="Rectangle_200-2" data-name="Rectangle 200" width="295.027" height="127.626" fill="none"/>
    </clipPath>
  </defs>
  <g id="Group_316" data-name="Group 316" transform="translate(345.337 126.055) rotate(171)">
    <g id="Group_315" data-name="Group 315" transform="translate(0)" clip-path="url(#clip-path)">
      <path id="Path_219" data-name="Path 219" d="M79.3.531a44.052,44.052,0,0,0-7.707,2.006,70.026,70.026,0,0,0-6.524,2.609q-3.422,1.53-6.7,3.247a110.356,110.356,0,0,0-12.351,7.674,137.993,137.993,0,0,0-10.895,8.546c-3.563,3.092-6.872,6.352-10.059,9.68a140.337,140.337,0,0,0-16.5,20.894A82.564,82.564,0,0,0,2.255,66.717,28.657,28.657,0,0,0,.261,71.956a9.733,9.733,0,0,0-.235,2.878A11.6,11.6,0,0,0,.68,77.671a10.133,10.133,0,0,0,3,4.326,7.754,7.754,0,0,0,2.352,1.281,15.164,15.164,0,0,0,3.406.819,36.158,36.158,0,0,0,6.436.16q.783-.04,1.565-.094-.763.582-1.522,1.168c-.984.751-1.942,1.529-2.961,2.247-1.359.946-2.883,1.724-4.137,2.757a7.285,7.285,0,0,0-1.376,1.516,2.431,2.431,0,0,0-.487,1.254,5.233,5.233,0,0,0,.243,1.254,2.226,2.226,0,0,0,1.672,1.288,3.026,3.026,0,0,0,2.326-.476c4.076-2.683,8.213-5.285,12.123-8.116q3.223-2.341,6.35-4.764c2.856-.709,5.662-1.556,8.447-2.373,5.078-1.49,10.2-2.865,15.242-4.421,6.434-1.986,12.807-4.09,19.255-6.063q-4.6,3.581-9.134,7.223c-6.454,5.2-12.655,10.571-18.682,16.072q-4.468,4.085-8.7,8.311-2.156,2.154-4.224,4.367c-1.186,1.268-2.34,2.541-3.574,3.787-2.473,2.433-5.061,4.844-6.8,7.643a15.508,15.508,0,0,0-1.114,2.147,10.41,10.41,0,0,0-.635,2.6,4.153,4.153,0,0,0,.766,2.495c.418.731.957,1.415,1.376,2.146.575,1.02,2.7,1.69,4.032,1.268,2.4-.758,4.808-1.476,7.185-2.26,2.535-.838,5-1.811,7.447-2.784,2.239-.892,4.468-1.8,6.7-2.689q6.689-2.667,13.369-5.333c2.1-.838,4.154-1.731,6.227-2.623q6.937-3,13.892-6l4.52-1.952c3.013-1.3,5.94-2.75,8.874-4.152q1.056-.5,2.108-1.011a28.1,28.1,0,0,0,3,2.97c1.568,1.322,3.528,2.368,5.261,3.562a4.149,4.149,0,0,0,4.729,0,26.489,26.489,0,0,0,4.356-3.964,24.829,24.829,0,0,0,2.848-5.521c.627-1.435,1.394-2.83,2.134-4.233,1.115-2.122,2.208-4.261,3.341-6.383q3.635-2.057,7.2-4.187,1.674,1.539,3.391,3.051,3.341,2.94,6.923,5.7l-.591.671c-1.821,2.067-3.676,4.092-5.574,6.111q-2.666,2.847-5.34,5.681-1.882,1.982-3.762,3.978c-1.507,1.6-2.848,3.267-4.233,4.93a1.867,1.867,0,0,0,0,2.354,2.835,2.835,0,0,0,1.08.839,3.69,3.69,0,0,0,2.344.235c.748-.242,1.532-.443,2.264-.712a11.511,11.511,0,0,0,1.986-1.033,25.08,25.08,0,0,0,3.528-2.65c2.277-1.968,4.227-4.148,6.314-6.236q4.557-4.5,9.07-9.035c2.95,1.984,6.023,3.859,9.185,5.632a52.352,52.352,0,0,0,6.119,2.935,7.485,7.485,0,0,0-.057,2.813c.217,1.268.644,2.5.905,3.769a2.4,2.4,0,0,0,1.385,1.389,4.09,4.09,0,0,0,2.325.235l.147-.015a58.431,58.431,0,0,0,6.551-.7,18.546,18.546,0,0,0,3.223-1.08,27.312,27.312,0,0,0,3.24-1.644c1.89-1.086,3.649-2.293,5.391-3.521,1.89-1.335,3.807-2.636,5.723-3.944,5.373-3.682,10.407-7.647,15.65-11.437,5.662-4.078,11.244-8.224,17.062-12.175q4.037-2.747,8.074-5.488c2.98-2.014,5.9-4.092,9.016-5.98,1.237-.707,2.521-1.36,3.77-2.062a26.464,26.464,0,0,1,3.473-1.708c.2-.052.4-.1.613-.137h.012c.1.019.2.041.3.065.344.138.672.291,1,.458a10.063,10.063,0,0,1,1.077.817,4.577,4.577,0,0,1,.3.377,6.375,6.375,0,0,1,.349,1.045,11.642,11.642,0,0,1-.144,3c-.3,1.461-.7,2.905-1.041,4.362a48.4,48.4,0,0,1-1.716,5.715c-1.037,2.8-2.239,5.588-3.44,8.352q-2.039,4.709-4.094,9.417c-.976,2.248-1.916,4.5-2.875,6.756-.505,1.207-1.019,2.414-1.524,3.622a30.441,30.441,0,0,0-1.9,5.124,6.562,6.562,0,0,0,0,3.053c.243.966.644,1.891.931,2.844a2.82,2.82,0,0,0,2.752,1.617,32.479,32.479,0,0,0,7-.55,30.233,30.233,0,0,0,6.714-2.925c1.96-1.06,3.938-2.107,5.9-3.173,1.828-1,3.667-1.986,5.486-2.992,1.551-.859,3.127-1.7,4.712-2.515a47.584,47.584,0,0,1,6.678-2.785,60.975,60.975,0,0,1,6.84-1.709c1.211-.228,2.438-.383,3.675-.53,1.341-.166,2.681-.332,4.029-.477,1.253-.122,2.505-.252,3.758-.322,1.063-.067,1.96-.644,1.96-1.516a1.788,1.788,0,0,0-1.96-1.509c-1.541.046-3.092-.02-4.633-.02-1.69,0-3.37.121-5.052.235a51.116,51.116,0,0,0-9.188,1.51,45.97,45.97,0,0,0-8.492,3.058c-1.811.872-3.588,1.824-5.339,2.77-2.308,1.247-4.6,2.515-6.9,3.776-.654.356-1.315.718-1.968,1.073-1.28.7-2.578,1.388-3.876,2.079a28.147,28.147,0,0,1-3.7,1.658,13.49,13.49,0,0,1-1.542.349c-.631.043-1.264.058-1.9.066-.108-.325-.21-.652-.3-.983a5.943,5.943,0,0,1,.02-1.1,32.371,32.371,0,0,1,1.914-4.93c.227-.517.444-1.033.67-1.55.811-1.911,1.63-3.816,2.439-5.721,1.106-2.569,2.239-5.132,3.37-7.7,1.977-4.514,4.032-9.029,5.766-13.61a52.456,52.456,0,0,0,1.672-5.635c.47-1.9,1.01-3.776,1.324-5.7a8.929,8.929,0,0,0-.471-4.883,9.553,9.553,0,0,0-4.311-4.145,9.985,9.985,0,0,0-2.734-1,9.357,9.357,0,0,0-3.318.013,12.376,12.376,0,0,0-2.961.932c-1.08.443-2.083,1.013-3.092,1.543-.915.489-1.864.945-2.779,1.449-1.08.584-2.108,1.221-3.127,1.865-1.942,1.214-3.823,2.489-5.7,3.763-3.187,2.167-6.349,4.353-9.52,6.527-5.835,4-11.445,8.2-17.114,12.343-3.075,2.247-6.106,4.521-9.128,6.808l-.588.445q.487-.936.945-1.88a44.485,44.485,0,0,0,2.308-5.983c.6-1.885,1.106-3.783,1.594-5.688.548-2.093,1.114-4.179,1.628-6.279,1.446-5.89,2.483-11.853,3.458-17.8q.746-4.532,1.478-9.065,2.006-3.188,3.94-6.4c1.3-2.146,2.508-4.319,3.649-6.52,1.1-2.113,1.89-4.286,2.779-6.453a2.488,2.488,0,0,0-1.612-3.052,4.35,4.35,0,0,0-4.259.423c-.651.516-1.316,1.025-1.967,1.543a6.8,6.8,0,0,0-.723-1.537c-.549-.885-1.29-1.683-1.908-2.541-1.14-1.6-4.354-1.986-5.983-.6-1.6,1.376-3.275,2.69-4.913,4.039a58.729,58.729,0,0,0-5.156,4.843,109.378,109.378,0,0,0-8.282,10.2c-2.77,3.743-5.539,7.473-8.448,11.148q-7.056,8.935-14.118,17.863c-1.568,1.979-3.231,3.924-4.851,5.883q-3.462,4.206-6.933,8.412c-.583.7-1.219,1.382-1.821,2.072l-.134.152q-.642-.51-1.277-1.024c-2.651-2.151-5.166-4.4-7.609-6.69q2.265-1.466,4.447-3c1.881-1.328,3.658-2.744,5.47-4.125a97.487,97.487,0,0,0,9.476-7.755,24.115,24.115,0,0,0,3.448-4.153,11.865,11.865,0,0,0,1.794-4.743,10.383,10.383,0,0,0-.523-4.635,7.811,7.811,0,0,0-1.009-1.939,6.3,6.3,0,0,0-2.143-1.765,7.51,7.51,0,0,0-2.482-.724,18.94,18.94,0,0,0-3.546-.154c-1.835.071-3.664.311-5.487.533,1.9-3.6,3.756-7.225,5.288-10.937.662-1.616,1.437-3.179,2.2-4.763a9.128,9.128,0,0,0,1.167-5.1,4.488,4.488,0,0,0-1.1-2.529,6.807,6.807,0,0,0-2.708-1.817,7.218,7.218,0,0,0-3.963-.262,10.533,10.533,0,0,0-3.553,1.663c-.984.624-1.9,1.308-2.866,1.931-.8.51-1.6,1.02-2.395,1.537l-5.278,3.38c-3.014,1.932-5.949,3.938-8.928,5.91-5.737,3.8-11.329,7.752-16.963,11.657q-1.812-2.072-3.627-4.145c-.635-.724-1.271-1.442-1.9-2.166-2.612-2.982-5.176-5.994-7.919-8.9l1.1-.825c3.458-2.6,6.8-5.279,10.417-7.747.9-.616,1.835-1.211,2.78-1.789A44.386,44.386,0,0,1,113.56,16.6a36.663,36.663,0,0,1,5.59-1.263,18.9,18.9,0,0,1,2.347-.026c.11.019.217.041.324.064.217.1.428.2.64.306a61.6,61.6,0,0,1,6.9,5.535c1.759,1.523,5.086,1.382,6.881,0a3.206,3.206,0,0,0,0-5.3,42.871,42.871,0,0,0-5.061-3.824c-1.01-.617-2.011-1.241-3.039-1.838a13.915,13.915,0,0,0-3.754-1.416,14.934,14.934,0,0,0-2.135-.235,13.187,13.187,0,0,0-1.541-.006,27.066,27.066,0,0,0-3.832.436,38.439,38.439,0,0,0-7.368,2.233A52.129,52.129,0,0,0,98.8,17.106a24.2,24.2,0,0,0,1.279-2.395,11.23,11.23,0,0,0,1.368-5.366A8.889,8.889,0,0,0,98.827,4.16a10.622,10.622,0,0,0-2.238-1.871,12.823,12.823,0,0,0-3.275-1.4A27.081,27.081,0,0,0,86.164,0L85.8,0a45.291,45.291,0,0,0-6.5.532m9.616,5.463a18.794,18.794,0,0,1,2.326.461c.29.112.569.235.843.37a10.365,10.365,0,0,1,1,.782,10.267,10.267,0,0,1,1.084,1.424,6.439,6.439,0,0,1,.307.8,6.629,6.629,0,0,1-.038,1.2,19.237,19.237,0,0,1-1.63,4.361A65.4,65.4,0,0,1,88.959,21c-1.069,1.446-2.2,2.859-3.369,4.258-1.446-1.271-2.78-2.617-4.288-3.849a16.451,16.451,0,0,0-5.713-3.079,13.04,13.04,0,0,0-6.776.014,9.546,9.546,0,0,0-3.127,1.435,4.789,4.789,0,0,0-1.1,1.154,6.485,6.485,0,0,0-.706,1.4,8.036,8.036,0,0,0-.409,2.716c-.034.932.017,1.872.043,2.8a31.306,31.306,0,0,0,1.176,6.459c.531,2.167,1,4.346,1.55,6.513q.327,1.283.682,2.561l-.393.35q-4.887,4.347-9.929,8.573-9.132,7.7-18.264,15.381c-2.124,1.8-4.4,3.5-6.592,5.245q-3.15,2.5-6.3,5.008c-1.768.374-3.555.685-5.373.9a52.27,52.27,0,0,1-8.839.248,17.055,17.055,0,0,1-1.9-.363c-.2-.079-.4-.162-.592-.253-.073-.056-.145-.112-.214-.17a7.175,7.175,0,0,1-.608-.841,10.594,10.594,0,0,1-.738-2.156,7.706,7.706,0,0,1-.007-1.687A21.22,21.22,0,0,1,9.023,69.1c.76-1.52,1.485-3.053,2.289-4.565,1.466-2.6,3.111-5.14,4.836-7.65,1.785-2.6,3.624-5.192,5.565-7.727a144.85,144.85,0,0,1,12.431-14.07A133.791,133.791,0,0,1,58.905,15.6c2.594-1.512,5.293-2.9,8.054-4.232a78.639,78.639,0,0,1,9.117-3.8,42.822,42.822,0,0,1,7.014-1.5,35.707,35.707,0,0,1,5.827-.075m-6.247.114-.26.025.26-.025m23.586,13.776c-.191.117-.387.234-.58.35q.29-.177.58-.35m-33.906,3.85-.149.147a1.983,1.983,0,0,1,.149-.147m.421.532c.1.021.195.043.292.067a12.537,12.537,0,0,1,1.344.631,41.227,41.227,0,0,1,4.467,3.593c.707.622,1.419,1.238,2.125,1.856-.18.188-.359.377-.54.565l-2.84,2.987-.565.481q-1.621,1.391-3.216,2.8-.177-.815-.346-1.63c-.4-1.882-.835-3.753-1.195-5.639a25.45,25.45,0,0,1-.233-2.995c-.015-.88-.081-1.762-.022-2.642.111-.023.225-.044.338-.064.131,0,.261-.008.393-.009m72.486.809.032.019-.032-.019M118.075,44.8c2.247-1.543,4.459-3.119,6.732-4.629l10.485-6.969c1.516-1.006,3.041-2,4.556-3l3.51-2.3c.555-.363,1.081-.749,1.605-1.138-.386,1.112-.918,2.193-1.422,3.278-.88,1.879-1.55,3.816-2.378,5.709-1.586,3.609-3.443,7.141-5.274,10.676l-.143.029c-2.7.57-5.348,1.274-8,1.945-1.551.389-3.092.764-4.633,1.174q-6.192,1.64-12.377,3.289-.451-.522-.905-1.043L109.1,51q4.49-3.1,8.973-6.192m80.9-16.557a16.832,16.832,0,0,1-.243,2.081c.022-.134.046-.267.07-.4-.212,1.2-.389,2.411-.548,3.619Q197,34.838,195.738,36.13c-1.942,1.979-3.885,3.971-5.818,5.956q-6.964,7.135-13.9,14.288-4.177,4.3-8.352,8.609,5.348-6.575,10.7-13.156c5.356-6.582,9.979-13.545,16.068-19.766a56.327,56.327,0,0,1,4.538-3.814M81.295,38.411q2.164-1.785,4.395-3.51c2.371,2.507,4.621,5.082,6.971,7.6.618.657,1.211,1.335,1.811,2.006l4.73,5.25c-3.472,2.5-6.891,5.052-10.339,7.569q-2.086,1.532-4.177,3.06l-3.045.922c-1.3-2.948-2.5-5.927-3.542-8.945q-1.553-4.443-2.774-8.946c1.977-1.678,3.96-3.352,5.97-5.006m116.43,4.5-.149.149.149-.149M166.177,74.867q13.34-13.623,26.791-27.18,2.057-2.066,4.11-4.135c-.017.127-.033.253-.052.379q-.12.84-.239,1.678-.723,1.152-1.451,2.3-3.279,5.181-6.558,10.357Q184.233,65.44,179.66,72.6c-5,7.827-10.19,15.616-14.5,23.692.1-.195.2-.383.3-.57-.532.968-1.1,1.928-1.643,2.9q-.435-.188-.865-.381a61.705,61.705,0,0,1-5.966-3.186l.654.382q-3.7-2.211-7.167-4.615,7.886-7.954,15.7-15.951M142.724,45.355l-.279.032.279-.032M44.052,70.668q5.462-4.608,10.931-9.216c1.62-1.369,3.3-2.71,4.86-4.125q4.441-4.025,8.876-8.049a123.34,123.34,0,0,0,5.726,14.21l-3.794,1.15C62.213,67.2,53.92,70.024,45.437,72.493c-1.779.517-3.577,1-5.367,1.5q2-1.652,3.981-3.324M151.6,49.337c.209.035.413.078.615.129l.016.006.022.018a5.449,5.449,0,0,1,.395.546,8.862,8.862,0,0,1,.588,1.776,9.977,9.977,0,0,1,.038,2.394,9.23,9.23,0,0,1-.825,2.112,21.972,21.972,0,0,1-3.1,3.916,135.042,135.042,0,0,1-10.9,8.866c-2.395,1.877-4.922,3.648-7.528,5.348q-1.031-1-2.052-2.013,1.046-1.905,2.09-3.811c-.017.03-.033.059-.049.088q4.771-8.64,9.55-17.293.267-.482.528-.965c1.344-.229,2.707-.378,4.062-.571,1.151-.157,2.3-.323,3.459-.461a20.943,20.943,0,0,1,3.1-.084m-27.59,5.273c2.221-.591,4.442-1.161,6.663-1.751q1.052-.277,2.1-.55c-.558,1.022-1.121,2.044-1.677,3.066q-3.347,6.164-6.7,12.332-4.932-5.28-9.859-10.558,4.734-1.268,9.466-2.538m-18.133,4.856,1.673-.447q.185.2.374.393,4.036,4.206,8.065,8.418,2.664,2.778,5.33,5.564c-1.682,3.089-3.377,6.174-5,9.281l-.309.591q-1.735.968-3.471,1.931-6.525,3.622-13.28,6.981c-1.294-1.882-2.484-3.811-3.738-5.7-2.693-4.057-5.177-8.2-7.508-12.382l.061.113c-.033-.06-.066-.12-.1-.18l-.277-.5c.056.1.11.192.163.287q-1.454-2.67-2.821-5.363l6.582-4.8c4.724-1.452,9.45-2.9,14.253-4.191m73.813,24.081q3.515-5.4,7.02-10.826,3.946-6.07,7.844-12.161c-.046.272-.091.546-.138.818-.493,2.843-1.021,5.688-1.627,8.518-.6,2.771-1.341,5.521-2.038,8.277a83.089,83.089,0,0,1-2.369,8.016,51.813,51.813,0,0,1-3.162,6.784,25.589,25.589,0,0,1-3.671,5.271,14.3,14.3,0,0,1-1.791,1.4,16.75,16.75,0,0,1-2.14.928,23.056,23.056,0,0,1-3.309.706,16.842,16.842,0,0,1-2.134.029,21.755,21.755,0,0,1-2.872-.629c.763-1.342,1.558-2.674,2.3-4.028l-.075.139c2.495-4.491,5.33-8.871,8.166-13.246m-117,2.509c3.7-3.106,7.5-6.144,11.331-9.155,1.752-1.376,3.521-2.745,5.29-4.108q1.011,1.8,2.053,3.6,3.213,5.584,6.872,11.014c1.054,1.577,2.15,3.146,3.2,4.729.646.968,1.3,1.932,1.975,2.888q-4.1,1.958-8.245,3.86c-1.4.651-2.813,1.274-4.251,1.878q-6.675,2.807-13.36,5.621-2.954,1.238-5.905,2.482c-.662.281-1.316.576-1.994.832q-5.971,2.263-11.932,4.527c-5.207,1.976-10.4,3.989-15.728,5.756-1.546.487-3.121.918-4.7,1.338a9.7,9.7,0,0,1,.561-1.4,26.958,26.958,0,0,1,3.94-4.781c1.628-1.6,3.3-3.18,4.859-4.82,1.693-1.774,3.343-3.57,5.072-5.325a.133.133,0,0,0-.011.012c6.592-6.56,13.682-12.846,20.972-18.95m62.334-7.942-.3.176.3-.176M107.885,92.838q2.184-1.146,4.337-2.325-.522.994-1.036,1.989c-.836,1.6-1.492,3.255-2.314,4.854a12.162,12.162,0,0,1-1.273,1.828c-.276.245-.565.48-.86.709a26.667,26.667,0,0,1-3.315-2.5q-.733-.758-1.4-1.547,2.95-1.481,5.86-3.006m77.444-.067c-.029.054-.058.107-.088.16.03-.053.059-.107.088-.16m-16.04,7.93.154.052-.154-.051Zm-1.576,4.788q.762.216,1.538.4a15.751,15.751,0,0,0,2.524.354,18.175,18.175,0,0,1-2.195.41c-.53.049-1.06.094-1.591.139-.086-.325-.171-.649-.245-.975-.013-.109-.023-.216-.031-.324M32.155,114.772c-.117.118-.23.232-.344.346l.344-.346m-.395.4c-.066.065-.131.13-.2.195l.2-.195m-4.518,6.05c-.006.039-.013.077-.019.114h0c.007-.039.016-.077.023-.116M171.281,97.225c.08-.142.159-.285.239-.431l-.239.431M87.973,74.03c.012.022.025.044.037.067-.05-.093-.1-.185-.151-.277.037.07.076.139.114.21" transform="translate(0 0)" fill="#e49227" opacity="0.999"/>
    </g>
  </g>
  <g id="Group_376" data-name="Group 376" transform="translate(345.337 126.055) rotate(171)">
    <g id="Group_315-2" data-name="Group 315" transform="translate(0)" clip-path="url(#clip-path-2)">
      <path id="Path_219-2" data-name="Path 219" d="M79.3.531a44.052,44.052,0,0,0-7.707,2.006,70.026,70.026,0,0,0-6.524,2.609q-3.422,1.53-6.7,3.247a110.356,110.356,0,0,0-12.351,7.674,137.993,137.993,0,0,0-10.895,8.546c-3.563,3.092-6.872,6.352-10.059,9.68a140.337,140.337,0,0,0-16.5,20.894A82.564,82.564,0,0,0,2.255,66.717,28.657,28.657,0,0,0,.261,71.956a9.733,9.733,0,0,0-.235,2.878A11.6,11.6,0,0,0,.68,77.671a10.133,10.133,0,0,0,3,4.326,7.754,7.754,0,0,0,2.352,1.281,15.164,15.164,0,0,0,3.406.819,36.158,36.158,0,0,0,6.436.16q.783-.04,1.565-.094-.763.582-1.522,1.168c-.984.751-1.942,1.529-2.961,2.247-1.359.946-2.883,1.724-4.137,2.757a7.285,7.285,0,0,0-1.376,1.516,2.431,2.431,0,0,0-.487,1.254,5.233,5.233,0,0,0,.243,1.254,2.226,2.226,0,0,0,1.672,1.288,3.026,3.026,0,0,0,2.326-.476c4.076-2.683,8.213-5.285,12.123-8.116q3.223-2.341,6.35-4.764c2.856-.709,5.662-1.556,8.447-2.373,5.078-1.49,10.2-2.865,15.242-4.421,6.434-1.986,12.807-4.09,19.255-6.063q-4.6,3.581-9.134,7.223c-6.454,5.2-12.655,10.571-18.682,16.072q-4.468,4.085-8.7,8.311-2.156,2.154-4.224,4.367c-1.186,1.268-2.34,2.541-3.574,3.787-2.473,2.433-5.061,4.844-6.8,7.643a15.508,15.508,0,0,0-1.114,2.147,10.41,10.41,0,0,0-.635,2.6,4.153,4.153,0,0,0,.766,2.495c.418.731.957,1.415,1.376,2.146.575,1.02,2.7,1.69,4.032,1.268,2.4-.758,4.808-1.476,7.185-2.26,2.535-.838,5-1.811,7.447-2.784,2.239-.892,4.468-1.8,6.7-2.689q6.689-2.667,13.369-5.333c2.1-.838,4.154-1.731,6.227-2.623q6.937-3,13.892-6l4.52-1.952c3.013-1.3,5.94-2.75,8.874-4.152q1.056-.5,2.108-1.011a28.1,28.1,0,0,0,3,2.97c1.568,1.322,3.528,2.368,5.261,3.562a4.149,4.149,0,0,0,4.729,0,26.489,26.489,0,0,0,4.356-3.964,24.829,24.829,0,0,0,2.848-5.521c.627-1.435,1.394-2.83,2.134-4.233,1.115-2.122,2.208-4.261,3.341-6.383q3.635-2.057,7.2-4.187,1.674,1.539,3.391,3.051,3.341,2.94,6.923,5.7l-.591.671c-1.821,2.067-3.676,4.092-5.574,6.111q-2.666,2.847-5.34,5.681-1.882,1.982-3.762,3.978c-1.507,1.6-2.848,3.267-4.233,4.93a1.867,1.867,0,0,0,0,2.354,2.835,2.835,0,0,0,1.08.839,3.69,3.69,0,0,0,2.344.235c.748-.242,1.532-.443,2.264-.712a11.511,11.511,0,0,0,1.986-1.033,25.08,25.08,0,0,0,3.528-2.65c2.277-1.968,4.227-4.148,6.314-6.236q4.557-4.5,9.07-9.035c2.95,1.984,6.023,3.859,9.185,5.632a52.352,52.352,0,0,0,6.119,2.935,7.485,7.485,0,0,0-.057,2.813c.217,1.268.644,2.5.905,3.769a2.4,2.4,0,0,0,1.385,1.389,4.09,4.09,0,0,0,2.325.235l.147-.015a58.431,58.431,0,0,0,6.551-.7,18.546,18.546,0,0,0,3.223-1.08,27.312,27.312,0,0,0,3.24-1.644c1.89-1.086,3.649-2.293,5.391-3.521,1.89-1.335,3.807-2.636,5.723-3.944,5.373-3.682,10.407-7.647,15.65-11.437,5.662-4.078,11.244-8.224,17.062-12.175q4.037-2.747,8.074-5.488c2.98-2.014,5.9-4.092,9.016-5.98,1.237-.707,2.521-1.36,3.77-2.062a26.464,26.464,0,0,1,3.473-1.708c.2-.052.4-.1.613-.137h.012c.1.019.2.041.3.065.344.138.672.291,1,.458a10.063,10.063,0,0,1,1.077.817,4.577,4.577,0,0,1,.3.377,6.375,6.375,0,0,1,.349,1.045,11.642,11.642,0,0,1-.144,3c-.3,1.461-.7,2.905-1.041,4.362a48.4,48.4,0,0,1-1.716,5.715c-1.037,2.8-2.239,5.588-3.44,8.352q-2.039,4.709-4.094,9.417c-.976,2.248-1.916,4.5-2.875,6.756-.505,1.207-1.019,2.414-1.524,3.622a30.441,30.441,0,0,0-1.9,5.124,6.562,6.562,0,0,0,0,3.053c.243.966.644,1.891.931,2.844a2.82,2.82,0,0,0,2.752,1.617,32.479,32.479,0,0,0,7-.55,30.233,30.233,0,0,0,6.714-2.925c1.96-1.06,3.938-2.107,5.9-3.173,1.828-1,3.667-1.986,5.486-2.992,1.551-.859,3.127-1.7,4.712-2.515a47.584,47.584,0,0,1,6.678-2.785,60.975,60.975,0,0,1,6.84-1.709c1.211-.228,2.438-.383,3.675-.53,1.341-.166,2.681-.332,4.029-.477,1.253-.122,2.505-.252,3.758-.322,1.063-.067,1.96-.644,1.96-1.516a1.788,1.788,0,0,0-1.96-1.509c-1.541.046-3.092-.02-4.633-.02-1.69,0-3.37.121-5.052.235a51.116,51.116,0,0,0-9.188,1.51,45.97,45.97,0,0,0-8.492,3.058c-1.811.872-3.588,1.824-5.339,2.77-2.308,1.247-4.6,2.515-6.9,3.776-.654.356-1.315.718-1.968,1.073-1.28.7-2.578,1.388-3.876,2.079a28.147,28.147,0,0,1-3.7,1.658,13.49,13.49,0,0,1-1.542.349c-.631.043-1.264.058-1.9.066-.108-.325-.21-.652-.3-.983a5.943,5.943,0,0,1,.02-1.1,32.371,32.371,0,0,1,1.914-4.93c.227-.517.444-1.033.67-1.55.811-1.911,1.63-3.816,2.439-5.721,1.106-2.569,2.239-5.132,3.37-7.7,1.977-4.514,4.032-9.029,5.766-13.61a52.456,52.456,0,0,0,1.672-5.635c.47-1.9,1.01-3.776,1.324-5.7a8.929,8.929,0,0,0-.471-4.883,9.553,9.553,0,0,0-4.311-4.145,9.985,9.985,0,0,0-2.734-1,9.357,9.357,0,0,0-3.318.013,12.376,12.376,0,0,0-2.961.932c-1.08.443-2.083,1.013-3.092,1.543-.915.489-1.864.945-2.779,1.449-1.08.584-2.108,1.221-3.127,1.865-1.942,1.214-3.823,2.489-5.7,3.763-3.187,2.167-6.349,4.353-9.52,6.527-5.835,4-11.445,8.2-17.114,12.343-3.075,2.247-6.106,4.521-9.128,6.808l-.588.445q.487-.936.945-1.88a44.485,44.485,0,0,0,2.308-5.983c.6-1.885,1.106-3.783,1.594-5.688.548-2.093,1.114-4.179,1.628-6.279,1.446-5.89,2.483-11.853,3.458-17.8q.746-4.532,1.478-9.065,2.006-3.188,3.94-6.4c1.3-2.146,2.508-4.319,3.649-6.52,1.1-2.113,1.89-4.286,2.779-6.453a2.488,2.488,0,0,0-1.612-3.052,4.35,4.35,0,0,0-4.259.423c-.651.516-1.316,1.025-1.967,1.543a6.8,6.8,0,0,0-.723-1.537c-.549-.885-1.29-1.683-1.908-2.541-1.14-1.6-4.354-1.986-5.983-.6-1.6,1.376-3.275,2.69-4.913,4.039a58.729,58.729,0,0,0-5.156,4.843,109.378,109.378,0,0,0-8.282,10.2c-2.77,3.743-5.539,7.473-8.448,11.148q-7.056,8.935-14.118,17.863c-1.568,1.979-3.231,3.924-4.851,5.883q-3.462,4.206-6.933,8.412c-.583.7-1.219,1.382-1.821,2.072l-.134.152q-.642-.51-1.277-1.024c-2.651-2.151-5.166-4.4-7.609-6.69q2.265-1.466,4.447-3c1.881-1.328,3.658-2.744,5.47-4.125a97.487,97.487,0,0,0,9.476-7.755,24.115,24.115,0,0,0,3.448-4.153,11.865,11.865,0,0,0,1.794-4.743,10.383,10.383,0,0,0-.523-4.635,7.811,7.811,0,0,0-1.009-1.939,6.3,6.3,0,0,0-2.143-1.765,7.51,7.51,0,0,0-2.482-.724,18.94,18.94,0,0,0-3.546-.154c-1.835.071-3.664.311-5.487.533,1.9-3.6,3.756-7.225,5.288-10.937.662-1.616,1.437-3.179,2.2-4.763a9.128,9.128,0,0,0,1.167-5.1,4.488,4.488,0,0,0-1.1-2.529,6.807,6.807,0,0,0-2.708-1.817,7.218,7.218,0,0,0-3.963-.262,10.533,10.533,0,0,0-3.553,1.663c-.984.624-1.9,1.308-2.866,1.931-.8.51-1.6,1.02-2.395,1.537l-5.278,3.38c-3.014,1.932-5.949,3.938-8.928,5.91-5.737,3.8-11.329,7.752-16.963,11.657q-1.812-2.072-3.627-4.145c-.635-.724-1.271-1.442-1.9-2.166-2.612-2.982-5.176-5.994-7.919-8.9l1.1-.825c3.458-2.6,6.8-5.279,10.417-7.747.9-.616,1.835-1.211,2.78-1.789A44.386,44.386,0,0,1,113.56,16.6a36.663,36.663,0,0,1,5.59-1.263,18.9,18.9,0,0,1,2.347-.026c.11.019.217.041.324.064.217.1.428.2.64.306a61.6,61.6,0,0,1,6.9,5.535c1.759,1.523,5.086,1.382,6.881,0a3.206,3.206,0,0,0,0-5.3,42.871,42.871,0,0,0-5.061-3.824c-1.01-.617-2.011-1.241-3.039-1.838a13.915,13.915,0,0,0-3.754-1.416,14.934,14.934,0,0,0-2.135-.235,13.187,13.187,0,0,0-1.541-.006,27.066,27.066,0,0,0-3.832.436,38.439,38.439,0,0,0-7.368,2.233A52.129,52.129,0,0,0,98.8,17.106a24.2,24.2,0,0,0,1.279-2.395,11.23,11.23,0,0,0,1.368-5.366A8.889,8.889,0,0,0,98.827,4.16a10.622,10.622,0,0,0-2.238-1.871,12.823,12.823,0,0,0-3.275-1.4A27.081,27.081,0,0,0,86.164,0L85.8,0a45.291,45.291,0,0,0-6.5.532m9.616,5.463a18.794,18.794,0,0,1,2.326.461c.29.112.569.235.843.37a10.365,10.365,0,0,1,1,.782,10.267,10.267,0,0,1,1.084,1.424,6.439,6.439,0,0,1,.307.8,6.629,6.629,0,0,1-.038,1.2,19.237,19.237,0,0,1-1.63,4.361A65.4,65.4,0,0,1,88.959,21c-1.069,1.446-2.2,2.859-3.369,4.258-1.446-1.271-2.78-2.617-4.288-3.849a16.451,16.451,0,0,0-5.713-3.079,13.04,13.04,0,0,0-6.776.014,9.546,9.546,0,0,0-3.127,1.435,4.789,4.789,0,0,0-1.1,1.154,6.485,6.485,0,0,0-.706,1.4,8.036,8.036,0,0,0-.409,2.716c-.034.932.017,1.872.043,2.8a31.306,31.306,0,0,0,1.176,6.459c.531,2.167,1,4.346,1.55,6.513q.327,1.283.682,2.561l-.393.35q-4.887,4.347-9.929,8.573-9.132,7.7-18.264,15.381c-2.124,1.8-4.4,3.5-6.592,5.245q-3.15,2.5-6.3,5.008c-1.768.374-3.555.685-5.373.9a52.27,52.27,0,0,1-8.839.248,17.055,17.055,0,0,1-1.9-.363c-.2-.079-.4-.162-.592-.253-.073-.056-.145-.112-.214-.17a7.175,7.175,0,0,1-.608-.841,10.594,10.594,0,0,1-.738-2.156,7.706,7.706,0,0,1-.007-1.687A21.22,21.22,0,0,1,9.023,69.1c.76-1.52,1.485-3.053,2.289-4.565,1.466-2.6,3.111-5.14,4.836-7.65,1.785-2.6,3.624-5.192,5.565-7.727a144.85,144.85,0,0,1,12.431-14.07A133.791,133.791,0,0,1,58.905,15.6c2.594-1.512,5.293-2.9,8.054-4.232a78.639,78.639,0,0,1,9.117-3.8,42.822,42.822,0,0,1,7.014-1.5,35.707,35.707,0,0,1,5.827-.075m-6.247.114-.26.025.26-.025m23.586,13.776c-.191.117-.387.234-.58.35q.29-.177.58-.35m-33.906,3.85-.149.147a1.983,1.983,0,0,1,.149-.147m.421.532c.1.021.195.043.292.067a12.537,12.537,0,0,1,1.344.631,41.227,41.227,0,0,1,4.467,3.593c.707.622,1.419,1.238,2.125,1.856-.18.188-.359.377-.54.565l-2.84,2.987-.565.481q-1.621,1.391-3.216,2.8-.177-.815-.346-1.63c-.4-1.882-.835-3.753-1.195-5.639a25.45,25.45,0,0,1-.233-2.995c-.015-.88-.081-1.762-.022-2.642.111-.023.225-.044.338-.064.131,0,.261-.008.393-.009m72.486.809.032.019-.032-.019M118.075,44.8c2.247-1.543,4.459-3.119,6.732-4.629l10.485-6.969c1.516-1.006,3.041-2,4.556-3l3.51-2.3c.555-.363,1.081-.749,1.605-1.138-.386,1.112-.918,2.193-1.422,3.278-.88,1.879-1.55,3.816-2.378,5.709-1.586,3.609-3.443,7.141-5.274,10.676l-.143.029c-2.7.57-5.348,1.274-8,1.945-1.551.389-3.092.764-4.633,1.174q-6.192,1.64-12.377,3.289-.451-.522-.905-1.043L109.1,51q4.49-3.1,8.973-6.192m80.9-16.557a16.832,16.832,0,0,1-.243,2.081c.022-.134.046-.267.07-.4-.212,1.2-.389,2.411-.548,3.619Q197,34.838,195.738,36.13c-1.942,1.979-3.885,3.971-5.818,5.956q-6.964,7.135-13.9,14.288-4.177,4.3-8.352,8.609,5.348-6.575,10.7-13.156c5.356-6.582,9.979-13.545,16.068-19.766a56.327,56.327,0,0,1,4.538-3.814M81.295,38.411q2.164-1.785,4.395-3.51c2.371,2.507,4.621,5.082,6.971,7.6.618.657,1.211,1.335,1.811,2.006l4.73,5.25c-3.472,2.5-6.891,5.052-10.339,7.569q-2.086,1.532-4.177,3.06l-3.045.922c-1.3-2.948-2.5-5.927-3.542-8.945q-1.553-4.443-2.774-8.946c1.977-1.678,3.96-3.352,5.97-5.006m116.43,4.5-.149.149.149-.149M166.177,74.867q13.34-13.623,26.791-27.18,2.057-2.066,4.11-4.135c-.017.127-.033.253-.052.379q-.12.84-.239,1.678-.723,1.152-1.451,2.3-3.279,5.181-6.558,10.357Q184.233,65.44,179.66,72.6c-5,7.827-10.19,15.616-14.5,23.692.1-.195.2-.383.3-.57-.532.968-1.1,1.928-1.643,2.9q-.435-.188-.865-.381a61.705,61.705,0,0,1-5.966-3.186l.654.382q-3.7-2.211-7.167-4.615,7.886-7.954,15.7-15.951M142.724,45.355l-.279.032.279-.032M44.052,70.668q5.462-4.608,10.931-9.216c1.62-1.369,3.3-2.71,4.86-4.125q4.441-4.025,8.876-8.049a123.34,123.34,0,0,0,5.726,14.21l-3.794,1.15C62.213,67.2,53.92,70.024,45.437,72.493c-1.779.517-3.577,1-5.367,1.5q2-1.652,3.981-3.324M151.6,49.337c.209.035.413.078.615.129l.016.006.022.018a5.449,5.449,0,0,1,.395.546,8.862,8.862,0,0,1,.588,1.776,9.977,9.977,0,0,1,.038,2.394,9.23,9.23,0,0,1-.825,2.112,21.972,21.972,0,0,1-3.1,3.916,135.042,135.042,0,0,1-10.9,8.866c-2.395,1.877-4.922,3.648-7.528,5.348q-1.031-1-2.052-2.013,1.046-1.905,2.09-3.811c-.017.03-.033.059-.049.088q4.771-8.64,9.55-17.293.267-.482.528-.965c1.344-.229,2.707-.378,4.062-.571,1.151-.157,2.3-.323,3.459-.461a20.943,20.943,0,0,1,3.1-.084m-27.59,5.273c2.221-.591,4.442-1.161,6.663-1.751q1.052-.277,2.1-.55c-.558,1.022-1.121,2.044-1.677,3.066q-3.347,6.164-6.7,12.332-4.932-5.28-9.859-10.558,4.734-1.268,9.466-2.538m-18.133,4.856,1.673-.447q.185.2.374.393,4.036,4.206,8.065,8.418,2.664,2.778,5.33,5.564c-1.682,3.089-3.377,6.174-5,9.281l-.309.591q-1.735.968-3.471,1.931-6.525,3.622-13.28,6.981c-1.294-1.882-2.484-3.811-3.738-5.7-2.693-4.057-5.177-8.2-7.508-12.382l.061.113c-.033-.06-.066-.12-.1-.18l-.277-.5c.056.1.11.192.163.287q-1.454-2.67-2.821-5.363l6.582-4.8c4.724-1.452,9.45-2.9,14.253-4.191m73.813,24.081q3.515-5.4,7.02-10.826,3.946-6.07,7.844-12.161c-.046.272-.091.546-.138.818-.493,2.843-1.021,5.688-1.627,8.518-.6,2.771-1.341,5.521-2.038,8.277a83.089,83.089,0,0,1-2.369,8.016,51.813,51.813,0,0,1-3.162,6.784,25.589,25.589,0,0,1-3.671,5.271,14.3,14.3,0,0,1-1.791,1.4,16.75,16.75,0,0,1-2.14.928,23.056,23.056,0,0,1-3.309.706,16.842,16.842,0,0,1-2.134.029,21.755,21.755,0,0,1-2.872-.629c.763-1.342,1.558-2.674,2.3-4.028l-.075.139c2.495-4.491,5.33-8.871,8.166-13.246m-117,2.509c3.7-3.106,7.5-6.144,11.331-9.155,1.752-1.376,3.521-2.745,5.29-4.108q1.011,1.8,2.053,3.6,3.213,5.584,6.872,11.014c1.054,1.577,2.15,3.146,3.2,4.729.646.968,1.3,1.932,1.975,2.888q-4.1,1.958-8.245,3.86c-1.4.651-2.813,1.274-4.251,1.878q-6.675,2.807-13.36,5.621-2.954,1.238-5.905,2.482c-.662.281-1.316.576-1.994.832q-5.971,2.263-11.932,4.527c-5.207,1.976-10.4,3.989-15.728,5.756-1.546.487-3.121.918-4.7,1.338a9.7,9.7,0,0,1,.561-1.4,26.958,26.958,0,0,1,3.94-4.781c1.628-1.6,3.3-3.18,4.859-4.82,1.693-1.774,3.343-3.57,5.072-5.325a.133.133,0,0,0-.011.012c6.592-6.56,13.682-12.846,20.972-18.95m62.334-7.942-.3.176.3-.176M107.885,92.838q2.184-1.146,4.337-2.325-.522.994-1.036,1.989c-.836,1.6-1.492,3.255-2.314,4.854a12.162,12.162,0,0,1-1.273,1.828c-.276.245-.565.48-.86.709a26.667,26.667,0,0,1-3.315-2.5q-.733-.758-1.4-1.547,2.95-1.481,5.86-3.006m77.444-.067c-.029.054-.058.107-.088.16.03-.053.059-.107.088-.16m-16.04,7.93.154.052-.154-.051Zm-1.576,4.788q.762.216,1.538.4a15.751,15.751,0,0,0,2.524.354,18.175,18.175,0,0,1-2.195.41c-.53.049-1.06.094-1.591.139-.086-.325-.171-.649-.245-.975-.013-.109-.023-.216-.031-.324M32.155,114.772c-.117.118-.23.232-.344.346l.344-.346m-.395.4c-.066.065-.131.13-.2.195l.2-.195m-4.518,6.05c-.006.039-.013.077-.019.114h0c.007-.039.016-.077.023-.116M171.281,97.225c.08-.142.159-.285.239-.431l-.239.431M87.973,74.03c.012.022.025.044.037.067-.05-.093-.1-.185-.151-.277.037.07.076.139.114.21" transform="translate(0 0)" fill="#fff" opacity="0.999"/>
    </g>
  </g>
  <rect id="Rectangle_507" data-name="Rectangle 507" width="428.461" height="42.806" transform="translate(0 70.079)" fill="#fff"/>
  <text id="Distribution_managed_services" data-name="Distribution managed services" transform="translate(214 99.596)" font-size="20" font-family="RawlineBlack-Regular, Rawline" letter-spacing="0.04em"><tspan x="-184.428" y="0">DISTRIBUTION MANAGED SERVICES</tspan></text>
</svg>
