<svg xmlns="http://www.w3.org/2000/svg" xmlns:xlink="http://www.w3.org/1999/xlink" width="304.804" height="130.988" viewBox="0 0 304.804 130.988">
  <defs>
    <clipPath id="clip-path">
      <rect id="Rectangle_196" data-name="Rectangle 196" width="304.804" height="130.988" fill="none"/>
    </clipPath>
  </defs>
  <g id="ECOMMERCE" transform="translate(-137 -7561.554)">
    <g id="Group_308" data-name="Group 308" transform="translate(137 7561.554)">
      <g id="Group_307" data-name="Group 307" transform="translate(0)" clip-path="url(#clip-path)">
        <path id="Path_215" data-name="Path 215" d="M160.759.362q-12.855.56-25.575,1.9a378.173,378.173,0,0,0-49.535,8.586A362.879,362.879,0,0,0,39.387,25.267c-3.459,1.353-6.875,2.776-10.264,4.211-3.547,1.494-7.068,3.016-10.457,4.667A95.618,95.618,0,0,0,9.964,39a43.8,43.8,0,0,0-7.493,5.466A8.041,8.041,0,0,0,0,50.506a10.891,10.891,0,0,0,.671,3.307,9.6,9.6,0,0,0,2.1,3.319C4.333,58.794,6.928,60,9.5,60.906a60.162,60.162,0,0,0,9.743,2.316c3.256.56,6.557,1.032,9.875,1.382,4.351.449,8.746.624,13.15.671,4.077.04,8.163-.059,12.249-.146,4.465-.093,8.922-.152,13.387-.309,8.855-.321,17.69-.92,26.524-1.5-3.246.979-6.468,2.008-9.675,3.049-3.777,1.231-7.537,2.48-11.182,3.873-2.347.892-4.563,1.919-6.813,2.911-2.1.933-4.174,1.878-6.125,2.951a10.7,10.7,0,0,0-4.35,3.96c-.886,1.73-.552,3.449-.182,5.2a13.866,13.866,0,0,1,.182,1.385,3.528,3.528,0,0,0,3.335,2.893c3.981.455,7.873,1.184,11.862,1.6a53.03,53.03,0,0,0,6.089.292c2.383-.035,4.765-.274,7.122-.5,8.4-.805,16.493-2.776,24.489-4.6q12.152-2.774,23.908-6.195c7.792-2.275,15.461-4.754,23.042-7.32,11.466-3.881,22.632-8.15,33.417-12.8.631.093,1.254.205,1.877.343a15.773,15.773,0,0,1,1.58.625,18.593,18.593,0,0,1,2.077,1.4,11.883,11.883,0,0,1,1.188,1.289,5.579,5.579,0,0,1,.3.654,6.033,6.033,0,0,1-.018,1.222,12.989,12.989,0,0,1-1.342,2.986,44.2,44.2,0,0,1-7.325,8.315,141.318,141.318,0,0,1-11.734,8.429c-4.668,3.126-9.673,6-14.764,8.814q-7.467,4.121-15.056,8.136-4.886,2.608-9.769,5.2c-4.284,2.295-8.517,4.638-12.862,6.876a31.643,31.643,0,0,0-6.492,3.9,9.013,9.013,0,0,0-1.977,2.479,20.367,20.367,0,0,0-1.094,3.436,2.431,2.431,0,0,0,1.879,3.057c3.328.986,6.452,2.228,9.912,3.016a39.484,39.484,0,0,0,5.674.659c2.286.169,4.6.151,6.892.1,4.007-.088,8-.455,11.985-.77,4.465-.361,8.922-.758,13.352-1.295,9.743-1.172,19.345-2.765,28.9-4.45q9.849-1.732,19.679-3.459c6.214-1.085,12.364-2.344,18.543-3.517q4.924-.936,9.832-1.884c2.02-.385,4.041-.782,6.063-1.161,2.215-.414,4.457-.781,6.663-1.213a61.932,61.932,0,0,0,8.393-2.415c3.414-1.167,3.432-4.823,0-5.991-1.227-.42-2.41-.88-3.68-1.254a29.882,29.882,0,0,0-4.863-.922q-.487-.059-.976-.109,10.581-2.1,21.177-4.173c2.736-.53,5.462-1.079,8.2-1.6,1.968-.373,3.963-.688,5.948-1,1.563-.251,3.092-.546,4.664-.745.562-.028,1.111-.034,1.679-.02.536.071,1.058.162,1.582.276.012.031.023.063.034.094a8.872,8.872,0,0,1,0,2.2,19,19,0,0,1-.805,2.12c-.44,1.01-.829,2.03-1.288,3.033-.459,1.027-1,2.03-1.4,3.062-.379.98-.768,1.96-1.236,2.923s.292,2.041,1.563,2.531c1.491.577,3.839.3,4.642-.805.785-1.084,1.694-2.135,2.533-3.208a36.187,36.187,0,0,0,2.426-3.622c1.484-2.45,2.71-4.935,2.71-7.6a5.888,5.888,0,0,0-.812-3.121,4.977,4.977,0,0,0-1.508-1.68,13.576,13.576,0,0,0-2.012-1.061,15.626,15.626,0,0,0-2.533-.717,14.912,14.912,0,0,0-2.3-.327,23.515,23.515,0,0,0-2.939-.122,32.663,32.663,0,0,0-3.856.4c-1.826.262-3.617.636-5.428.928-2.038.332-4.05.734-6.053,1.137-2.278.461-4.545.933-6.823,1.388q-5.32,1.068-10.643,2.141-17.035,3.413-34.036,6.907-3.178.014-6.357.058c-6.663.082-13.326.344-19.989.554-4.775.146-9.505.461-14.27.764-3.68.233-7.36.484-11.031.8-1.819.164-3.618.339-5.419.572-1.588.2-3.186.326-4.757.6-.627.134-1.245.291-1.845.478a8.28,8.28,0,0,0-2.2.962,9.035,9.035,0,0,0-1.527,1.4,9.833,9.833,0,0,0-.89,1.465,2.242,2.242,0,0,0-.434,2.25,4.03,4.03,0,0,0,3.1,2.048c1.906.332,3.776.746,5.683,1.1a37.936,37.936,0,0,0,5.949.56,91.8,91.8,0,0,0,13.237-.881c4.042-.484,8.049-1.125,12.074-1.674,4.395-.6,8.736-1.353,13.06-2.135q5.586-1.008,11.143-2.092c3.878-.023,7.763.021,11.627.074,2.375.037,4.749.112,7.124.171l-.021,0q-4.778,1-9.557,1.989c-6.222,1.3-12.5,2.514-18.753,3.768-4.934,1-9.928,1.861-14.905,2.776q-5.826,1.076-11.667,2.152c-3.5.642-7.017,1.208-10.547,1.773-7.4,1.178-14.826,2.269-22.372,2.957.379-.035.768-.07,1.147-.1-7.619.654-15.32,1.543-23.009.979a30.886,30.886,0,0,1-4.108-.765c-1.245-.377-2.467-.784-3.7-1.18a9.4,9.4,0,0,1,.5-1.347,8.5,8.5,0,0,1,.657-.7,67.4,67.4,0,0,1,7.01-3.973c.8-.449,1.633-.881,2.445-1.324L142.4,111c4.616-2.49,9.258-4.958,13.89-7.437,8.967-4.794,17.942-9.613,26.079-15.026,5.428-3.61,10.846-7.232,15.047-11.525a44.225,44.225,0,0,0,4.978-6.1c1.482-2.2,2.656-4.6,2.267-7.046-.353-2.275-2.215-4.164-4.439-5.856a14.278,14.278,0,0,0-2.632-1.57q.926-.424,1.847-.851c.388-.18.773-.359,1.16-.541,6.628-.346,13.238-.793,19.853-1.29,4.2-.315,8.374-.718,12.558-1.079,7.521-.66,15.018-1.41,22.522-2.149,2.233-.191,4.469-.356,6.662-.686a32.77,32.77,0,0,0,7.386-2.35c2.957-1.155,3.151-4.235,0-5.36-1.667-.6-3.256-1.272-4.924-1.867A27.245,27.245,0,0,0,259.106,39a92.262,92.262,0,0,0-12.778-.7c-3.91.017-7.811.21-11.712.362q-2.66.1-5.312.24a42.063,42.063,0,0,0,5.577-4.837A37.314,37.314,0,0,0,239.93,27.5a10.82,10.82,0,0,0,1.315-3.593,7.959,7.959,0,0,0-.3-3.9,13.013,13.013,0,0,0-1.748-3.225,18.156,18.156,0,0,0-2.488-2.905,31.087,31.087,0,0,0-7.484-5.442c-5.771-3.027-12.849-4.654-19.935-5.769-3.416-.542-6.885-.933-10.343-1.3-4.2-.45-8.4-.841-12.646-1.073C182.617.086,178.922,0,175.226,0c-4.828,0-9.658.146-14.467.361m5.119,6a228.557,228.557,0,0,1,24.86.547c4.193.387,8.378.872,12.523,1.431a105.691,105.691,0,0,1,12.811,2.451,45.864,45.864,0,0,1,6.632,2.492A31.317,31.317,0,0,1,227.49,16.5a21.919,21.919,0,0,1,3.172,3.544,9.987,9.987,0,0,1,.873,2.04,7.173,7.173,0,0,1-.026,1.341,13.87,13.87,0,0,1-1.407,3.094,38.013,38.013,0,0,1-6,6.8,81.685,81.685,0,0,1-9.915,6.691c-14.978,1.366-29.848,3.427-44.475,5.912Q161,47.4,152.377,49.1q-6.233-.363-12.438-.9l.425.04-.448-.042-.858-.075c.26.021.523.045.787.068-6.866-.642-13.655-1.5-20.352-2.693-6.08-1.072-12.129-2.253-17.971-3.81-2.6-.748-5.125-1.578-7.577-2.524-2.429-.94-4.759-2.027-7.016-3.148a30.885,30.885,0,0,1-4.395-2.737c-.219-.218-.424-.438-.616-.665a.128.128,0,0,0,.008-.016,12.37,12.37,0,0,1,1.1-1.2c.419-.313.851-.608,1.314-.89.456-.193.923-.371,1.406-.533a37.8,37.8,0,0,1,3.946-.647c3.256-.23,6.525-.252,9.794-.331,2.322-.053,4.617-.105,6.928-.064,2.1.04,4.193.17,6.277.335.66.066,1.317.136,1.975.208.891.1,1.765.315,2.621.49,3.856.787,8.057-.91,9.107-3.412,1.086-2.613-1.315-5.25-5.172-6.014a81.508,81.508,0,0,0-12.752-1.207c-4.113-.152-8.181.081-12.276.28-7.369.361-15.7.828-21.2,4.5a14.209,14.209,0,0,0-5.234,6.142c-1.014,2.444-.043,4.993,2.154,7.01a31.78,31.78,0,0,0,7.977,4.876c2.913,1.371,6.063,2.572,9.2,3.7a131.7,131.7,0,0,0,22.231,5.348q5.573.954,11.208,1.739c2.584.358,5.181.655,7.785.92q-5.049,1.172-10.058,2.418l-12.456.775q-13.185.822-26.36,1.674c-4.166.262-8.332.5-12.506.671-4.13.175-8.26.233-12.391.315-8.242.175-16.5.4-24.7-.234-3-.292-5.954-.728-8.9-1.184-2.679-.423-5.327-.927-7.888-1.591A28.764,28.764,0,0,1,11.2,55.242a14.123,14.123,0,0,1-1.273-.821,8.222,8.222,0,0,1-.735-.864,10.263,10.263,0,0,1-.773-1.948,8.647,8.647,0,0,1-.041-2.232A6.308,6.308,0,0,1,8.813,48.3a13.362,13.362,0,0,1,1.462-1.569,51.508,51.508,0,0,1,5.073-3.4c2.048-1.248,4.1-2.481,6.269-3.63,3.8-1.911,7.817-3.623,11.85-5.312,4.554-1.907,9.142-3.763,13.82-5.53,9.012-3.4,18.357-6.348,27.909-9.025C85.751,16.927,96.519,14.4,107.543,12.4c11.491-2.091,23.184-3.7,34.99-4.762,7.749-.647,15.539-1.057,23.345-1.28m-23.637,1.3-.774.066.774-.066M81.871,32.185c-.015.072-.029.142-.044.213a1.748,1.748,0,0,1,.044-.213M236.549,45.006a163.247,163.247,0,0,1,17.582-.093c-.477.052-.956.1-1.432.157-1.218.14-2.444.257-3.663.385q-4.66.491-9.32.974l.265-.022c-8.823.781-17.653,1.5-26.509,2.092q2.132-1.163,4.233-2.355l.632-.058c6.054-.506,12.117-.83,18.211-1.081m-37.04,3.109q-1.278.633-2.567,1.257-4.316.159-8.633.25,5.584-.8,11.2-1.507m-59.6,12.464,22.54-.927c3.389-.134,6.778-.2,10.166-.257q.778-.015,1.555-.021-4.984,2-10.053,3.894c-13.255,4.964-26.983,9.465-41.009,13.393-6.623,1.808-13.348,3.389-20.132,4.922a172.841,172.841,0,0,1-21,3.735,56.32,56.32,0,0,1-7.936.141c-3.014-.318-5.97-.832-8.947-1.278a9.851,9.851,0,0,1-.08-1.868c.008-.02.016-.04.024-.06.165-.194.336-.38.521-.562a19.23,19.23,0,0,1,2.006-1.252c2.453-1.186,5.07-2.23,7.612-3.33,3.239-1.4,6.689-2.6,10.149-3.745q10.837-3.62,22.009-6.791l-.282.077.463-.127.7-.2-.527.15q10.03-2.784,20.254-5.238c3.99-.249,7.966-.494,11.964-.657M123.445,76.568l-.229.063.229-.063m64.167.517-.236.206.236-.206M65.333,81.718c-.053.086-.107.173-.163.26.05-.088.1-.175.163-.26M295.721,95.267l.01,0a2.071,2.071,0,0,1,.185.308c-.066-.1-.13-.206-.2-.31M107.512,66.524l-.181.05.356-.1-.175.049m32.4-18.328.023,0-.094-.009.072.007" transform="translate(0 0)" fill="#fff"/>
      </g>
    </g>
    <rect id="Rectangle_508" data-name="Rectangle 508" width="245" height="50" transform="translate(167 7610)"/>
    <text id="ecommerce-2" data-name="ecommerce" transform="translate(289 7648)" fill="#fff" font-size="33" font-family="RawlineBlack-Regular, Rawline" letter-spacing="0.04em"><tspan x="-109.404" y="0">eCOMMERCE</tspan></text>
  </g>
</svg>
