<svg xmlns="http://www.w3.org/2000/svg" xmlns:xlink="http://www.w3.org/1999/xlink" width="445" height="13" viewBox="0 0 445 13">
  <defs>
    <clipPath id="clip-path">
      <rect id="Rectangle_208" data-name="Rectangle 208" width="445" height="13" fill="none"/>
    </clipPath>
  </defs>
  <g id="Group_318" data-name="Group 318" clip-path="url(#clip-path)">
    <path id="Path_220" data-name="Path 220" d="M96.062,11.515q6.851-.141,13.7-.275,21.377-.4,42.75-.8c13.937-.247,27.87-.549,41.794-.826,10.128-.2,20.3-.359,30.4-.618q44.61-1.145,89.221-2.3c2.709-.068,5.419-.165,8.142-.249q12.109-.377,24.248-.752,24.926-.779,49.885-1.554c14.753-.458,29.483-.982,44.211-1.477,2.307-.079,4.2-.468,4.538-1,.323-.492-.888-1.074-3.047-1.253-1.06-.09-2.136-.181-3.245-.246-1.024-.061-2-.087-3.058-.114C433.4,0,431.167,0,428.955,0c-4.634,0-9.258.1-13.89.146-2.515.025-5.059.026-7.578.033q-13.524.053-27.045.1c-12.192.048-24.388.147-36.587.228-10.647.07-21.287.106-31.929.238q-26.031.322-52.1.644c-9.039.113-18.1.178-27.1.37l-49.84,1.055c-8.5.179-31.144.639-33.945.707L39.679,5.553c-4,.162-7.99.331-12.005.5-4.28.175-8.522.378-12.737.635-4.023.242-7.7.67-11.517,1.043C1.194,7.944-.245,8.441.035,9c.165.315.855.606,1.939.807a21.453,21.453,0,0,0,4,.266c4.352-.013,8.714.027,13.055-.029,4.74-.061,9.479-.207,14.187-.356,9.082-.289,18.107-.68,27.15-1.024,5.861-.222,11.73-.4,17.622-.582l53.728-1.655q7.98-.244,15.972-.492c2.744-.086,5.5-.12,8.241-.176q26.659-.562,53.3-1.12,11.349-.241,22.7-.475c2.343-.05,4.684-.109,7.041-.137q23.56-.286,47.13-.568,12.362-.151,24.733-.3c2.792-.034,5.582-.078,8.378-.1l44.4-.284L325.6,3.965q-11.2.349-22.442.635-27.028.681-54.085,1.355-11.2.28-22.41.563c-2.379.059-4.758.127-7.14.169q-24.234.42-48.483.848-15.82.282-31.634.515-20.45.29-40.873.587L79.84,8.916c-3.13.047-6.252.052-9.4.06-2.911.01-5.8.077-8.59.271-1.613.111-3.074.266-4.476.486a28.817,28.817,0,0,0-3.55.894c-1.468.4-1.827.974-1.006,1.455A13.112,13.112,0,0,0,57.878,13Z" transform="translate(0.001 0)" fill="#03ff00"/>
  </g>
</svg>
