<svg xmlns="http://www.w3.org/2000/svg" xmlns:xlink="http://www.w3.org/1999/xlink" width="432.478" height="65.488" viewBox="0 0 432.478 65.488">
  <defs>
    <clipPath id="clip-path">
      <rect id="Rectangle_193" data-name="Rectangle 193" width="65.488" height="432.478" fill="none"/>
    </clipPath>
  </defs>
  <g id="Group_364" data-name="Group 364" transform="translate(0 65.488) rotate(-90)">
    <g id="Group_302" data-name="Group 302" clip-path="url(#clip-path)">
      <path id="Path_214" data-name="Path 214" d="M48.157,1.362c-.476.916-.946,1.955-1.411,3.034-.96,2.212-1.889,4.823-2.808,7.46Q41.789,18.024,39.7,24.78,37.8,30.991,35.886,37.2q-2.112,6.886-4.224,13.758c-.867,2.842-1.709,5.889-2.559,8.84-2.373,8.225-4.75,16.395-7.087,24.853q-2.149,7.787-4.3,15.588c-1.1,3.991-2.171,8.186-3.254,12.3-.658,2.5-1.32,4.981-1.976,7.511-.62,2.381-1.24,4.754-1.855,7.162-.652,2.556-1.273,5.3-1.921,7.871-.291,1.12-.582,2.229-.868,3.388-.372,1.516-.675,3.238-.965,5.15-.623,4.126-.459,9.4-.528,14.2-.03,1.968.3,4.1.686,4.509.952,1.025,1.881,2.459,2.833,3.484a2.85,2.85,0,0,0,3.122.929c2.056-.574,4.082-2.843,6.089-5.015,2.029-2.2,4.052-4.373,6.059-7.009s4.011-5.546,6.015-8.375c1.233-1.736,2.458-3.662,3.683-5.493q2.851-4.284,5.7-8.54c2.622-3.934,5.231-8.143,7.842-12.27q2.679-4.221,5.365-8.388c-2.64,7.185-5.289,14.287-7.936,21.424-2.27,6.135-4.506,12.568-6.756,18.881-2.092,5.876-4.192,11.709-6.273,17.707q-4.507,12.993-9.012,25.973c-.82,2.364-1.624,4.85-2.433,7.283q-2.572,7.706-5.146,15.425c-2.381,7.146-4.722,14.619-7.074,22-.99,3.116-1.966,6.327-2.945,9.524-.714,2.335-1.427,4.673-2.141,6.994-.333,1.094-.661,2.186-1,3.225a51.182,51.182,0,0,0-2.149,8.334c-.117.711-.23,1.462-.333,2.227-.143,1-.213,2.255-.3,3.4-.134,1.8-.131,3.906-.208,5.793a35.226,35.226,0,0,0,.142,5.519c.246,2.077.744,3.689,1.239,3.554,1-.3,2-.274,2.991-.67a9.2,9.2,0,0,0,3.257-3.006,87.886,87.886,0,0,0,5.816-9.427c1.277-2.214,2.537-4.756,3.8-7.173,2.562-4.893,5.14-9.591,7.675-14.825,1.848-3.828,3.7-7.626,5.549-11.464-2.358,7.312-4.721,14.565-7.055,22.068-2.6,8.361-5.19,16.776-7.752,25.427-1,3.388-1.985,6.926-2.98,10.369-.273.957-.536,2.009-.79,3.1-.246,1.052-.432,2.445-.621,3.745s-.287,3.086-.369,4.63c-.069,1.325-.1,2.706-.161,4.045a37.755,37.755,0,0,0,.159,6.039,9.824,9.824,0,0,0,.938,3.608c.065.122.13.246.194.373.4.89.807,1.776,1.217,2.619a3.655,3.655,0,0,0,1.438,1.735,2.739,2.739,0,0,0,3.027-.383,29.028,29.028,0,0,0,3-2.459,28.955,28.955,0,0,0,3.164-3.238c2.288-2.719,4.55-5.957,6.808-9.264q4.352-6.395,8.7-12.775,1.7-2.5,3.4-5l.586-.87q-.351,1.11-.7,2.223l-4.758,15.042q-3.556,11.252-7.1,22.544-2.867,9.1-5.731,18.213-1.5,4.754-2.989,9.536c-.489,1.572-.976,3.143-1.469,4.687-.659,2.076-1.329,4.016-1.955,6.326-.353,1.285-.695,2.649-1,4.193s-.588,3.321-.886,4.961a34.477,34.477,0,0,0-.408,7.733c.15,2.7.574,4.741,1.11,5.548a16.84,16.84,0,0,0,1.351,2.007,1.368,1.368,0,0,0,1.591.328c1.1-.368,2.193-1.679,3.267-2.979.968-1.161,1.944-2.144,2.912-3.292,1.075-1.27,2.141-2.679,3.208-4.086q2.8-3.688,5.608-7.433c3.084-4.112,6.18-8.034,9.269-12.037a6.844,6.844,0,0,1,.968-1.018,2.734,2.734,0,0,1,1.217-.395q0,.677-.008,1.357c-.037.861-.087,1.7-.146,2.527-.365,3.783-.87,7.14-1.352,10.577-.306,2.172-.582,4.453-.878,6.654-.315,2.349-.645,4.63-.976,6.913-.623,4.276-1.255,8.512-1.851,12.9-.659,4.85-1.315,9.728-1.988,14.538a25.584,25.584,0,0,0,.183,7.09c.418,2.09,1.247,2.46,1.654,0,.642-3.867,1.3-7.679,1.952-11.517.689-4.059,1.359-8.186,2.034-12.3.643-3.936,1.274-7.9,1.876-11.983.263-1.789.512-3.619.777-5.382.3-2.009.6-3.989.883-6.066a111.1,111.1,0,0,0,.965-11.626,101.524,101.524,0,0,0-.38-14.032,14.568,14.568,0,0,0-1.266-4.946,1.8,1.8,0,0,0-1.2-1.066,1.779,1.779,0,0,0-1.055.109,4.07,4.07,0,0,0-1.8,1.175c-.735.752-1.46,1.872-2.187,2.8-.287.383-.574.752-.861,1.12-.976,1.272-1.949,2.527-2.926,3.8-1.176,1.516-2.346,3.129-3.519,4.713q-1.94,2.644-3.877,5.274c-1.72,2.336-3.442,4.659-5.17,6.79-.888,1.079-1.785,2-2.674,3.075-.2.243-.4.489-.608.734.217-.66.433-1.325.646-2.006q1.239-3.915,2.477-7.855,1.514-4.8,3.03-9.591,3.827-12.093,7.653-24.2,3.027-9.55,6.057-19.1c1.17-3.688,2.34-7.363,3.514-11.054.927-2.923,1.914-5.286,2.841-8.2a46.957,46.957,0,0,0,1.652-6.994q.185-1.127.353-2.338c.145-1.009.216-2.226.312-3.373.011-.274.019-.548.03-.807.038-1.011.06-2.035.068-3.047.008-.9,0-1.789.006-2.677a30.23,30.23,0,0,0-.479-5.78c-.432-2.159-1.006-2.69-1.589-2.09-.932.956-1.87,1.79-2.794,2.923a50.278,50.278,0,0,0-3.03,4.359c-.749,1.135-1.5,2.255-2.245,3.388-1.632,2.446-3.265,4.906-4.9,7.351-2.644,3.975-5.291,7.924-7.94,11.805-1.761,2.568-3.538,4.945-5.321,7.09a23.617,23.617,0,0,1-2.688,2.773c-.856.747-1.707,1.551-2.566,2.2a2.74,2.74,0,0,1-2.605.406,4.717,4.717,0,0,1-.581-.817c.2-.687.408-1.349.611-2.03.383-1.3.752-2.7,1.135-4.017.555-1.912,1.121-3.771,1.684-5.63l2.207-7.294c1.047-3.458,2.1-6.859,3.161-10.248,1.192-3.8,2.371-7.692,3.574-11.409,1.4-4.33,2.805-8.675,4.208-13.005Q34.691,248.7,38.4,237.3c2.455-7.557,4.894-15.234,7.333-22.913.706-2.227,1.359-4.836,2.032-7.3a14.834,14.834,0,0,0,.579-2.91,38.356,38.356,0,0,0,.164-6.244c-.221-4.03-1.159-7.1-1.993-5.643-.747,1.3-1.474,2.692-2.2,4.236-.719,1.516-1.425,3.225-2.138,4.823-.4.888-.8,1.735-1.2,2.61-1.02,2.212-2.037,4.428-3.057,6.627-2.07,4.47-4.144,8.888-6.217,13.356l.054-.114-.056.118-.035.074.257-.537c-.108.226-.215.452-.323.68-.009.017-.018.038-.027.057l.02-.044c-2.764,5.819-5.53,11.6-8.294,17.409-.853,1.79-1.725,3.375-2.589,5.028q-2.839,5.493-5.679,10.958c-.692,1.34-1.378,2.76-2.078,3.963-1.389,2.4-2.767,4.919-4.167,7.159a20.306,20.306,0,0,1-4,5.053,4.149,4.149,0,0,1-.708.294c.427-1.323.863-2.572,1.281-3.981.164-.548.331-1.065.495-1.612q1.218-3.957,2.433-7.91,1.395-4.551,2.8-8.977c2.362-7.42,4.717-14.893,7.109-22.093q2.592-7.767,5.182-15.562c.694-2.09,1.386-4.208,2.089-6.244Q30.079,194.349,34.688,181c2.157-6.244,4.334-12.311,6.5-18.431s4.331-12.324,6.518-18.309q4.061-11.108,8.121-22.215,1.952-5.348,3.907-10.672c.722-1.966,1.443-3.947,2.165-5.915,1.011-2.759,1.963-6.026,2.936-9.112a23.743,23.743,0,0,0,.6-7.392,16.241,16.241,0,0,0-.6-3.922c-.328-.955-.651-.969-1.011-.655a7.833,7.833,0,0,0-1.381,1.49,23.542,23.542,0,0,0-1.37,2.392c-.413.778-.828,1.529-1.247,2.226l-2.715,4.509q-1.784,2.952-3.574,5.861-4.27,6.989-8.545,13.922c-1.209,1.968-2.414,4.019-3.628,5.889-1.3,2-2.6,3.962-3.894,5.944C33.285,133,29.1,139.466,24.872,145.19a69.369,69.369,0,0,1-5.326,6.394,41.164,41.164,0,0,1-5.248,5.179c-1.108.688-2.238,1.138-3.351.57a21.261,21.261,0,0,1-2.691-3.172c.007-1.033.014-2.064.032-3.094q.018-.472.047-.932c.048-.481.1-.937.161-1.4.248-1.445.527-2.681.828-3.873.395-1.484.794-2.944,1.178-4.523.5-2.062,1-4.11,1.515-6.107,1.552-5.95,3.122-11.782,4.686-17.639.891-3.334,1.78-6.681,2.685-9.906,2.31-8.253,4.6-16.6,6.948-24.579q2.477-8.422,4.952-16.846c.692-2.349,1.381-4.687,2.086-6.926,2.989-9.524,5.952-19.251,8.987-28.378C44.2,24.4,46.067,18.836,48.04,14.5c.418-.843.842-1.6,1.257-2.48.623-.066,1.13-2.966,1.13-6a23.046,23.046,0,0,0-.353-4.249c-.24-1.2-.522-1.612-.85-1.749A.255.255,0,0,0,49.118,0c-.343,0-.641.754-.961,1.362M12.578,119.7l-.069.268c.023-.089.046-.179.069-.268m-.57,14.564c-.024.093-.048.184-.072.275.024-.093.048-.184.072-.275M4.667,273.849c-.046.034-.092.067-.138.1.046-.035.092-.067.138-.1m9.723,40.008c.036.076.072.153.108.232Q14.444,313.975,14.39,313.857Zm-2.223,12.075q.06.122.12.249l-.12-.249m34.786,41.036h0l0,.023h0l0-.023M31.571,224.229l.075-.157.015-.032-.09.189m.075-.157-.052.114.007-.013c.022-.05.044-.095.066-.143l-.02.042m.015-.032.04-.084,0,0-.042.089" transform="translate(0)" fill="#fff"/>
    </g>
  </g>
</svg>
