<?xml version="1.0" encoding="UTF-8"?> <!-- Generator: Adobe Illustrator 24.0.1, SVG Export Plug-In . SVG Version: 6.00 Build 0) --> <svg xmlns="http://www.w3.org/2000/svg" xmlns:xlink="http://www.w3.org/1999/xlink" id="Layer_1" x="0px" y="0px" viewBox="0 0 2955.3 1663.3" style="enable-background:new 0 0 2955.3 1663.3;" xml:space="preserve"> <style type="text/css"> .st0{fill:#ED1B24;} .st1{fill:#242021;} </style> <g> <path class="st0" d="M1306.6,48.3c0.1,2.7,0.2,5.5,0.2,8.2c0,202.6,0,405.3,0,607.9c0,11.2,1.5,9.7-10.1,9.7 c-98.2,0-196.5,0.1-294.7-0.1c-5.7,0-9.7,1.6-13.8,5.6c-99.8,99.9-199.6,199.7-299.5,299.5c-2,2-3.7,4.5-7.6,6.2 c0-4.5,0-8.1,0-11.8c0.1-96.9,0.1-193.9,0.2-290.8c0-1.2-0.1-2.5,0-3.7c0.2-3.5-1.5-5.1-4.9-4.9c-1.7,0.1-3.5,0-5.2,0 c-98.7,0-197.5,0.1-296.2-0.1c-5.8,0-9.7,1.8-13.7,5.8c-100,100.1-200.1,200-300.1,300c-2.2,2.2-4.9,4.1-6.2,7.6 c2.9,1.4,5.6,0.8,8.2,0.8c98,0,196,0,294,0.1c10.6,0,9.4-1.7,9.4,9.6c0,97.9,0,195.9,0,293.8c0,10,1,9-8.7,9c-99,0-198,0-297,0 c-2.7,0-5.5,0.5-8.2-0.6c0-417.3,0-834.6,0-1251.9C470.6,48.3,888.6,48.3,1306.6,48.3z"></path> <path class="st1" d="M2902.6,1300.2c-2.5,0.1-5,0.3-7.5,0.3c-99,0-198,0-297,0.1c-5.5,0-9.2-1.7-13-5.5 c-48.3-48.5-96.7-96.9-145.3-145.2c-3.9-3.9-5.3-7.7-5.3-13.1c0.1-150.9,0.1-301.8,0.1-452.8c0-10.4-1.5-8.9,9.2-8.9 c46-0.1,92,0,138,0c0.8,0,1.5,0,2.2,0c7-0.1,6.3-0.1,6.3,6.7c0,46.7,0,93.5,0,140.2c0,10.9-1.8,10,9.9,10c97.7,0,195.5,0,293.2,0 c3,0,6-0.5,8.9,0.5c0,52,0,104,0,155.9c-2.7-1-5.4-0.5-8.2-0.5c-98.4,0-196.9,0-295.3,0c-1.7,0-3.5,0.1-5.2,0 c-2.6-0.1-3.5,1.2-3.4,3.7c0.1,1.7,0,3.5,0,5.2c0,46.5,0,92.9,0,139.4c0,9.5-1.8,9,9.4,9c97.9,0,195.9,0,293.8,0c3,0,6-0.6,8.9,0.6 C2902.6,1197.2,2902.6,1248.7,2902.6,1300.2z"></path> <path class="st1" d="M1464.1,1615c0.1-15,0.1-30,0.2-45c0-8.3-0.8-7.4,7.8-7.4c46.5,0,93,0,139.5,0c1.7,0,3.5-0.1,5.2,0 c2.8,0.2,4.2-0.8,4.1-3.8c-0.1-6-0.1-12,0-18c0-2.8-1.1-4.2-4-4c-1.5,0.1-3,0-4.5,0c-47.5,0-95,0-142.5,0c-5.5,0-5.6,0-5.6-5.7 c0-22,0-44-0.1-66c0-3.2,0.8-5.6,3.2-7.9c15.3-15.1,30.5-30.3,45.6-45.6c2.3-2.3,4.8-3.2,8-3.1c48.5,0.1,97,0,145.5,0.1 c5.7,0,5.8,0.1,5.8,5.8c0.1,13,0,26,0,39c0,6.7-0.1,6.8-7,6.8c-46.7,0-93.5,0-140.2,0c-10.8,0-9.5-0.9-9.5,9.7c0,3.2,0,6.5,0,9.7 c0.1,6.4,0.1,6.4,6.8,6.4c37.5,0,75,0,112.5,0c10.7,0,21.5,0,32.2,0c5.2,0,5.3,0.1,5.3,5.4c0,22-0.1,44,0.1,66c0,3.6-1.2,6-3.7,8.4 c-14.6,14.4-29.1,28.9-43.5,43.5c-1.6,1.6-4.6,2.5-3.7,5.7C1569.1,1615,1516.6,1615,1464.1,1615z"></path> <path class="st1" d="M2695.6,1615c0-15.2,0-30.5,0.1-45.7c0-7.3-0.5-6.7,7-6.7c47,0,93.9,0,140.9,0c9.3,0,8.2,1.2,8.3-8.4 c0-3.7,0-7.5,0-11.2c-0.1-6-0.1-6-6.4-6.1c-1.5,0-3,0-4.5,0c-46.2,0-92.4,0-138.7,0c-6.6,0-6.6,0-6.6-6.3c0-22,0-44-0.1-65.9 c0-3.1,1-5.1,3-7.2c15.3-15.1,30.5-30.2,45.5-45.6c3.1-3.2,6.4-3.3,10.2-3.3c46.7,0,93.4,0,140.2,0c2.7,0,5.5,0.4,8.2-0.4 c0,17.5,0,35,0,52.5c-2-0.2-4-0.5-5.9-0.5c-47.7,0-95.4,0-143.1,0c-0.7,0-1.5,0.1-2.2,0c-3.4-0.3-5.1,0.7-4.8,4.6 c0.3,4,0.1,8,0.1,12c0,10-0.9,9.3,9.2,9.3c48.9,0,97.9,0.1,146.8,0.1c0,25.5,0,51,0,76.5c-15.3,15.4-30.6,30.8-45.9,46.2 c-1.9,1.9-4.4,3.3-5.1,6.3C2799.6,1615,2747.6,1615,2695.6,1615z"></path> <path class="st1" d="M2506.6,1615c0.7-3.2-2.3-4.2-3.8-5.8c-14.2-14.4-28.5-28.8-42.9-42.9c-3.1-3.1-4.3-6.1-4.2-10.5 c0.1-46.7,0.1-93.4,0.1-140.1c0-1.5,0-3,0-4.5c0-1.8,1-2.7,2.8-2.7c1.7,0,3.5,0,5.2,0c47,0,93.9,0.1,140.9-0.1 c4.9,0,8.3,1.5,11.7,4.9c14,14.3,28.1,28.4,42.4,42.4c3.3,3.3,4.6,6.5,4.6,11.1c-0.2,46.7-0.1,93.4-0.1,140.1c0,2.7-0.8,5.5,0.8,8 C2611.6,1615,2559.1,1615,2506.6,1615z M2558.9,1562.6c16,0,31.9,0,47.9,0c5.2,0,5.4-0.2,5.6-5.5c0.2-4.7,0.1-9.5,0.1-14.2 c0-25.2,0-50.4,0-75.6c0-6.8-0.3-7.2-5.5-7.2c-31.7-0.1-63.4,0-95.1-0.1c-3.9,0-5.1,1.4-5.1,5.2c0.1,30.7,0.1,61.4,0.1,92.1 c0,5.1,0.2,5.2,5.6,5.2C2528,1562.6,2543.4,1562.6,2558.9,1562.6z"></path> <path class="st1" d="M2184.1,1615c-0.4-2.7-2.8-4-4.5-5.8c-13.9-14-27.8-28-41.9-41.8c-3.4-3.3-5.1-6.7-5.1-11.7 c0.3-30,0.1-59.9,0.1-89.9c0-8.1-0.8-7.3,7.1-7.3c46.7,0,93.5,0,140.2,0c10.8,0,9,0.5,9.1-9.3c0.1-12.2,0-24.5,0-36.7 c0-5.8,0.1-5.9,5.5-5.9c13.5,0,27,0,40.5,0c5.1,0,5.1,0.1,5.2,5.4c0,1,0,2,0,3c0,63.9,0,127.9,0,191.8c0,2.7-0.2,5.5-0.2,8.2 C2288.1,1615,2236.1,1615,2184.1,1615z M2237.4,1509.7c-16.2,0-32.4,0.1-48.7,0c-3.3,0-5,0.6-4.9,4.5c0.2,14.7,0.1,29.4,0,44.2 c0,3.2,1,4.4,4.3,4.3c32.2-0.1,64.4-0.1,96.6,0c3.8,0,4.6-1.5,4.5-4.9c-0.1-14.2,0-28.4-0.1-42.7c0-5.3-0.1-5.4-5.3-5.4 C2268.4,1509.7,2252.9,1509.7,2237.4,1509.7z"></path> <path class="st1" d="M1944.1,1615c-10.5-10.7-21-21.4-31.5-32c-5.8-5.9-11.6-11.7-17.5-17.4c-2.2-2.2-3.5-4.4-3.5-7.8 c0.1-48.2,0.1-96.4,0.1-144.6c0-5.1,0.1-5.2,5.5-5.2c13.5-0.1,27,0,40.5,0c5.1,0,5.2,0.1,5.2,5.4c0,32.2,0,64.4,0,96.6 c0,15.5,0,31,0,46.4c0,6,0.1,6.1,5.5,6.1c31.5,0,63,0,94.4,0c5.2,0,5.3-0.2,5.7-5.5c0.1-1.2,0-2.5,0-3.7c0-48.2,0-96.4,0-144.6 c2-1.3,4.4-0.7,6.5-0.7c12-0.1,24-0.1,36,0c9.3,0.1,8.1-1.3,8.2,8.5c0.1,36.5,0,72.9,0,109.4c0,10.2-0.2,20.5,0.1,30.7 c0.1,4.1-1.2,7-4.1,9.8c-14.4,14.2-28.7,28.5-43,42.8c-1.7,1.7-4,3.1-4.6,5.7C2013.1,1615,1978.6,1615,1944.1,1615z"></path> <path class="st1" d="M1755.1,1615c0.8-3.2-2.2-4.2-3.8-5.8c-13.9-14-27.7-28.1-42-41.8c-4-3.9-5.2-7.8-5.2-13.1 c0.2-46.5,0.1-92.9,0.1-139.4c0-1.2,0.1-2.5,0-3.7c-0.4-3.5,0.9-4.8,4.6-4.8c9.7,0.2,19.5,0.1,29.2,0.1c4.2,0,8.5,0.2,12.7-0.1 c3.6-0.2,4.7,1,4.7,4.6c-0.2,11.7-0.1,23.5-0.1,35.2c0,12.2,0,12.2,12.3,12.2c27.7,0,55.5,0,83.2,0c1.7,0,3.5,0,5.2,0 c2.4-0.1,3.7,0.8,3.7,3.4c-0.1,14.7-0.1,29.5,0,44.2c0,2.5-1,3.7-3.5,3.6c-1.7-0.1-3.5,0-5.2,0c-29,0-58,0-87,0c-1.7,0-3.5,0-5.2,0 c-2.5,0-3.5,1.2-3.5,3.7c0.1,3,0,6,0,9c0,11.2,0,22.5,0,33.7c0,6.4,0.1,6.4,6.7,6.4c29,0,58,0,87,0c1.2,0,2.5,0,3.7,0 c7.9,0,7-0.5,7,7.5c0.1,15,0.2,30,0.2,45C1825.1,1615,1790.1,1615,1755.1,1615z"></path> <path class="st1" d="M2371.6,1615c1.7-2.5,0.8-5.4,0.8-8c0.1-63.4,0-126.8,0-190.2c0-1,0-2,0-3c0-8.4-0.2-7.2,7.2-7.2 c12.2,0,24.5,0,36.7,0c8.5,0,7.4-0.4,7.4,7.8c0,63.7,0,127.3,0,191c0,3.2,0.2,6.5,0.2,9.7C2406.6,1615,2389.1,1615,2371.6,1615z"></path> <path class="st1" d="M1464.4,987.5c0-101.2,0-202.4,0-303.5c0-8.9,0-8.9,9.3-8.9c45.7,0,91.5,0,137.2,0c1.7,0,3.5,0.1,5.2,0 c2.8-0.2,4.2,0.7,4,3.8c-0.1,1.7,0,3.5,0,5.2c0,46.2,0,92.4,0,138.7c0,1.7,0.1,3.5,0,5.2c-0.2,3,1.3,4,4.1,3.9c2.2-0.1,4.5,0,6.7,0 c150,0,299.9,0,449.9,0c11.1,0,9.4-1.5,9.4,9.5c0.1,98.7,0,197.4,0.1,296.1c0,5.2-1.5,8.7-5.2,12.4c-48.5,48.3-97,96.7-145.3,145.2 c-3.8,3.8-7.4,5.6-13,5.5c-151.5-0.2-302.9-0.1-454.4-0.1c-9.3,0-8.1,0.6-8.1-7.9C1464.3,1190.9,1464.4,1089.2,1464.4,987.5z M1777.6,987.8c-49.2,0-98.4,0-147.7,0c-2,0-4,0.1-6,0c-2.9-0.1-4.1,1.1-3.9,4c0.1,1.5,0,3,0,4.5c0,46.7,0,93.4,0,140.1 c0,8.9-1.7,8.7,8.9,8.7c96.7,0,193.4,0,290.1,0c3.2,0,6.5,0.1,9.7,0c5.7-0.1,5.8-0.2,5.8-5.9c0.1-16,0-32,0-47.9 c0-32.5,0-64.9,0-97.4c0-5.9-0.1-5.9-5.7-6c-1.5,0-3,0-4.5,0C1875.5,987.8,1826.6,987.8,1777.6,987.8z"></path> <path class="st0" d="M993.4,1145c0,49.2,0,98.4,0,147.6c0,8.8,0.9,8.1-8,8.1c-98.7,0-197.4,0-296.1,0c-1.2,0-2.5,0-3.7,0 c-3,0.1-4.8-0.9-4.4-4.3c0.2-2.2,0.1-4.5,0.1-6.7c0-97.7,0-195.3,0-293c0-9.8-0.9-8.4,8.3-8.4c98.7,0,197.4,0,296.1,0 c1.2,0,2.5,0.1,3.7,0c2.8-0.2,4.2,0.9,4,3.9c-0.1,2,0,4,0,6C993.4,1047.1,993.4,1096.1,993.4,1145z"></path> <path class="st1" d="M2340.4,1066.1c0,75.4,0,150.8,0,226.3c0,9.2,1.2,8-7.8,8c-46.7,0-93.4,0-140.2,0c-0.2,0-0.5,0-0.7,0 c-8.4,0-7.3,0.1-7.3-7.2c0-151.3,0-302.7,0-454c0-1.2,0.1-2.5,0-3.7c-0.2-2.5,1-3.7,3.5-3.6c1.5,0,3,0,4.5,0c46.7,0,93.4,0,140.2,0 c0.7,0,1.5,0,2.2,0c5.9-0.1,5.6,0,5.6,5.8c0,31.2,0,62.4,0,93.6C2340.4,976.2,2340.4,1021.2,2340.4,1066.1z"></path> <path class="st0" d="M1304.1,1301.7c-103.3,103.2-206.2,206.1-309.4,309.2c-1.1-0.6-0.2-2.6-0.2-4.1c0-99.7,0-199.4,0-299.1 c0-5.9,0.1-6,7-6c96.5,0,193,0,289.5,0C1295.3,1301.7,1299.7,1301.7,1304.1,1301.7z"></path> </g> </svg> 