<svg xmlns="http://www.w3.org/2000/svg" width="43.823" height="38.48" viewBox="0 0 43.823 38.48">
  <g id="Group_372" data-name="Group 372" transform="translate(-62 0)">
    <path id="Path_213" data-name="Path 213" d="M18.175,0a21.171,21.171,0,0,0-3.006.245A24.223,24.223,0,0,0,9.134,2.033a28.789,28.789,0,0,0-2.8,1.442c-.451.264-.9.55-1.337.856s-.856.657-1.274,1.012a8.759,8.759,0,0,0-1.114,1.11,5.624,5.624,0,0,0-.452.623,8.513,8.513,0,0,0-.483.941,6.931,6.931,0,0,0-.548,1.807,5.36,5.36,0,0,0,.126,2.061,7.868,7.868,0,0,0,.625,1.707,7.635,7.635,0,0,0,.416.74,6.051,6.051,0,0,0,.57.719A8.79,8.79,0,0,0,5.19,16.8c.29.169.58.334.874.485l-.175.106q-.7.426-1.4.879c-.477.309-.944.649-1.413.984a7.562,7.562,0,0,0-1.183,1A7.119,7.119,0,0,0,.839,21.671a7.185,7.185,0,0,0-.644,1.807A7.455,7.455,0,0,0,.01,25.561a9.888,9.888,0,0,0,.313,1.97,9.6,9.6,0,0,0,.685,1.874,10.5,10.5,0,0,0,2.044,2.784,9.881,9.881,0,0,0,2.505,1.782,15.19,15.19,0,0,0,2.724,1.046,16,16,0,0,0,3.012.533l.173.015a4.765,4.765,0,0,0,.509,1.637A2.51,2.51,0,0,0,14.1,38.417a6.7,6.7,0,0,0,1.229.055,7.886,7.886,0,0,0,1.561-.286c.473-.124.944-.282,1.415-.427.523-.162,1.044-.341,1.562-.542,2.068-.806,4.085-1.872,6.11-2.889.482-.241.956-.516,1.431-.785l2.142-1.214c.723-.408,1.435-.864,2.152-1.295.58-.348,1.157-.709,1.735-1.065.752-.462,1.5-.952,2.243-1.438a1.51,1.51,0,0,1,.157-.074c.074.158.138.324.2.493.091.239.2.463.3.689a8.975,8.975,0,0,0,.733,1.306,8.268,8.268,0,0,0,1.847,1.933,11.521,11.521,0,0,0,2.111,1.261c.38.177.762.342,1.149.482s.755.237,1.13.382c.212.081.436-.1.495-.427a.7.7,0,0,0-.281-.749c-.478-.224-.956-.469-1.425-.732-.51-.288-1.026-.537-1.529-.852a10.852,10.852,0,0,1-2.2-1.8,7.972,7.972,0,0,1-.906-1.314c-.142-.292-.278-.591-.4-.9-.073-.181-.132-.375-.2-.557a3.571,3.571,0,0,0-.261-.54,1.689,1.689,0,0,0-.252-.314.672.672,0,0,0-.452-.16,1.159,1.159,0,0,0-.436.1,1.985,1.985,0,0,0-.423.253c-.644.4-1.283.833-1.923,1.254-.536.351-1.076.694-1.615,1.038l-.147.092q.243-.211.482-.432a12.745,12.745,0,0,0,2.178-2.7,8.281,8.281,0,0,0,.782-1.652,11.455,11.455,0,0,0,.471-2.063,9.709,9.709,0,0,0,.087-2.012,10.93,10.93,0,0,0-.416-2.264q-.1-.368-.228-.722a1.052,1.052,0,0,0,.051-.849,4.647,4.647,0,0,0-.941-1.323q-.229-.263-.469-.5a11.644,11.644,0,0,0-2.193-2.265,14.946,14.946,0,0,0-2.613-1.72,16.13,16.13,0,0,0-2.237-.915,4.305,4.305,0,0,0,.323-.517,9.173,9.173,0,0,0,.42-.864,5.409,5.409,0,0,0,.445-2.1,4.667,4.667,0,0,0-.123-.971,6.924,6.924,0,0,0-.291-.95,8.336,8.336,0,0,0-.416-.879,5.866,5.866,0,0,0-.464-.747A5.721,5.721,0,0,0,23.833,1.1,11.083,11.083,0,0,0,22.639.644,13.514,13.514,0,0,0,21.128.237,13.426,13.426,0,0,0,18.462,0l-.287,0m-.828,2.4a16.08,16.08,0,0,1,3.428.23,14.088,14.088,0,0,1,1.624.5,8.955,8.955,0,0,1,1.57.724,5.039,5.039,0,0,1,.889.756,6.075,6.075,0,0,1,.572.875,6.405,6.405,0,0,1,.294.74c.024.105.044.211.061.318,0,.046,0,.091,0,.136-.016.1-.036.2-.058.3a6.967,6.967,0,0,1-.363.912,4.123,4.123,0,0,1-.37.556,9.833,9.833,0,0,1-.936.879q-.683-.167-1.372-.294a28.926,28.926,0,0,0-3.028-.369,26.309,26.309,0,0,0-6.208.29,21.567,21.567,0,0,0-3.081.732,6.011,6.011,0,0,0-1.263.582,4.475,4.475,0,0,0-1.175.868,3.837,3.837,0,0,0-.293.369,3.825,3.825,0,0,0-.231.444,3.285,3.285,0,0,0-.153.495c-.031.115-.057.23-.081.348a5.746,5.746,0,0,0-.087.962,3.6,3.6,0,0,0,.183,1.142,2.506,2.506,0,0,0,.2.412,2.135,2.135,0,0,0,.152.224,2.765,2.765,0,0,0,.5.5l.042.032-.192.106a13.221,13.221,0,0,1-1.325-.55,14.674,14.674,0,0,1-1.5-.862A8.141,8.141,0,0,1,3.553,13.44a5.459,5.459,0,0,1-.567-.843,7.88,7.88,0,0,1-.435-1.107,6.3,6.3,0,0,1-.141-.729c-.006-.117-.007-.232,0-.349.023-.157.054-.308.09-.458a7.463,7.463,0,0,1,.416-1.028A5.762,5.762,0,0,1,3.5,8.038,10.981,10.981,0,0,1,4.7,6.945a16.245,16.245,0,0,1,1.358-1,25.85,25.85,0,0,1,3.809-1.93,23.281,23.281,0,0,1,4.053-1.234l-.092.018.108-.022.093-.02-.082.018a19.962,19.962,0,0,1,3.4-.379m.7,8.783a25.821,25.821,0,0,1,2.583.143q.242.024.484.052-.471.276-.946.534c-.824.124-1.646.284-2.462.474a37.279,37.279,0,0,0-6.044,1.995q-.32.135-.639.277a5.453,5.453,0,0,1-.6-.065,4.962,4.962,0,0,1-1.338-.539,2.644,2.644,0,0,1-.349-.289l-.009-.013v-.006c.016-.114.036-.225.06-.334.01-.027.02-.055.03-.081s.034-.052.052-.078a2.692,2.692,0,0,1,.363-.3,8.108,8.108,0,0,1,1.708-.795c.647-.205,1.3-.365,1.959-.5a26.605,26.605,0,0,1,5.144-.475m-4.98.44-.144.03.144-.03M27.378,13.71a14.339,14.339,0,0,1,2.366.7,12.886,12.886,0,0,1,2.076,1.868,9.162,9.162,0,0,1,1,1.493,11.5,11.5,0,0,1,.669,1.731,9.837,9.837,0,0,1,.245,1.315,9.123,9.123,0,0,1-.01,1.1,11.321,11.321,0,0,1-.277,1.541,7.73,7.73,0,0,1-.419,1.072,12.14,12.14,0,0,1-1.339,2.017,16.264,16.264,0,0,1-3.425,2.918,26.108,26.108,0,0,1-4.542,2.264,31.221,31.221,0,0,1-4.9,1.462,28.576,28.576,0,0,1-4.637.57c-.455.015-.91.012-1.364,0,.056-.122.114-.243.174-.363a12,12,0,0,1,.6-1.049,11.028,11.028,0,0,1,.8-1.054,25.4,25.4,0,0,1,2.56-2.584,24.944,24.944,0,0,1,2.525-1.913l.948-.2c.152-.03.3-.054.454-.094q2.276-.618,4.551-1.233c.435-.118.867-.269,1.3-.406q1.1-.35,2.2-.7c.584-.186,1.166-.4,1.747-.593.281-.1.562-.2.844-.282a5.126,5.126,0,0,0,1.005-.3,1.428,1.428,0,0,0,.548-.463,2.785,2.785,0,0,0,.3-.73,1.38,1.38,0,0,0,0-.911.61.61,0,0,0-.515-.446c-.5,0-1-.032-1.5-.026a8.562,8.562,0,0,0-1.625.224,25.325,25.325,0,0,0-2.99.854,34.084,34.084,0,0,0-5.789,2.563c-.773.436-1.539.909-2.29,1.428q-1.678.352-3.358.7a53.284,53.284,0,0,1-5.9.708c-.978.053-1.956.087-2.935.051a18.87,18.87,0,0,1-2.789-.315A4.686,4.686,0,0,1,2.3,26.117a3.074,3.074,0,0,1-.464-.384l-.044-.063c.01-.059.021-.116.034-.173s.051-.134.079-.2a3.283,3.283,0,0,1,.21-.31,3.225,3.225,0,0,1,.482-.427,4.614,4.614,0,0,1,.74-.326c.328-.117.656-.232.985-.339.671-.218,1.352-.358,2.03-.511.693-.133,1.384-.261,2.077-.392l1.326-.248c.135-.026.271-.056.407-.073l4.884-.578c.342-.042.683-.064,1.026-.09l2.749-.22,1.921-.152c.7-.057,1.4-.066,2.106-.105a10.593,10.593,0,0,0,1.453-.171,4.006,4.006,0,0,0,.739-.194c.22-.087.434-.218.651-.324a.93.93,0,0,0,.433-.86c0-.363-.178-.8-.433-.858C25.2,19,24.7,18.867,24.2,18.784c-.528-.088-1.061-.122-1.592-.177-.3-.032-.609-.07-.915-.1l-2.141-.247c-1.609-.184-3.221-.35-4.829-.576-.982-.137-1.963-.276-2.941-.467l.069.015-.09-.019L11.7,17.2l.044.008q-.473-.1-.946-.214a6.921,6.921,0,0,0,1.352-.046c.467-.053.932-.141,1.4-.224.544-.1,1.086-.215,1.625-.365a25.352,25.352,0,0,0,2.94-1.073A28.392,28.392,0,0,0,21,13.878q.35-.194.7-.395a20.148,20.148,0,0,1,5.68.227m-8.465.184-.034.007.016,0,.018,0M8.14,18.106c.887.277,1.783.5,2.677.706,1.015.235,2.038.39,3.062.529.582.079,1.164.166,1.747.228l3.478.376-1.4.115-2.339.192c-.445.038-.89.1-1.335.15q-1.484.169-2.966.341c-.425.049-.85.09-1.273.166L7,21.4a20.248,20.248,0,0,0-3.579.864,6.277,6.277,0,0,0-1.24.54,3,3,0,0,0-.358.263l.013-.028a6.44,6.44,0,0,1,.638-.906,6.936,6.936,0,0,1,.766-.749c.3-.248.609-.465.913-.694.657-.493,1.326-.942,2-1.372.657-.417,1.317-.825,1.982-1.214M6.122,19.343l-.116.073.116-.073M27.292,23.12q.385-.126.772-.243l-.335.111-1.586.523q.573-.2,1.15-.392M1.793,25.7l.012.023L1.793,25.7m8.352,2.65c1.031-.075,2.06-.2,3.087-.354.962-.139,1.921-.3,2.879-.5q-.263.236-.522.483A23.012,23.012,0,0,0,13.3,30.522a9.214,9.214,0,0,0-.892,1.383,10.582,10.582,0,0,0-.773,1.746l-.012.039a18.027,18.027,0,0,1-2.135-.28,15.436,15.436,0,0,1-2.2-.666,12.46,12.46,0,0,1-2.121-1.03,9.667,9.667,0,0,1-1.935-1.7,9.715,9.715,0,0,1-1.106-1.63,8.535,8.535,0,0,1-.36-.862,4.7,4.7,0,0,0,.847.415,6.8,6.8,0,0,0,1.49.324,23.291,23.291,0,0,0,2.981.222H7.17c.992,0,1.984-.062,2.975-.134M28.205,29.5l-.067.044.067-.044M14.434,31.245h0m26.079.959.031.02-.031-.02m.088.056.037.025-.037-.025m-26.3,3.38a25.7,25.7,0,0,0,3.056-.3A33.147,33.147,0,0,0,23.464,33.8q.269-.1.537-.2l-.537.276-1.012.519c-.4.2-.8.38-1.2.565-.869.4-1.742.773-2.626,1.084-.434.152-.869.282-1.3.422s-.871.265-1.31.36a6.232,6.232,0,0,1-2.243,0,2.578,2.578,0,0,1-.7-.264,1.917,1.917,0,0,1-.218-.188,1.938,1.938,0,0,1-.117-.179,4.405,4.405,0,0,1-.168-.448c-.009-.036-.018-.073-.026-.109q.5.02.994.02.381,0,.761-.012m-2.536-18.43.02,0-.044-.009.024,0M13.94,2.779l-.016,0,.027-.005-.011,0" transform="translate(62 0)"/>
  </g>
</svg>
