<svg id="SERVICES" xmlns="http://www.w3.org/2000/svg" xmlns:xlink="http://www.w3.org/1999/xlink" width="291.439" height="119.214" viewBox="0 0 291.439 119.214">
  <defs>
    <clipPath id="clip-path">
      <rect id="Rectangle_198" data-name="Rectangle 198" width="255.313" height="119.214" fill="#d6e200"/>
    </clipPath>
    <clipPath id="clip-path-2">
      <rect id="Rectangle_198-2" data-name="Rectangle 198" width="255.313" height="119.214" fill="none"/>
    </clipPath>
  </defs>
  <g id="Group_312" data-name="Group 312" transform="translate(18)">
    <g id="Group_311" data-name="Group 311" transform="translate(0)" clip-path="url(#clip-path)">
      <path id="Path_217" data-name="Path 217" d="M147.955,1.4A191.767,191.767,0,0,0,115.72,9.933,293.045,293.045,0,0,0,85.883,22.2c-.527-.209-1.056-.414-1.591-.611a72,72,0,0,0-7.944-2.373,14.838,14.838,0,0,0-7.376-.087,11.147,11.147,0,0,0-6.057,3.851c-1.186,1.687-.857,3.828-.049,5.567a15.628,15.628,0,0,0,1.169,2.083q-12.509,4.471-24.5,9.842c-2.709,1.207-5.418,2.42-8.05,3.742q-3.39,1.706-6.78,3.407c-3.067,1.542-6.127,3.072-9.117,4.713q-3.316,1.827-6.632,3.649c-1.817,1-3.656,1.975-5.348,3.124A7.721,7.721,0,0,0,.977,62.17a19.756,19.756,0,0,0-.856,3.084,2.732,2.732,0,0,0,.386,2.414,4.152,4.152,0,0,0,2.274,1.444l.236.077c2.146.788,4.239,1.67,6.467,2.285a23.634,23.634,0,0,0,3.994.606c1.53.15,3.06.225,4.6.248,1.345.019,2.689-.01,4.032-.073-.23.481-.452.964-.67,1.448A20.441,20.441,0,0,0,19.6,80.3a11.257,11.257,0,0,0,1.095,5.457A19.107,19.107,0,0,0,24.4,91.136a16.055,16.055,0,0,0,4.913,3.332,34,34,0,0,0,6.9,2.212,62.448,62.448,0,0,0,6.66,1.056,68.488,68.488,0,0,0,8.36.462,122.237,122.237,0,0,0,16.7-1.6c5.566-.814,11.04-1.836,16.466-3.141,3.747-.9,7.455-1.908,11.146-2.956q8.141,4.453,16.232,8.962c3.915,2.186,7.8,4.405,11.791,6.5a4.027,4.027,0,0,0-.681.734,3.445,3.445,0,0,0,0,3.99c.232.376.442.756.653,1.149a6.065,6.065,0,0,0,1.572,1.755,13.687,13.687,0,0,0,4.372,2,20.992,20.992,0,0,0,3.769.757c1.486.208,2.987.348,4.481.5,2.646.31,5.281.622,7.941.817q1.607.119,3.219.2a23.427,23.427,0,0,0,5.59,1.312,15.8,15.8,0,0,0,6.479-.97h.84q7.854-.036,15.707-.064c2.836-.012,5.678.012,8.514-.046l14.948-.312q11.57-.243,23.147-.5,4.569-.1,9.145-.231l7.7-.207c3.776-.1,7.538-.4,11.313-.5,1.657-.041,3.039-1.109,3.039-2.5,0-1.426-1.382-2.431-3.039-2.506-3.775-.167-7.531-.583-11.313-.71q-4.021-.139-8.042-.271c-1.594-.052-3.194-.127-4.787-.162-1.642-.029-3.291-.006-4.934-.006q-7.032-.018-14.065-.023c-3.53-.006-7.067.087-10.6.133-7.011.087-14.015.167-21.027.167h-8.725c.194-.606.34-1.223.472-1.835q.088-.415.161-.832.584-.079,1.166-.161c2.723-.387,5.439-.866,8.149-1.335a41.734,41.734,0,0,0,7.4-1.9,27.418,27.418,0,0,0,6.366-3.378,9.97,9.97,0,0,0,2.169-2.16,5.178,5.178,0,0,0,.941-2.876,6.461,6.461,0,0,0-.232-1.588,5.9,5.9,0,0,0-.477-1.294,11.162,11.162,0,0,0-1.888-2.95,25.957,25.957,0,0,0-5.1-3.864c-2.288-1.53-4.646-2.957-7.067-4.331-3.958-2.253-8.043-4.343-12.078-6.5-2.821-1.506-5.8-2.8-8.731-4.163q-2.771-1.29-5.534-2.579,4.344-1.992,8.621-4.073c4.878-2.374,9.636-4.9,14.38-7.438a112.512,112.512,0,0,0,12.816-8.079,29.168,29.168,0,0,0,2.332-1.862q4.11-.534,8.223-1.053c4.159-.514,8.331-.955,12.5-1.432,1.528-.15,3.08-.083,4.613-.122,2.548-.069,5.27-.52,7.109-2.061a2.887,2.887,0,0,0,1.011-3.141,3.917,3.917,0,0,0-3.784-2.373c-2.8.006-5.594-.035-8.393-.047-3.032-.011-6.043.093-9.068.283q-3.117.195-6.228.46a10.976,10.976,0,0,0,.221-5.091,14.179,14.179,0,0,0-2.94-5.659,29.185,29.185,0,0,0-11.068-8.35,58.944,58.944,0,0,0-14.212-3.933,120.6,120.6,0,0,0-15.812-1.6,140.507,140.507,0,0,0-17.076.635c-5.818.514-11.643,1.2-17.4,2.061-4.958.749-9.861,1.711-14.72,2.789q6.023-2.434,12.2-4.6c-.224.075-.441.15-.659.225,12.255-4.246,24.981-7.87,38.2-9.385,2.439-.246,4.88-.419,7.338-.467a70.064,70.064,0,0,1,8.134.346c1.626.22,3.221.559,4.836.849.821.145,1.649.254,2.477.358a8.135,8.135,0,0,0,2.014.034,2.041,2.041,0,0,0,1.741-1.883,2.041,2.041,0,0,0-1.741-1.876c-1.074-.121-2.112-.381-3.165-.6-1.242-.248-2.464-.566-3.706-.826a49.31,49.31,0,0,0-8.577-.8Q163.788,0,162.854,0a94.3,94.3,0,0,0-14.9,1.4m7.04,3.525-.31.032.31-.032m-5.608,15.248a115.229,115.229,0,0,1,14.237.641,77.116,77.116,0,0,1,15.188,3.023,35.043,35.043,0,0,1,5.739,2.7,28.139,28.139,0,0,1,4.42,3.622,17.6,17.6,0,0,1,1.968,2.7,9.611,9.611,0,0,1,.553,1.567,10.546,10.546,0,0,1-.03,1.967,16.47,16.47,0,0,1-.593,2.134q-1.7.176-3.4.363c-3.544.387-7.124.728-10.639,1.26q-2.338.346-4.675.7-14.129,2.13-28.256,4.267c-2.477.375-4.934.941-7.391,1.415l-6.641,1.292q-4.957-3.88-10.238-7.477c-4.429-3.02-9.04-5.861-13.777-8.551q-3.7-2.1-7.565-4,1.8-.452,3.6-.894c5.3-1.293,10.64-2.448,16.038-3.418,5.538-.991,11.14-1.7,16.756-2.319,4.883-.506,9.786-.882,14.707-1m-15.08,1.034-.648.068.648-.068M72.7,25.381a27.957,27.957,0,0,1,3.187.726l.889.247q-2.747.862-5.475,1.77c-.292-.423-.567-.854-.822-1.3a7.808,7.808,0,0,1-.319-.821c.324-.173.657-.33,1-.476.23-.062.459-.117.694-.163.282,0,.56,0,.843.012m-2.5.126c-.036.07-.071.139-.105.209V25.71a1.616,1.616,0,0,1,.105-.2m15.3,5.741q1.122-.328,2.247-.646,3.6,1.634,7.109,3.4c4.7,2.381,9.221,5.007,13.61,7.768q5.939,3.8,11.508,7.975c-2.51.484-5.041.929-7.53,1.471l-.293.063q-3.122-1.26-6.249-2.518c-1.8-.728-3.565-1.553-5.334-2.333-2.54-1.115-5.074-2.259-7.566-3.448A141.013,141.013,0,0,1,79.828,35.7c-.2-.119-.39-.24-.584-.361q-1.108-.725-2.165-1.49,4.182-1.357,8.419-2.6m-6.182,4.138q.158.1.315.2l-.315-.2m112.25.435c-.013.074-.025.148-.039.222.013-.074.025-.148.039-.222m-120.642.087-.521.181.38-.132.141-.049m-1.61.589q1.017.865,2.127,1.668a74.874,74.874,0,0,0,6.512,4.088c2.043,1.178,4.093,2.356,6.191,3.465,2.414,1.282,4.92,2.46,7.433,3.6,2.337,1.057,4.7,2.067,7.067,3.078.946.4,1.888.824,2.844,1.223l-3.061.671q-11.433,2.5-22.859,5.024c-2.778.616-5.565,1.2-8.354,1.776-1.821.271-3.644.533-5.465.805C55.3,62.859,48.84,63.8,42.342,64.542l.177-.022c-2.968.323-5.947.595-8.927.856,1.062-1.231,2.168-2.437,3.279-3.636A145.94,145.94,0,0,1,64.392,39.523q2.435-1.544,4.922-3.026M13.006,61.859c.569-.295,1.137-.6,1.713-.9q3.169-1.671,6.351-3.343c2.7-1.42,5.475-2.749,8.226-4.112q3.158-1.559,6.31-3.113c2.119-1.051,4.281-2.027,6.449-3.008q2.976-1.343,5.981-2.641A131.871,131.871,0,0,0,33.844,57.1a90.485,90.485,0,0,0-7.95,8.934,70.9,70.9,0,0,1-11.842.062,20.5,20.5,0,0,1-3.355-.741c-.774-.294-1.536-.608-2.3-.921.21-.183.431-.358.666-.527,1.266-.738,2.628-1.364,3.942-2.048m132.288-7.7c6.485-1.068,13-2.021,19.5-2.986q7.252-1.074,14.506-2.142.924-.137,1.848-.263c-.809.575-1.633,1.136-2.48,1.678.211-.132.421-.265.631-.393-4.793,3.026-9.881,5.763-14.983,8.426-4.877,2.537-9.855,4.929-14.894,7.228-1.976-2.128-4.039-4.2-6.146-6.235q-2.229-2.152-4.554-4.232l6.568-1.081m-16.425,2.7q1.277,1.09,2.53,2.2-2.293-.932-4.586-1.862l2.057-.338m-32.8,5.387L115.29,59.09q12.916,5.122,25.8,10.3-13.5,5.775-27.538,10.64-7.719,2.662-15.61,4.951L87.513,79.107c-3.5-1.969-7.088-3.829-10.7-5.642-3.46-1.738-6.969-3.419-10.576-4.943q-.324-.137-.649-.271l1.724-.382q5.411-1.195,10.822-2.4l4.481-1c4.486-.738,8.97-1.489,13.458-2.221M2.437,68.978l.242.087-.242-.087m32.432,2.148q7.813-.718,15.579-1.735l.1.107a4.355,4.355,0,0,0,1.8.861c.513.174,1.029.348,1.543.525,2.423.875,4.857,1.7,7.272,2.594,2.673.987,5.257,2.124,7.818,3.291,2.373,1.074,4.7,2.2,7.026,3.338,1.951.953,3.937,1.888,5.825,2.916q3.92,2.138,7.834,4.272-1.088.292-2.178.579c-4.548,1.2-9.138,2.257-13.8,3.119-4.442.818-8.963,1.445-13.474,1.957.114-.012.229-.025.343-.034l-.506.053-.245.028.186-.022a75.468,75.468,0,0,1-15.622.222A54,54,0,0,1,34.213,91.13,22.148,22.148,0,0,1,30.5,89.392a13.93,13.93,0,0,1-1.766-1.479,16.983,16.983,0,0,1-2.061-2.9,13.573,13.573,0,0,1-1.079-3.068,10.589,10.589,0,0,1,.036-2.268,27.8,27.8,0,0,1,2.547-6.7q.337-.634.708-1.253c2-.2,3.995-.415,5.987-.6m-6.534,1.53-.1.2.1-.2M132.62,77.981q6.317-2.441,12.519-5.1c1.643,1.932,3.223,3.9,4.76,5.9A76.63,76.63,0,0,1,156.82,89.3a48.671,48.671,0,0,1,4.7,12.327c.02.15.04.3.057.452-5.088.385-10.194.637-15.289.918-2.3.127-4.6.2-6.892.306-1.355.058-2.7.121-4.057.161-1.4.043-2.791.106-4.176.254-2.3-1.2-4.622-2.389-6.856-3.673-6.387-3.673-12.746-7.385-19.175-11.012l-1.555-.876c9.875-3,19.518-6.493,29.04-10.177M28.146,73.029c-.037.072-.075.144-.114.216l.114-.216M168.364,95.46a55.964,55.964,0,0,0-2.471-6.271,62.428,62.428,0,0,0-3.6-6.82c-1.059-1.751-2.214-3.465-3.43-5.149q2.39,1.1,4.784,2.2c.583.265,1.13.577,1.7.878q2.695,1.42,5.4,2.847c3.8,2,7.6,3.989,11.194,6.223,1,.649,1.975,1.317,2.968,1.972a18.009,18.009,0,0,1,2.5,1.9,5.331,5.331,0,0,1,1.205,2.381q.008.13.007.26c-.025.036-.051.07-.077.105a10.925,10.925,0,0,1-1.125.893,28.744,28.744,0,0,1-4.152,1.962,45.688,45.688,0,0,1-7.167,1.548c-2.141.32-4.286.635-6.434.911a32.86,32.86,0,0,0-1.3-5.837m-11.355-5.8.119.227-.119-.227m31.577,6.366a1.952,1.952,0,0,1-.142.276c.048-.09.1-.183.142-.276m-27.191,12.687a12.812,12.812,0,0,1-.567,1.747c-.936-.008-1.873-.024-2.815-.05-3.446-.1-6.891-.2-10.325-.415,4.57-.415,9.144-.822,13.708-1.282M59.991,92.973l.059-.006.162-.018-.221.025" transform="translate(0)" fill="#d6e200"/>
    </g>
  </g>
  <g id="Group_375" data-name="Group 375" transform="translate(18)">
    <g id="Group_311-2" data-name="Group 311" transform="translate(0)" clip-path="url(#clip-path-2)">
      <path id="Path_217-2" data-name="Path 217" d="M147.955,1.4A191.767,191.767,0,0,0,115.72,9.933,293.045,293.045,0,0,0,85.883,22.2c-.527-.209-1.056-.414-1.591-.611a72,72,0,0,0-7.944-2.373,14.838,14.838,0,0,0-7.376-.087,11.147,11.147,0,0,0-6.057,3.851c-1.186,1.687-.857,3.828-.049,5.567a15.628,15.628,0,0,0,1.169,2.083q-12.509,4.471-24.5,9.842c-2.709,1.207-5.418,2.42-8.05,3.742q-3.39,1.706-6.78,3.407c-3.067,1.542-6.127,3.072-9.117,4.713q-3.316,1.827-6.632,3.649c-1.817,1-3.656,1.975-5.348,3.124A7.721,7.721,0,0,0,.977,62.17a19.756,19.756,0,0,0-.856,3.084,2.732,2.732,0,0,0,.386,2.414,4.152,4.152,0,0,0,2.274,1.444l.236.077c2.146.788,4.239,1.67,6.467,2.285a23.634,23.634,0,0,0,3.994.606c1.53.15,3.06.225,4.6.248,1.345.019,2.689-.01,4.032-.073-.23.481-.452.964-.67,1.448A20.441,20.441,0,0,0,19.6,80.3a11.257,11.257,0,0,0,1.095,5.457A19.107,19.107,0,0,0,24.4,91.136a16.055,16.055,0,0,0,4.913,3.332,34,34,0,0,0,6.9,2.212,62.448,62.448,0,0,0,6.66,1.056,68.488,68.488,0,0,0,8.36.462,122.237,122.237,0,0,0,16.7-1.6c5.566-.814,11.04-1.836,16.466-3.141,3.747-.9,7.455-1.908,11.146-2.956q8.141,4.453,16.232,8.962c3.915,2.186,7.8,4.405,11.791,6.5a4.027,4.027,0,0,0-.681.734,3.445,3.445,0,0,0,0,3.99c.232.376.442.756.653,1.149a6.065,6.065,0,0,0,1.572,1.755,13.687,13.687,0,0,0,4.372,2,20.992,20.992,0,0,0,3.769.757c1.486.208,2.987.348,4.481.5,2.646.31,5.281.622,7.941.817q1.607.119,3.219.2a23.427,23.427,0,0,0,5.59,1.312,15.8,15.8,0,0,0,6.479-.97h.84q7.854-.036,15.707-.064c2.836-.012,5.678.012,8.514-.046l14.948-.312q11.57-.243,23.147-.5,4.569-.1,9.145-.231l7.7-.207c3.776-.1,7.538-.4,11.313-.5,1.657-.041,3.039-1.109,3.039-2.5,0-1.426-1.382-2.431-3.039-2.506-3.775-.167-7.531-.583-11.313-.71q-4.021-.139-8.042-.271c-1.594-.052-3.194-.127-4.787-.162-1.642-.029-3.291-.006-4.934-.006q-7.032-.018-14.065-.023c-3.53-.006-7.067.087-10.6.133-7.011.087-14.015.167-21.027.167h-8.725c.194-.606.34-1.223.472-1.835q.088-.415.161-.832.584-.079,1.166-.161c2.723-.387,5.439-.866,8.149-1.335a41.734,41.734,0,0,0,7.4-1.9,27.418,27.418,0,0,0,6.366-3.378,9.97,9.97,0,0,0,2.169-2.16,5.178,5.178,0,0,0,.941-2.876,6.461,6.461,0,0,0-.232-1.588,5.9,5.9,0,0,0-.477-1.294,11.162,11.162,0,0,0-1.888-2.95,25.957,25.957,0,0,0-5.1-3.864c-2.288-1.53-4.646-2.957-7.067-4.331-3.958-2.253-8.043-4.343-12.078-6.5-2.821-1.506-5.8-2.8-8.731-4.163q-2.771-1.29-5.534-2.579,4.344-1.992,8.621-4.073c4.878-2.374,9.636-4.9,14.38-7.438a112.512,112.512,0,0,0,12.816-8.079,29.168,29.168,0,0,0,2.332-1.862q4.11-.534,8.223-1.053c4.159-.514,8.331-.955,12.5-1.432,1.528-.15,3.08-.083,4.613-.122,2.548-.069,5.27-.52,7.109-2.061a2.887,2.887,0,0,0,1.011-3.141,3.917,3.917,0,0,0-3.784-2.373c-2.8.006-5.594-.035-8.393-.047-3.032-.011-6.043.093-9.068.283q-3.117.195-6.228.46a10.976,10.976,0,0,0,.221-5.091,14.179,14.179,0,0,0-2.94-5.659,29.185,29.185,0,0,0-11.068-8.35,58.944,58.944,0,0,0-14.212-3.933,120.6,120.6,0,0,0-15.812-1.6,140.507,140.507,0,0,0-17.076.635c-5.818.514-11.643,1.2-17.4,2.061-4.958.749-9.861,1.711-14.72,2.789q6.023-2.434,12.2-4.6c-.224.075-.441.15-.659.225,12.255-4.246,24.981-7.87,38.2-9.385,2.439-.246,4.88-.419,7.338-.467a70.064,70.064,0,0,1,8.134.346c1.626.22,3.221.559,4.836.849.821.145,1.649.254,2.477.358a8.135,8.135,0,0,0,2.014.034,2.041,2.041,0,0,0,1.741-1.883,2.041,2.041,0,0,0-1.741-1.876c-1.074-.121-2.112-.381-3.165-.6-1.242-.248-2.464-.566-3.706-.826a49.31,49.31,0,0,0-8.577-.8Q163.788,0,162.854,0a94.3,94.3,0,0,0-14.9,1.4m7.04,3.525-.31.032.31-.032m-5.608,15.248a115.229,115.229,0,0,1,14.237.641,77.116,77.116,0,0,1,15.188,3.023,35.043,35.043,0,0,1,5.739,2.7,28.139,28.139,0,0,1,4.42,3.622,17.6,17.6,0,0,1,1.968,2.7,9.611,9.611,0,0,1,.553,1.567,10.546,10.546,0,0,1-.03,1.967,16.47,16.47,0,0,1-.593,2.134q-1.7.176-3.4.363c-3.544.387-7.124.728-10.639,1.26q-2.338.346-4.675.7-14.129,2.13-28.256,4.267c-2.477.375-4.934.941-7.391,1.415l-6.641,1.292q-4.957-3.88-10.238-7.477c-4.429-3.02-9.04-5.861-13.777-8.551q-3.7-2.1-7.565-4,1.8-.452,3.6-.894c5.3-1.293,10.64-2.448,16.038-3.418,5.538-.991,11.14-1.7,16.756-2.319,4.883-.506,9.786-.882,14.707-1m-15.08,1.034-.648.068.648-.068M72.7,25.381a27.957,27.957,0,0,1,3.187.726l.889.247q-2.747.862-5.475,1.77c-.292-.423-.567-.854-.822-1.3a7.808,7.808,0,0,1-.319-.821c.324-.173.657-.33,1-.476.23-.062.459-.117.694-.163.282,0,.56,0,.843.012m-2.5.126c-.036.07-.071.139-.105.209V25.71a1.616,1.616,0,0,1,.105-.2m15.3,5.741q1.122-.328,2.247-.646,3.6,1.634,7.109,3.4c4.7,2.381,9.221,5.007,13.61,7.768q5.939,3.8,11.508,7.975c-2.51.484-5.041.929-7.53,1.471l-.293.063q-3.122-1.26-6.249-2.518c-1.8-.728-3.565-1.553-5.334-2.333-2.54-1.115-5.074-2.259-7.566-3.448A141.013,141.013,0,0,1,79.828,35.7c-.2-.119-.39-.24-.584-.361q-1.108-.725-2.165-1.49,4.182-1.357,8.419-2.6m-6.182,4.138q.158.1.315.2l-.315-.2m112.25.435c-.013.074-.025.148-.039.222.013-.074.025-.148.039-.222m-120.642.087-.521.181.38-.132.141-.049m-1.61.589q1.017.865,2.127,1.668a74.874,74.874,0,0,0,6.512,4.088c2.043,1.178,4.093,2.356,6.191,3.465,2.414,1.282,4.92,2.46,7.433,3.6,2.337,1.057,4.7,2.067,7.067,3.078.946.4,1.888.824,2.844,1.223l-3.061.671q-11.433,2.5-22.859,5.024c-2.778.616-5.565,1.2-8.354,1.776-1.821.271-3.644.533-5.465.805C55.3,62.859,48.84,63.8,42.342,64.542l.177-.022c-2.968.323-5.947.595-8.927.856,1.062-1.231,2.168-2.437,3.279-3.636A145.94,145.94,0,0,1,64.392,39.523q2.435-1.544,4.922-3.026M13.006,61.859c.569-.295,1.137-.6,1.713-.9q3.169-1.671,6.351-3.343c2.7-1.42,5.475-2.749,8.226-4.112q3.158-1.559,6.31-3.113c2.119-1.051,4.281-2.027,6.449-3.008q2.976-1.343,5.981-2.641A131.871,131.871,0,0,0,33.844,57.1a90.485,90.485,0,0,0-7.95,8.934,70.9,70.9,0,0,1-11.842.062,20.5,20.5,0,0,1-3.355-.741c-.774-.294-1.536-.608-2.3-.921.21-.183.431-.358.666-.527,1.266-.738,2.628-1.364,3.942-2.048m132.288-7.7c6.485-1.068,13-2.021,19.5-2.986q7.252-1.074,14.506-2.142.924-.137,1.848-.263c-.809.575-1.633,1.136-2.48,1.678.211-.132.421-.265.631-.393-4.793,3.026-9.881,5.763-14.983,8.426-4.877,2.537-9.855,4.929-14.894,7.228-1.976-2.128-4.039-4.2-6.146-6.235q-2.229-2.152-4.554-4.232l6.568-1.081m-16.425,2.7q1.277,1.09,2.53,2.2-2.293-.932-4.586-1.862l2.057-.338m-32.8,5.387L115.29,59.09q12.916,5.122,25.8,10.3-13.5,5.775-27.538,10.64-7.719,2.662-15.61,4.951L87.513,79.107c-3.5-1.969-7.088-3.829-10.7-5.642-3.46-1.738-6.969-3.419-10.576-4.943q-.324-.137-.649-.271l1.724-.382q5.411-1.195,10.822-2.4l4.481-1c4.486-.738,8.97-1.489,13.458-2.221M2.437,68.978l.242.087-.242-.087m32.432,2.148q7.813-.718,15.579-1.735l.1.107a4.355,4.355,0,0,0,1.8.861c.513.174,1.029.348,1.543.525,2.423.875,4.857,1.7,7.272,2.594,2.673.987,5.257,2.124,7.818,3.291,2.373,1.074,4.7,2.2,7.026,3.338,1.951.953,3.937,1.888,5.825,2.916q3.92,2.138,7.834,4.272-1.088.292-2.178.579c-4.548,1.2-9.138,2.257-13.8,3.119-4.442.818-8.963,1.445-13.474,1.957.114-.012.229-.025.343-.034l-.506.053-.245.028.186-.022a75.468,75.468,0,0,1-15.622.222A54,54,0,0,1,34.213,91.13,22.148,22.148,0,0,1,30.5,89.392a13.93,13.93,0,0,1-1.766-1.479,16.983,16.983,0,0,1-2.061-2.9,13.573,13.573,0,0,1-1.079-3.068,10.589,10.589,0,0,1,.036-2.268,27.8,27.8,0,0,1,2.547-6.7q.337-.634.708-1.253c2-.2,3.995-.415,5.987-.6m-6.534,1.53-.1.2.1-.2M132.62,77.981q6.317-2.441,12.519-5.1c1.643,1.932,3.223,3.9,4.76,5.9A76.63,76.63,0,0,1,156.82,89.3a48.671,48.671,0,0,1,4.7,12.327c.02.15.04.3.057.452-5.088.385-10.194.637-15.289.918-2.3.127-4.6.2-6.892.306-1.355.058-2.7.121-4.057.161-1.4.043-2.791.106-4.176.254-2.3-1.2-4.622-2.389-6.856-3.673-6.387-3.673-12.746-7.385-19.175-11.012l-1.555-.876c9.875-3,19.518-6.493,29.04-10.177M28.146,73.029c-.037.072-.075.144-.114.216l.114-.216M168.364,95.46a55.964,55.964,0,0,0-2.471-6.271,62.428,62.428,0,0,0-3.6-6.82c-1.059-1.751-2.214-3.465-3.43-5.149q2.39,1.1,4.784,2.2c.583.265,1.13.577,1.7.878q2.695,1.42,5.4,2.847c3.8,2,7.6,3.989,11.194,6.223,1,.649,1.975,1.317,2.968,1.972a18.009,18.009,0,0,1,2.5,1.9,5.331,5.331,0,0,1,1.205,2.381q.008.13.007.26c-.025.036-.051.07-.077.105a10.925,10.925,0,0,1-1.125.893,28.744,28.744,0,0,1-4.152,1.962,45.688,45.688,0,0,1-7.167,1.548c-2.141.32-4.286.635-6.434.911a32.86,32.86,0,0,0-1.3-5.837m-11.355-5.8.119.227-.119-.227m31.577,6.366a1.952,1.952,0,0,1-.142.276c.048-.09.1-.183.142-.276m-27.191,12.687a12.812,12.812,0,0,1-.567,1.747c-.936-.008-1.873-.024-2.815-.05-3.446-.1-6.891-.2-10.325-.415,4.57-.415,9.144-.822,13.708-1.282M59.991,92.973l.059-.006.162-.018-.221.025" transform="translate(0)" fill="#fff"/>
    </g>
  </g>
  <rect id="Rectangle_509" data-name="Rectangle 509" width="291.439" height="42.806" transform="translate(0 43.317)" fill="#fff"/>
  <text id="Marketing_Services" data-name="Marketing Services" transform="translate(145 72.834)" font-size="20" font-family="RawlineBlack-Regular, Rawline" letter-spacing="0.04em"><tspan x="-115.731" y="0">MARKETING SERVICES</tspan></text>
</svg>
