<svg xmlns="http://www.w3.org/2000/svg" xmlns:xlink="http://www.w3.org/1999/xlink" width="130.437" height="19.842" viewBox="0 0 130.437 19.842">
  <defs>
    <clipPath id="clip-path">
      <rect id="Rectangle_208" data-name="Rectangle 208" width="130" height="10.8" fill="none"/>
    </clipPath>
  </defs>
  <g id="NAV_ON" data-name="NAV ON" transform="matrix(0.998, 0.07, -0.07, 0.998, 0.753, 0)">
    <g id="Group_318" data-name="Group 318" transform="translate(0 0)" clip-path="url(#clip-path)">
      <path id="Path_220" data-name="Path 220" d="M28.064,9.567c1.334-.078,2.667-.158,4-.228,4.163-.221,8.326-.449,12.489-.662,4.071-.205,8.142-.456,12.21-.687,2.959-.167,5.932-.3,8.88-.514q13.032-.951,26.065-1.91c.792-.056,1.583-.137,2.379-.207q3.537-.314,7.084-.625,7.282-.647,14.573-1.291c4.31-.381,8.613-.816,12.915-1.227.674-.066,1.227-.389,1.326-.834.094-.409-.259-.893-.89-1.041-.31-.074-.624-.15-.948-.2-.3-.05-.585-.072-.893-.094C126.612,0,125.959,0,125.313,0c-1.354,0-2.7.086-4.058.122-.735.02-1.478.021-2.214.028q-3.951.044-7.9.086c-3.562.04-7.125.122-10.688.189-3.11.058-6.219.088-9.327.2Q83.52.89,75.9,1.158c-2.641.094-5.286.148-7.918.307l-14.56.877c-2.484.149-9.1.531-9.916.587L11.592,4.614c-1.167.134-2.334.275-3.507.411-1.25.145-2.489.314-3.721.528A33.459,33.459,0,0,0,1,6.419c-.65.18-1.071.593-.989,1.059a1.01,1.01,0,0,0,.566.67,2.345,2.345,0,0,0,1.168.221c1.271-.011,2.546.022,3.814-.024,1.385-.051,2.769-.172,4.144-.3,2.653-.24,5.29-.565,7.931-.85,1.712-.184,3.427-.333,5.148-.483l15.7-1.375,4.666-.409c.8-.071,1.607-.1,2.408-.146l15.57-.93q3.315-.2,6.632-.395c.684-.042,1.368-.09,2.057-.114q6.883-.238,13.768-.472,3.611-.125,7.225-.247c.816-.029,1.631-.065,2.447-.079l12.97-.236-11.1.981q-3.271.29-6.556.528-7.9.566-15.8,1.126-3.272.233-6.547.468c-.695.049-1.39.106-2.086.14q-7.079.349-14.164.7-4.621.235-9.241.428-5.974.241-11.94.488l-5.46.231c-.914.039-1.827.044-2.746.05a13.632,13.632,0,0,0-2.509.225,5.963,5.963,0,0,0-1.307.4,5.053,5.053,0,0,0-1.037.742.9.9,0,0,0-.294,1.209,1.956,1.956,0,0,0,1.478.762Z" transform="translate(0 0)" fill="#03ff00"/>
    </g>
  </g>
</svg>
