<svg xmlns="http://www.w3.org/2000/svg" xmlns:xlink="http://www.w3.org/1999/xlink" width="299.699" height="116.449" viewBox="0 0 299.699 116.449">
  <defs>
    <clipPath id="clip-path">
      <rect id="Rectangle_200" data-name="Rectangle 200" width="299.699" height="116.45" fill="none"/>
    </clipPath>
  </defs>
  <g id="PUBLISHING" transform="translate(-134.001 -7583.393)">
    <g id="Group_316" data-name="Group 316" transform="translate(134.001 7583.393)">
      <g id="Group_315" data-name="Group 315" transform="translate(0)" clip-path="url(#clip-path)">
        <path id="Path_219" data-name="Path 219" d="M80.556.484a48.89,48.89,0,0,0-7.829,1.83C70.443,2.995,68.25,3.832,66.1,4.7q-3.476,1.4-6.8,2.962a114.851,114.851,0,0,0-12.546,7c-3.875,2.466-7.582,5.068-11.067,7.8-3.619,2.821-6.981,5.8-10.219,8.832A131.242,131.242,0,0,0,8.7,50.354,73.346,73.346,0,0,0,2.291,60.875a24.57,24.57,0,0,0-2.026,4.78A8.006,8.006,0,0,0,.026,68.28,9.687,9.687,0,0,0,.69,70.869a9.292,9.292,0,0,0,3.043,3.947,8.184,8.184,0,0,0,2.389,1.169,16.869,16.869,0,0,0,3.46.747,40.871,40.871,0,0,0,6.538.146q.8-.036,1.59-.085-.775.531-1.546,1.065c-1,.685-1.973,1.395-3.008,2.05-1.381.863-2.929,1.573-4.2,2.515a6.963,6.963,0,0,0-1.4,1.383,2.092,2.092,0,0,0-.5,1.144A4.348,4.348,0,0,0,7.308,86.1a2.234,2.234,0,0,0,1.7,1.175,3.356,3.356,0,0,0,2.363-.435c4.141-2.448,8.344-4.822,12.315-7.406q3.274-2.136,6.451-4.347c2.9-.647,5.752-1.42,8.581-2.165,5.158-1.359,10.361-2.614,15.483-4.034,6.535-1.812,13.009-3.732,19.56-5.532q-4.676,3.267-9.279,6.591C57.924,74.688,51.625,79.591,45.5,84.61q-4.539,3.727-8.839,7.583-2.19,1.965-4.291,3.985c-1.2,1.157-2.377,2.319-3.63,3.455-2.512,2.22-5.141,4.42-6.908,6.974a13.693,13.693,0,0,0-1.132,1.959,8.711,8.711,0,0,0-.645,2.375,3.524,3.524,0,0,0,.778,2.276c.424.667.972,1.291,1.4,1.958.584.93,2.743,1.542,4.1,1.157,2.433-.692,4.884-1.347,7.3-2.062,2.575-.765,5.079-1.652,7.565-2.54,2.274-.814,4.539-1.64,6.8-2.454q6.8-2.433,13.581-4.866c2.133-.765,4.22-1.579,6.326-2.393q7.047-2.735,14.112-5.478l4.591-1.781c3.061-1.187,6.034-2.509,9.015-3.788q1.072-.459,2.141-.923a27.324,27.324,0,0,0,3.044,2.71c1.593,1.206,3.584,2.161,5.344,3.25a4.612,4.612,0,0,0,4.8,0,26.1,26.1,0,0,0,4.425-3.617,21.91,21.91,0,0,0,2.893-5.037c.637-1.31,1.416-2.582,2.167-3.862,1.133-1.936,2.243-3.888,3.394-5.824q3.693-1.877,7.31-3.82,1.7,1.4,3.445,2.783,3.394,2.683,7.032,5.2l-.6.612c-1.85,1.886-3.734,3.733-5.662,5.576q-2.708,2.6-5.424,5.184-1.911,1.809-3.822,3.63c-1.531,1.456-2.893,2.98-4.3,4.5a1.571,1.571,0,0,0,0,2.148,2.858,2.858,0,0,0,1.1.765,4.141,4.141,0,0,0,2.381.215c.76-.221,1.556-.4,2.3-.649a12.219,12.219,0,0,0,2.018-.942,25.446,25.446,0,0,0,3.584-2.418c2.313-1.8,4.294-3.784,6.414-5.69q4.629-4.109,9.214-8.243c3,1.811,6.119,3.521,9.33,5.139a56.014,56.014,0,0,0,6.216,2.678,6.149,6.149,0,0,0-.058,2.567c.221,1.157.655,2.282.92,3.439a2.328,2.328,0,0,0,1.407,1.267,4.593,4.593,0,0,0,2.362.214l.149-.014a65.86,65.86,0,0,0,6.655-.635,20.358,20.358,0,0,0,3.274-.985,29.07,29.07,0,0,0,3.291-1.5c1.92-.991,3.707-2.092,5.476-3.213,1.92-1.218,3.867-2.405,5.814-3.6,5.458-3.36,10.572-6.977,15.9-10.435,5.752-3.721,11.422-7.5,17.332-11.108q4.1-2.506,8.2-5.007c3.028-1.838,6-3.733,9.158-5.457,1.256-.645,2.561-1.241,3.829-1.881a28.25,28.25,0,0,1,3.529-1.558c.207-.048.411-.089.623-.125h.012c.1.018.2.037.3.059.35.126.683.266,1.011.418a10.2,10.2,0,0,1,1.094.745,4.285,4.285,0,0,1,.3.344,5.416,5.416,0,0,1,.355.953,9.558,9.558,0,0,1-.146,2.742c-.3,1.333-.709,2.651-1.057,3.98a40.853,40.853,0,0,1-1.743,5.215c-1.054,2.558-2.274,5.1-3.495,7.62q-2.071,4.3-4.159,8.592c-.991,2.051-1.947,4.107-2.92,6.164-.513,1.1-1.036,2.2-1.548,3.3a26.044,26.044,0,0,0-1.929,4.676,5.4,5.4,0,0,0,0,2.785c.247.881.655,1.726.946,2.595a2.915,2.915,0,0,0,2.8,1.475,36.647,36.647,0,0,0,7.115-.5,32.6,32.6,0,0,0,6.82-2.669c1.991-.967,4-1.922,5.99-2.9,1.857-.912,3.725-1.812,5.573-2.73,1.575-.784,3.177-1.548,4.787-2.295a51.5,51.5,0,0,1,6.783-2.541,67.778,67.778,0,0,1,6.949-1.559c1.23-.208,2.477-.349,3.733-.483,1.362-.151,2.724-.3,4.093-.435,1.272-.112,2.545-.23,3.817-.294,1.08-.061,1.991-.587,1.991-1.383,0-.728-.9-1.407-1.991-1.377-1.566.042-3.141-.018-4.707-.018-1.717,0-3.424.11-5.132.214a57.348,57.348,0,0,0-9.334,1.377,50.247,50.247,0,0,0-8.626,2.791c-1.84.8-3.645,1.664-5.423,2.528-2.345,1.138-4.672,2.295-7.007,3.446l-2,.979c-1.3.643-2.619,1.266-3.938,1.9a30.3,30.3,0,0,1-3.759,1.513,15.039,15.039,0,0,1-1.567.318c-.641.039-1.284.053-1.927.061-.109-.3-.213-.6-.3-.9a4.874,4.874,0,0,1,.02-1,27.794,27.794,0,0,1,1.944-4.5c.23-.472.451-.942.681-1.414.823-1.744,1.655-3.482,2.478-5.22,1.123-2.344,2.274-4.682,3.424-7.026,2.008-4.119,4.1-8.238,5.857-12.418a44.253,44.253,0,0,0,1.7-5.141c.477-1.732,1.026-3.446,1.345-5.2a7.375,7.375,0,0,0-.478-4.456c-.761-1.616-2.468-2.791-4.379-3.782a10.9,10.9,0,0,0-2.778-.912,10.566,10.566,0,0,0-3.371.012,13.623,13.623,0,0,0-3.008.851c-1.1.4-2.116.925-3.141,1.408-.929.446-1.894.863-2.823,1.322-1.1.532-2.141,1.114-3.177,1.7-1.973,1.107-3.883,2.271-5.786,3.433-3.238,1.977-6.45,3.972-9.671,5.955C216.9,70.288,211.2,74.113,205.438,77.9c-3.124,2.05-6.2,4.125-9.273,6.212l-.6.406c.33-.57.652-1.141.96-1.715a38.174,38.174,0,0,0,2.345-5.459c.61-1.72,1.123-3.452,1.619-5.19.556-1.91,1.132-3.813,1.653-5.729,1.469-5.374,2.522-10.815,3.512-16.237q.758-4.135,1.5-8.271,2.037-2.909,4-5.844c1.319-1.958,2.548-3.941,3.707-5.949,1.115-1.928,1.92-3.911,2.823-5.888.486-1.047-.3-2.246-1.637-2.785a4.845,4.845,0,0,0-4.326.386c-.661.471-1.337.936-2,1.408a5.938,5.938,0,0,0-.735-1.4c-.557-.808-1.31-1.536-1.938-2.319-1.158-1.463-4.423-1.812-6.078-.545-1.628,1.255-3.327,2.455-4.99,3.685a57.6,57.6,0,0,0-5.238,4.419,102.729,102.729,0,0,0-8.413,9.309c-2.814,3.415-5.627,6.818-8.582,10.171q-7.167,8.153-14.341,16.3c-1.593,1.806-3.282,3.581-4.928,5.368q-3.517,3.838-7.043,7.675c-.592.643-1.238,1.261-1.85,1.891l-.136.139q-.652-.465-1.3-.934c-2.693-1.963-5.248-4.012-7.729-6.1q2.3-1.338,4.518-2.74c1.911-1.212,3.716-2.5,5.556-3.763a97.677,97.677,0,0,0,9.626-7.075,22.729,22.729,0,0,0,3.5-3.789,10.18,10.18,0,0,0,1.822-4.327,8.573,8.573,0,0,0-.531-4.229A6.9,6.9,0,0,0,159.9,43.2a6.3,6.3,0,0,0-2.177-1.61,8.289,8.289,0,0,0-2.521-.66,21.4,21.4,0,0,0-3.6-.141c-1.864.065-3.722.284-5.574.486a112.958,112.958,0,0,0,5.371-9.979c.673-1.475,1.46-2.9,2.238-4.345a7.646,7.646,0,0,0,1.186-4.651,3.9,3.9,0,0,0-1.115-2.308,7,7,0,0,0-2.751-1.658,8.123,8.123,0,0,0-4.026-.239,11.279,11.279,0,0,0-3.61,1.518c-1,.569-1.929,1.193-2.912,1.762-.813.465-1.628.93-2.433,1.4l-5.361,3.084c-3.062,1.763-6.043,3.593-9.07,5.393-5.828,3.471-11.509,7.073-17.231,10.636l-3.684-3.782c-.645-.661-1.291-1.315-1.928-1.976-2.653-2.721-5.258-5.469-8.045-8.122l1.117-.753c3.512-2.368,6.91-4.817,10.582-7.069.918-.562,1.864-1.105,2.824-1.632a47.619,47.619,0,0,1,8.178-3.412,40.871,40.871,0,0,1,5.679-1.152,21.37,21.37,0,0,1,2.384-.024c.111.018.221.037.329.059.221.088.435.18.65.279a61.9,61.9,0,0,1,7.011,5.05c1.786,1.39,5.167,1.261,6.99,0,1.946-1.347,1.849-3.483,0-4.835a43.464,43.464,0,0,0-5.141-3.489c-1.026-.563-2.043-1.133-3.087-1.677a15.158,15.158,0,0,0-3.813-1.292,16.827,16.827,0,0,0-2.168-.214,14.911,14.911,0,0,0-1.566-.006,30.49,30.49,0,0,0-3.893.4,42.4,42.4,0,0,0-7.485,2.038,55.049,55.049,0,0,0-10.881,5.331,21.439,21.439,0,0,0,1.3-2.185,9.433,9.433,0,0,0,1.389-4.9A7.843,7.843,0,0,0,100.392,3.8a10.6,10.6,0,0,0-2.273-1.708A13.845,13.845,0,0,0,94.792.809,30.468,30.468,0,0,0,87.529,0l-.374,0a51.111,51.111,0,0,0-6.6.485m9.769,4.984a21.019,21.019,0,0,1,2.363.421c.294.1.578.214.856.337a10.45,10.45,0,0,1,1.013.714,9.546,9.546,0,0,1,1.1,1.3,5.525,5.525,0,0,1,.312.728,5.438,5.438,0,0,1-.039,1.093,16.474,16.474,0,0,1-1.656,3.979,59.861,59.861,0,0,1-3.907,5.125c-1.086,1.319-2.238,2.609-3.422,3.885-1.469-1.16-2.824-2.388-4.356-3.512a17.377,17.377,0,0,0-5.8-2.81,14.7,14.7,0,0,0-6.883.012,10.242,10.242,0,0,0-3.177,1.31A4.61,4.61,0,0,0,65.613,19.1a5.71,5.71,0,0,0-.717,1.273,6.65,6.65,0,0,0-.416,2.478c-.035.851.017,1.708.043,2.559a25.968,25.968,0,0,0,1.2,5.894c.539,1.977,1.018,3.966,1.574,5.943q.332,1.171.692,2.337l-.4.319Q62.622,43.873,57.5,47.728q-9.277,7.023-18.554,14.034c-2.158,1.64-4.468,3.2-6.7,4.786q-3.2,2.284-6.4,4.569c-1.8.341-3.611.625-5.458.825a59.083,59.083,0,0,1-8.979.226,19.09,19.09,0,0,1-1.928-.331c-.2-.072-.4-.148-.6-.231-.075-.051-.147-.1-.218-.155a6.62,6.62,0,0,1-.618-.767,9.015,9.015,0,0,1-.75-1.967,6.32,6.32,0,0,1-.007-1.539,18.3,18.3,0,0,1,1.872-4.13c.772-1.387,1.508-2.786,2.325-4.165,1.489-2.372,3.161-4.69,4.912-6.98,1.814-2.374,3.681-4.737,5.654-7.051A137.883,137.883,0,0,1,34.684,32.013,134.8,134.8,0,0,1,59.838,14.237c2.635-1.379,5.377-2.644,8.181-3.861A85.127,85.127,0,0,1,77.281,6.9a47.8,47.8,0,0,1,7.125-1.367,40.368,40.368,0,0,1,5.919-.069m-6.346.1-.264.023.264-.023m23.96,12.57-.589.32q.294-.161.589-.32M73.5,21.655l-.152.134a1.931,1.931,0,0,1,.152-.134m.427.485c.1.019.2.039.3.061a13.439,13.439,0,0,1,1.365.576,41.414,41.414,0,0,1,4.538,3.278c.718.568,1.441,1.129,2.159,1.694-.183.172-.365.344-.549.515l-2.885,2.725-.573.438q-1.647,1.269-3.267,2.553-.18-.744-.352-1.488c-.4-1.717-.848-3.424-1.214-5.145a20.908,20.908,0,0,1-.237-2.733c-.015-.8-.082-1.608-.023-2.411.113-.021.228-.04.343-.058.133,0,.265-.007.4-.008m73.634.739.032.018-.032-.018m-27.613,18c2.283-1.408,4.529-2.846,6.839-4.223L137.436,30.3c1.54-.918,3.089-1.824,4.628-2.736l3.565-2.1c.564-.331,1.1-.684,1.631-1.038a31.021,31.021,0,0,1-1.445,2.991c-.894,1.714-1.574,3.482-2.416,5.209-1.611,3.293-3.5,6.516-5.357,9.741l-.145.027c-2.743.52-5.433,1.162-8.131,1.775-1.575.355-3.141.7-4.707,1.071q-6.29,1.5-12.573,3-.458-.477-.92-.951l-.737-.758q4.561-2.825,9.115-5.65m82.183-15.107a13.87,13.87,0,0,1-.247,1.9c.023-.123.046-.243.071-.363-.215,1.1-.4,2.2-.557,3.3q-1.278,1.176-2.558,2.355c-1.973,1.805-3.946,3.623-5.91,5.434q-7.074,6.51-14.121,13.036-4.243,3.925-8.484,7.855,5.433-6,10.873-12c5.44-6.005,10.137-12.359,16.322-18.035a56.21,56.21,0,0,1,4.61-3.48M82.582,35.047q2.2-1.629,4.464-3.2c2.409,2.288,4.694,4.637,7.082,6.935.628.6,1.23,1.218,1.84,1.83l4.8,4.79c-3.527,2.284-7,4.61-10.5,6.906q-2.119,1.4-4.243,2.792l-3.093.841c-1.325-2.69-2.535-5.408-3.6-8.162q-1.577-4.054-2.818-8.162c2.008-1.531,4.023-3.058,6.065-4.568m118.274,4.1-.152.136.152-.136M168.809,68.311q13.551-12.43,27.215-24.8,2.09-1.885,4.176-3.773c-.017.115-.034.231-.053.346q-.122.766-.242,1.531-.734,1.051-1.474,2.1-3.33,4.727-6.662,9.45-4.618,6.546-9.263,13.079c-5.078,7.142-10.352,14.248-14.731,21.617.106-.177.2-.349.309-.52-.54.883-1.121,1.759-1.669,2.643q-.441-.171-.879-.348a65.336,65.336,0,0,1-6.06-2.907l.664.348q-3.76-2.017-7.281-4.211,8.011-7.257,15.95-14.554M144.984,41.383l-.284.029.284-.029M44.75,64.48q5.549-4.2,11.1-8.409c1.646-1.249,3.353-2.473,4.937-3.764q4.512-3.672,9.017-7.344a106.212,106.212,0,0,0,5.817,12.966l-3.854,1.049c-8.573,2.338-17,4.914-25.613,7.167-1.807.472-3.634.916-5.452,1.368q2.032-1.507,4.044-3.033M154,45.016c.212.032.42.071.624.117l.016.006.023.016a5.03,5.03,0,0,1,.4.5,7.525,7.525,0,0,1,.6,1.62,8.185,8.185,0,0,1,.039,2.184,7.931,7.931,0,0,1-.839,1.927,20.558,20.558,0,0,1-3.152,3.573,135.444,135.444,0,0,1-11.076,8.089c-2.433,1.713-5,3.329-7.647,4.879q-1.047-.916-2.084-1.837,1.063-1.738,2.123-3.477c-.017.027-.034.054-.05.08q4.847-7.884,9.7-15.779.272-.439.537-.88c1.366-.209,2.75-.345,4.126-.521,1.17-.143,2.339-.295,3.513-.42A23.674,23.674,0,0,1,154,45.016M125.97,49.828c2.256-.539,4.512-1.059,6.768-1.6q1.068-.253,2.136-.5c-.567.932-1.138,1.865-1.7,2.8q-3.4,5.625-6.8,11.252-5.01-4.817-10.015-9.634,4.809-1.157,9.616-2.316M107.55,54.259l1.7-.408q.188.18.38.359,4.1,3.838,8.193,7.681,2.707,2.535,5.414,5.077c-1.709,2.818-3.43,5.633-5.078,8.468l-.314.54q-1.763.883-3.526,1.762-6.628,3.305-13.491,6.37c-1.315-1.717-2.523-3.478-3.8-5.2-2.735-3.7-5.259-7.477-7.627-11.3l.062.1c-.034-.055-.067-.11-.1-.164l-.281-.453c.057.088.111.176.165.262q-1.477-2.436-2.865-4.894l6.686-4.379c4.8-1.325,9.6-2.65,14.479-3.824m74.982,21.972q3.571-4.93,7.132-9.878,4.008-5.539,7.968-11.1c-.046.249-.092.5-.141.746-.5,2.594-1.038,5.19-1.652,7.772-.61,2.528-1.362,5.037-2.07,7.552a70.073,70.073,0,0,1-2.406,7.314,45.22,45.22,0,0,1-3.212,6.19,23.481,23.481,0,0,1-3.729,4.809,14.42,14.42,0,0,1-1.819,1.281,18.077,18.077,0,0,1-2.174.847,25.74,25.74,0,0,1-3.362.644,19.046,19.046,0,0,1-2.167.026,24.273,24.273,0,0,1-2.917-.574c.775-1.225,1.583-2.44,2.332-3.675l-.076.127c2.534-4.1,5.415-8.095,8.3-12.086M63.675,78.52c3.761-2.834,7.618-5.606,11.511-8.354,1.78-1.255,3.577-2.5,5.373-3.748q1.027,1.646,2.085,3.283,3.264,5.1,6.981,10.049c1.071,1.439,2.184,2.871,3.255,4.315.656.883,1.319,1.763,2.006,2.635q-4.165,1.786-8.376,3.522c-1.424.594-2.858,1.163-4.318,1.713Q75.412,94.5,68.621,97.065q-3,1.129-6,2.265c-.672.256-1.337.526-2.026.759q-6.065,2.065-12.121,4.131c-5.289,1.8-10.562,3.64-15.977,5.252-1.57.444-3.17.838-4.776,1.221a8.349,8.349,0,0,1,.57-1.274,25.377,25.377,0,0,1,4-4.362c1.653-1.46,3.355-2.9,4.936-4.4,1.719-1.619,3.4-3.257,5.153-4.858a.126.126,0,0,0-.011.011c6.7-5.986,13.9-11.721,21.3-17.291M127,71.273l-.3.161.3-.161m-17.4,13.434q2.218-1.045,4.406-2.121-.531.907-1.053,1.815c-.849,1.462-1.516,2.97-2.35,4.429A11.16,11.16,0,0,1,109.3,90.5c-.28.224-.573.438-.873.647a27.037,27.037,0,0,1-3.367-2.284q-.744-.692-1.421-1.412,3-1.352,5.952-2.742m78.671-.061c-.029.049-.058.1-.09.146.03-.048.06-.1.09-.146m-16.294,7.236.157.048-.157-.047Zm-1.6,4.368q.774.2,1.563.361a17.71,17.71,0,0,0,2.564.323,20.349,20.349,0,0,1-2.23.374c-.539.045-1.077.085-1.617.127-.088-.3-.174-.592-.249-.889-.013-.1-.024-.2-.031-.3m-137.706,8.47-.35.316.35-.316m-.4.361c-.067.059-.133.119-.2.177l.2-.177m-4.59,5.521c-.006.035-.013.07-.019.1h0c.008-.035.016-.07.024-.106m146.32-21.892c.081-.13.161-.26.242-.393l-.242.393M89.366,67.547l.038.061c-.051-.085-.1-.169-.154-.253.038.064.077.127.116.191" transform="translate(0 0)" fill="#fff" opacity="0.999"/>
      </g>
    </g>
    <rect id="Rectangle_507" data-name="Rectangle 507" width="237" height="50" transform="translate(165 7620)" fill="#fff"/>
    <text id="Publishing-2" data-name="Publishing" transform="translate(284 7658)" font-size="33" font-family="RawlineBlack-Regular, Rawline" letter-spacing="0.04em"><tspan x="-107.139" y="0">PUBLISHING</tspan></text>
  </g>
</svg>
