<svg xmlns="http://www.w3.org/2000/svg" xmlns:xlink="http://www.w3.org/1999/xlink" width="302.595" height="110.852" viewBox="0 0 302.595 110.852">
  <defs>
    <clipPath id="clip-path">
      <rect id="Rectangle_198" data-name="Rectangle 198" width="302.595" height="110.851" fill="none"/>
    </clipPath>
  </defs>
  <g id="SERVICES" transform="translate(-95 -7586.697)">
    <g id="Group_312" data-name="Group 312" transform="translate(95 7586.697)">
      <g id="Group_311" data-name="Group 311" transform="translate(0)" clip-path="url(#clip-path)">
        <path id="Path_217" data-name="Path 217" d="M175.355,1.3a278.617,278.617,0,0,0-38.2,7.936c-12.165,3.294-23.934,7.162-35.362,11.409q-.936-.292-1.886-.568c-3.044-.875-6.222-1.606-9.416-2.207a22.278,22.278,0,0,0-8.743-.081c-2.87.65-5.648,1.858-7.178,3.581-1.406,1.568-1.015,3.56-.059,5.176a14.057,14.057,0,0,0,1.386,1.937q-14.826,4.158-29.035,9.151c-3.211,1.123-6.421,2.25-9.541,3.48Q33.3,42.7,29.281,44.283c-3.635,1.434-7.262,2.856-10.805,4.382q-3.931,1.7-7.86,3.393c-2.154.928-4.334,1.836-6.339,2.905a8,8,0,0,0-3.12,2.846A15.4,15.4,0,0,0,.144,60.676,2.1,2.1,0,0,0,.6,62.921,5.216,5.216,0,0,0,3.3,64.263l.279.072c2.543.733,5.023,1.553,7.664,2.125a35.213,35.213,0,0,0,4.733.564c1.813.139,3.627.21,5.448.231,1.594.018,3.187-.01,4.779-.068-.272.448-.536.9-.795,1.346a15.98,15.98,0,0,0-2.179,6.132,8.58,8.58,0,0,0,1.3,5.074,18.341,18.341,0,0,0,4.391,5,19.928,19.928,0,0,0,5.823,3.1A48.579,48.579,0,0,0,42.915,89.9c2.587.456,5.24.746,7.893.982,3.294.3,6.58.451,9.908.43a183.606,183.606,0,0,0,19.8-1.488c6.6-.757,13.085-1.707,19.515-2.921,4.441-.836,8.836-1.774,13.21-2.749q9.649,4.14,19.238,8.333c4.639,2.033,9.245,4.1,13.974,6.04a4.3,4.3,0,0,0-.807.683,2.658,2.658,0,0,0,0,3.71c.275.349.524.7.774,1.069a6.383,6.383,0,0,0,1.863,1.632,18.587,18.587,0,0,0,5.181,1.863,30.981,30.981,0,0,0,4.467.7c1.761.193,3.54.323,5.311.465,3.136.288,6.259.578,9.412.76q1.9.111,3.815.181a34.278,34.278,0,0,0,6.625,1.22,23.467,23.467,0,0,0,7.679-.9h1q9.308-.033,18.616-.06c3.361-.011,6.73.011,10.09-.043l17.716-.29q13.712-.226,27.434-.462,5.415-.1,10.839-.215l9.124-.193c4.475-.092,8.934-.376,13.409-.462,1.964-.038,3.6-1.031,3.6-2.325,0-1.326-1.638-2.261-3.6-2.33-4.475-.156-8.925-.542-13.409-.66q-4.766-.129-9.532-.252c-1.889-.049-3.786-.118-5.673-.151-1.946-.027-3.9-.005-5.847-.005q-8.335-.016-16.669-.022c-4.184-.005-8.376.081-12.561.124-8.309.081-16.611.156-24.92.156H200.04a14.972,14.972,0,0,0,.56-1.706c.069-.257.132-.515.191-.773q.692-.073,1.382-.15c3.228-.36,6.446-.805,9.658-1.241a60.761,60.761,0,0,0,8.774-1.767,36.228,36.228,0,0,0,7.545-3.141,10.938,10.938,0,0,0,2.571-2.008,4.159,4.159,0,0,0,1.115-2.674,5.558,5.558,0,0,0-.841-2.68,10.459,10.459,0,0,0-2.237-2.743,31.216,31.216,0,0,0-6.039-3.593c-2.712-1.423-5.507-2.749-8.376-4.027-4.691-2.095-9.533-4.038-14.315-6.041-3.344-1.4-6.879-2.6-10.348-3.871q-3.284-1.2-6.558-2.4,5.149-1.852,10.218-3.787c5.782-2.207,11.421-4.559,17.043-6.916a142.817,142.817,0,0,0,15.189-7.513q1.456-.823,2.764-1.732,4.871-.5,9.746-.979c4.929-.478,9.874-.888,14.812-1.331,1.811-.139,3.65-.077,5.467-.113,3.019-.064,6.246-.483,8.426-1.916a2.377,2.377,0,0,0,1.2-2.921c-.549-1.289-2.421-2.212-4.484-2.207-3.318.005-6.629-.033-9.948-.044-3.593-.01-7.162.086-10.747.263q-3.694.181-7.381.428a8.09,8.09,0,0,0,.262-4.734A12.5,12.5,0,0,0,232.2,25.14a35.047,35.047,0,0,0-13.118-7.764,85.289,85.289,0,0,0-16.844-3.657A181.044,181.044,0,0,0,183.5,12.232c-6.754-.177-13.525.124-20.238.591-6.9.478-13.8,1.112-20.62,1.916-5.876.7-11.687,1.591-17.446,2.594q7.139-2.263,14.459-4.274c-.265.07-.523.139-.781.21,14.525-3.949,29.607-7.318,45.27-8.727,2.891-.228,5.783-.39,8.7-.434,3.218-.05,6.443.079,9.641.322,1.927.2,3.817.52,5.731.789.973.135,1.954.236,2.936.333a12.268,12.268,0,0,0,2.387.032,2.145,2.145,0,0,0,2.063-1.75,2.146,2.146,0,0,0-2.063-1.745c-1.272-.113-2.5-.354-3.751-.554-1.472-.231-2.92-.526-4.392-.768A74.069,74.069,0,0,0,195.226.027Q194.121,0,193.013,0a141.645,141.645,0,0,0-17.658,1.3M183.7,4.578l-.367.03.367-.03m-6.647,14.178c5.657-.1,11.271.148,16.874.6a113.834,113.834,0,0,1,18,2.811,47.471,47.471,0,0,1,6.8,2.51,33.027,33.027,0,0,1,5.238,3.368,17.239,17.239,0,0,1,2.332,2.508,7.755,7.755,0,0,1,.655,1.457,7.707,7.707,0,0,1-.035,1.829,12.839,12.839,0,0,1-.7,1.985q-2.015.164-4.029.338c-4.2.36-8.443.677-12.61,1.171q-2.771.322-5.54.655-16.745,1.981-33.488,3.968c-2.936.349-5.847.875-8.759,1.315l-7.871,1.2q-5.875-3.608-12.133-6.953c-5.249-2.808-10.714-5.449-16.329-7.952q-4.391-1.956-8.966-3.717,2.132-.421,4.266-.831c6.281-1.2,12.611-2.277,19.008-3.179,6.564-.922,13.2-1.579,19.859-2.156,5.788-.471,11.6-.82,17.43-.926m-17.873.962-.768.064.768-.064M86.168,23.6c1.286.16,2.532.4,3.778.675l1.053.23q-3.256.8-6.489,1.646c-.346-.393-.672-.794-.974-1.2a6.413,6.413,0,0,1-.378-.764c.384-.161.779-.307,1.187-.443.272-.058.544-.109.823-.152.334,0,.664,0,1,.011m-2.968.117c-.043.065-.084.129-.125.194v-.005a1.422,1.422,0,0,1,.125-.189m18.132,5.338q1.33-.3,2.663-.6,4.267,1.52,8.425,3.162c5.575,2.214,10.928,4.656,16.131,7.223q7.039,3.536,13.639,7.415c-2.975.451-5.975.864-8.924,1.368l-.347.059-7.406-2.341c-2.138-.677-4.225-1.444-6.322-2.169-3.01-1.037-6.014-2.1-8.967-3.206-5.432-2.029-10.59-4.349-15.613-6.771-.231-.11-.462-.223-.692-.336-.875-.449-1.733-.91-2.565-1.386q4.956-1.262,9.978-2.418M94.006,32.9q.188.094.373.19l-.373-.19m133.037.4c-.015.069-.03.137-.046.206.015-.069.03-.137.046-.206m-142.984.081-.617.168.45-.123.167-.045m-1.908.548q1.205.8,2.521,1.551c2.429,1.38,5.073,2.6,7.718,3.8,2.421,1.1,4.851,2.191,7.337,3.222,2.861,1.192,5.831,2.287,8.809,3.345,2.77.983,5.573,1.922,8.375,2.862,1.121.374,2.237.766,3.371,1.137l-3.628.624q-13.55,2.328-27.092,4.672c-3.293.572-6.6,1.112-9.9,1.651-2.158.252-4.319.5-6.477.749-7.642.9-15.3,1.772-23,2.463l.21-.02c-3.518.3-7.048.553-10.58.8,1.259-1.144,2.57-2.266,3.886-3.381,9.363-7.8,20.586-14.592,32.617-20.658q2.886-1.436,5.834-2.813M15.415,57.519c.674-.274,1.348-.559,2.03-.838q3.756-1.554,7.528-3.109c3.2-1.321,6.488-2.556,9.749-3.823Q38.465,48.3,42.2,46.855c2.511-.977,5.074-1.884,7.644-2.8q3.528-1.248,7.089-2.456A151.724,151.724,0,0,0,40.111,53.094,95.137,95.137,0,0,0,30.689,61.4a107.029,107.029,0,0,1-14.036.057,30.121,30.121,0,0,1-3.976-.689c-.918-.274-1.821-.565-2.723-.856.249-.171.511-.333.789-.49,1.5-.686,3.114-1.268,4.672-1.9M172.2,50.356c7.685-.993,15.4-1.879,23.116-2.776q8.6-1,17.192-1.992,1.095-.127,2.19-.244c-.959.535-1.935,1.056-2.939,1.56.25-.123.5-.247.748-.365-5.681,2.814-11.711,5.359-17.758,7.835-5.78,2.359-11.68,4.583-17.653,6.721-2.342-1.979-4.788-3.906-7.285-5.8q-2.642-2-5.4-3.935l7.785-1.005m-19.467,2.514q1.514,1.013,3,2.045-2.717-.866-5.436-1.731l2.438-.314m-38.876,5.009,22.782-2.934q15.308,4.763,30.574,9.576-16,5.37-32.638,9.893-9.149,2.475-18.5,4.6l-12.357-5.46c-4.15-1.831-8.4-3.561-12.685-5.246-4.1-1.617-8.259-3.179-12.535-4.6q-.384-.127-.77-.252l2.043-.355Q86.185,62,92.6,60.875l5.311-.931q7.975-1.03,15.95-2.065M2.888,64.139l.286.081-.286-.081m38.438,2q9.26-.668,18.464-1.614l.118.1a5.856,5.856,0,0,0,2.13.8c.607.162,1.219.324,1.828.488,2.871.814,5.757,1.585,8.619,2.412,3.168.918,6.23,1.975,9.266,3.06,2.812,1,5.573,2.046,8.327,3.1,2.312.886,4.666,1.756,6.9,2.712q4.646,1.988,9.285,3.973-1.289.271-2.581.538c-5.39,1.112-10.83,2.1-16.354,2.9-5.265.76-10.623,1.344-15.97,1.82.136-.011.271-.023.407-.032l-.6.049-.291.026.221-.02a113.876,113.876,0,0,1-18.515.206,79.648,79.648,0,0,1-12.037-1.92,30.03,30.03,0,0,1-4.4-1.617,16.235,16.235,0,0,1-2.093-1.376,16.475,16.475,0,0,1-2.442-2.7,10.955,10.955,0,0,1-1.279-2.852,7.741,7.741,0,0,1,.043-2.109,22.76,22.76,0,0,1,3.019-6.227q.4-.59.839-1.165c2.369-.184,4.734-.386,7.1-.556m-7.744,1.422-.117.182.117-.182m123.6,4.951q7.487-2.269,14.837-4.742c1.947,1.8,3.819,3.628,5.642,5.483a72.449,72.449,0,0,1,8.2,9.783c2.373,3.706,4.59,7.487,5.574,11.462.024.14.047.28.067.421-6.031.358-12.082.592-18.12.854-2.721.118-5.448.188-8.169.284-1.606.054-3.2.113-4.808.15-1.659.04-3.308.1-4.949.236-2.73-1.115-5.478-2.221-8.126-3.415-7.569-3.415-15.106-6.867-22.726-10.24l-1.844-.815c11.7-2.785,23.133-6.037,34.418-9.463m-123.821-4.6c-.043.067-.089.134-.135.2l.135-.2M199.544,88.764a46.083,46.083,0,0,0-2.928-5.831,55.162,55.162,0,0,0-4.267-6.341c-1.256-1.628-2.624-3.222-4.065-4.788q2.833,1.023,5.67,2.044c.691.247,1.339.537,2.013.816q3.194,1.321,6.405,2.647c4.506,1.859,9,3.709,13.268,5.786,1.185.6,2.341,1.225,3.518,1.833a21.64,21.64,0,0,1,2.957,1.767,8.294,8.294,0,0,1,.914,1.068,7.072,7.072,0,0,1,.514,1.146q.009.121.008.242c-.029.033-.06.065-.091.1a12.965,12.965,0,0,1-1.334.831,38.913,38.913,0,0,1-4.921,1.824,67.209,67.209,0,0,1-8.494,1.439c-2.538.3-5.079.59-7.625.847a25.067,25.067,0,0,0-1.541-5.428m-13.458-5.4.141.211-.141-.211m37.425,5.919a1.713,1.713,0,0,1-.169.256c.057-.084.113-.171.169-.256m-32.226,11.8a10.2,10.2,0,0,1-.672,1.625c-1.109-.007-2.22-.022-3.337-.046-4.084-.091-8.167-.188-12.237-.386,5.416-.386,10.837-.764,16.246-1.192M71.1,86.451l.07-.006.192-.017-.262.023" transform="translate(0)" fill="#fff"/>
      </g>
    </g>
    <rect id="Rectangle_509" data-name="Rectangle 509" width="189" height="50" transform="translate(152 7620)" fill="#fff"/>
    <text id="Services-2" data-name="Services" transform="translate(246 7658)" font-size="33" font-family="RawlineBlack-Regular, Rawline" letter-spacing="0.04em"><tspan x="-83.051" y="0">SERVICES</tspan></text>
  </g>
</svg>
