<svg xmlns="http://www.w3.org/2000/svg" xmlns:xlink="http://www.w3.org/1999/xlink" width="111.093" height="53.605" viewBox="0 0 111.093 53.605">
  <defs>
    <clipPath id="clip-path">
      <rect id="Rectangle_165" data-name="Rectangle 165" width="111.093" height="53.605" fill="none"/>
    </clipPath>
  </defs>
  <g id="Group_279" data-name="Group 279" clip-path="url(#clip-path)">
    <path id="Path_199" data-name="Path 199" d="M46.184.1a3.517,3.517,0,0,0-.508.129c-.293.09-.569.18-.846.291a7.587,7.587,0,0,0-1.248.687,5.039,5.039,0,0,0-.956.859A2.4,2.4,0,0,0,42.039,3.5a4.486,4.486,0,0,0,.346,1.92,3.929,3.929,0,0,0-1.128-.2c-.267-.019-.534-.019-.8-.039a2.392,2.392,0,0,0-1.484.461,1.376,1.376,0,0,0-.611,1.119c.061.728.087,1.456.129,2.184a17.431,17.431,0,0,0,.361,2.568,33.686,33.686,0,0,0,1.332,4.534l.074.2q-.953.51-1.9,1.031c-1.76.968-3.5,1.958-5.187,3l-.014.009c-4.96-2.534-9.868-5.128-14.794-7.7-1.641-.857-3.327-1.667-5.01-2.473-1.618-.776-3.272-1.515-4.984-2.17C7.443,7.591,6.487,7.27,5.506,7c-.9-.253-1.825-.456-2.728-.7A2.659,2.659,0,0,0,.657,6.72a1.365,1.365,0,0,0-.56,1.6A5.607,5.607,0,0,0,.724,9.469,4.961,4.961,0,0,0,2.153,10.5c.589.335,1.277.57,1.9.862.776.361,1.564.708,2.343,1.063q1.81.823,3.626,1.643c1.2.539,2.407,1.066,3.591,1.624l4.856,2.281c.788.372,1.58.743,2.368,1.116.235.109.47.214.7.33q1.95,1,3.9,2l3.375,1.73-.5.34A25.108,25.108,0,0,0,25.082,25.9a6.735,6.735,0,0,0-1.142,1.357c-.314.51-.556,1.043-.834,1.564l-.044.074a.744.744,0,0,0-.116.665,1.053,1.053,0,0,0,.8.6c.467.085.92.2,1.377.308a7.4,7.4,0,0,0,1.451.182,5.743,5.743,0,0,0,.766-.063c.228-.024.45-.065.676-.107a12.328,12.328,0,0,0,1.618-.439A27.426,27.426,0,0,0,32.241,29c.93-.415,1.853-.833,2.8-1.228q.671-.283,1.331-.579,1.367.77,2.721,1.558l-.174-.1.238.139.132.077-.123-.071q1.784,1.044,3.538,2.117c-.133,1.636-.3,3.27-.448,4.906-.071.77-.132,1.541-.215,2.311,0,.014,0,.028,0,.041l-1.769.675c-.733.279-1.464.549-2.21.806q-2.891,1.009-5.785,2.015c-1,.347-1.989.7-2.993,1.036Q26,43.791,22.735,44.88c-1.072.325-2.176.581-3.216.966a6.016,6.016,0,0,0-1.5.8,6.458,6.458,0,0,0-1.081,1.3.842.842,0,0,0,0,1.07,1.567,1.567,0,0,0,1.213.527c2.243.073,4.476.272,6.725.2,2.3-.071,4.595-.286,6.873-.527,2.262-.24,4.511-.539,6.761-.823.907-.114,1.821-.218,2.728-.34l10.535-1.432q8.6-1.169,17.2-2.34l2.944-.4a39.194,39.194,0,0,0,4.086,3.535,41.6,41.6,0,0,0,5.029,3.106c.843.456,1.689.91,2.571,1.323a19.625,19.625,0,0,0,3.028,1.1,17.888,17.888,0,0,0,3.028.546,16.351,16.351,0,0,0,3.269.053,13.328,13.328,0,0,0,5.612-2.07,19.1,19.1,0,0,0,4.109-3.558,25.8,25.8,0,0,0,3.06-4.3,38.679,38.679,0,0,0,2.336-4.663c.676-1.575,1.329-3.16,1.866-4.767.254-.765.457-1.539.711-2.306a6.551,6.551,0,0,0,.454-2.551,4.78,4.78,0,0,0-.614-1.9,4.879,4.879,0,0,0-.611-.9,3.989,3.989,0,0,0-1.123-.849,4.762,4.762,0,0,0-1.155-.376,8.735,8.735,0,0,0-1.338-.165,16.025,16.025,0,0,0-2.77.107c-.953.1-1.9.2-2.832.374a28.114,28.114,0,0,0-3.118.782c-.991.3-1.966.624-2.938.951-1.023.347-2.053.685-3.082,1.022-2.034.667-4.022,1.414-6.009,2.158a6.707,6.707,0,0,0-.41-.682,14.489,14.489,0,0,0-1.728-2.044c-.63-.646-1.3-1.272-1.963-1.9-.7-.67-1.425-1.33-2.169-1.973-1.89-1.641-3.9-3.2-6-4.687L71.96,17.811c-.331-.376-.658-.754-.987-1.132l2.705-2.861q1.269-1.347,2.539-2.689c.453-.481.9-.967,1.377-1.436.852-.807,1.75-1.585,2.6-2.392.489-.466.962-.939,1.4-1.432.222-.25.425-.51.621-.774a4.091,4.091,0,0,0,.476-.995,1.035,1.035,0,0,0-.418-1.192A2.028,2.028,0,0,0,80.3,2.72c-3.865,2.028-7.775,4.009-11.7,5.977q-.322-.057-.648-.1a19.5,19.5,0,0,0-3.015-.141c-.59.009-1.178.04-1.765.085q-.827-.747-1.691-1.473a50.01,50.01,0,0,0-4.277-3.3A28.244,28.244,0,0,0,52.2,1.14,18.548,18.548,0,0,0,49.43.234,9.927,9.927,0,0,0,47.863.016Q47.639,0,47.419,0a8.738,8.738,0,0,0-1.236.1m1.639,3.01a11.363,11.363,0,0,1,1.55.351,25.76,25.76,0,0,1,4.4,1.946,41.643,41.643,0,0,1,4.562,3.26l.553.441c-1.041.2-2.067.45-3.078.73a2.293,2.293,0,0,0-.67.174l-.093.045c-1.071.316-2.125.667-3.166,1.039l-.407-.375c-.836-.832-1.658-1.674-2.425-2.542-.422-.478-.821-.968-1.226-1.454a11.514,11.514,0,0,1-.965-1.305,7.379,7.379,0,0,1-.574-1.512c-.007-.077-.01-.155-.009-.233l.038-.047c.121-.1.247-.192.381-.282.151-.078.306-.149.467-.213.051-.012.1-.023.155-.032.17,0,.338,0,.507.008m27,5.18q-.244.241-.479.489c-.222.233-.441.469-.663.7l-.461.49a3.173,3.173,0,0,0-.723-.312c-.091-.033-.182-.063-.275-.093l2.6-1.275M66.9,9.556l-1.73.866q-.421-.421-.854-.834A24.674,24.674,0,0,1,66.9,9.556M45.8,11.474c-.186-.641-.378-1.282-.6-1.918.818.9,1.685,1.784,2.577,2.651l.342.328q-.926.378-1.838.773c-.143-.614-.307-1.225-.486-1.834m31.706-1.7-.1.091.1-.091m-17.387.345q.2.171.4.343c.555.478,1.09.971,1.614,1.469l-.17.085q-.277-.172-.559-.341c-.441-.264-.891-.517-1.364-.75a8.651,8.651,0,0,0-1.374-.508q.719-.162,1.449-.3M68.27,11.5l2.668-1.307c.411.092.818.193,1.216.311.139.047.278.105.42.149Q71.4,11.9,70.223,13.146q-.62.658-1.247,1.314c-.7-.758-1.4-1.519-2.108-2.273l1.4-.686M54.2,11.69q-.019.123-.04.246c-.067.365-.134.729-.173,1.095l-.994-.915q.6-.219,1.206-.426m3.212,1.24a10.789,10.789,0,0,1,1.426.65l-1.492.748c-.016-.116-.03-.233-.038-.349a3.34,3.34,0,0,1,.05-.787q.026-.131.054-.262m-8.151.652c.683.619,1.377,1.23,2.062,1.846.461.416.915.838,1.378,1.254l-5.511,2.8a37,37,0,0,0-.6-4.739c.877-.4,1.77-.786,2.671-1.159M61.147,14.99l.072.045q.825.5,1.654,1,1.467.893,2.937,1.787l-.363.4L63.071,20.86l-.149-.126-1.853-1.558-3.092-2.6-.008-.02q1.588-.784,3.179-1.565M40.8,17.687q.812,2.081,1.772,4.128-.713.361-1.423.724-.871.442-1.742.883-2.277-1.122-4.534-2.267,1.288-.812,2.613-1.588l-.037.02L37.6,19.5l.042-.025-.015.009q1.572-.911,3.171-1.8m13.512.68.231-.115,1.192.987c.353.7.728,1.4,1.091,2.1.716,1.371,1.386,2.754,2.1,4.124q-2.093,2.333-4.167,4.677-1.228-.468-2.447-.949-1.294-.51-2.572-1.042-.508-.817-.982-1.647-.811-1.46-1.532-2.946c.011-.288.01-.578.015-.864q.005-.4,0-.8l7.065-3.519m13.363,1.847c.223-.247.445-.493.669-.739q.767.511,1.523,1.031.711.489,1.4.992c1.675,1.8,3.377,3.577,5.076,5.36.7.733,1.426,1.449,2.14,2.17.389.39.785.776,1.161,1.172.5.527.982,1.061,1.512,1.568q.139.133.283.261l-1.766.645-.853.309-1.769-1.327c-1.966-1.473-3.948-2.939-5.876-4.442s-3.845-3-5.767-4.5l2.263-2.5M43.112,23.943c0,.051-.005.1-.008.152l-.059,1.083q-.622-.292-1.24-.588l1.307-.646m-14.037,1.15q.74-.525,1.485-1.049l.255.131,1.458.748c.638.328,1.263.672,1.884,1.021-.918.41-1.842.812-2.749,1.239a28.584,28.584,0,0,1-3.055,1.282,11.193,11.193,0,0,1-1.69.371c-.143.007-.28.007-.424,0-.227-.032-.451-.072-.675-.115.116-.246.232-.491.359-.733a6.234,6.234,0,0,1,.908-1.134,21.6,21.6,0,0,1,2.244-1.762m34.061.133q2.337,1.8,4.676,3.6c.663.512,1.316,1.034,2,1.534L75.191,34.3l-.447.162c-.759.277-1.509.575-2.285.828l-1.157.38-1.45-.435-2.514-.811q-.9-1.384-1.747-2.789c.131-.071.261-.143.388-.218a4.894,4.894,0,0,0,.746-.536,1.979,1.979,0,0,0,.521-.765.807.807,0,0,0-.328-.937,1.649,1.649,0,0,0-1.547-.151l-1.07.405q-.139-.243-.276-.485l.007.012q-.828-1.478-1.59-2.973l.694-.765M48.594,26.2c.058.1.113.2.167.3q-.084-.147-.167-.3m57.789,1.158c.211.031.416.069.621.12.079.03.155.062.23.1s.126.1.185.146a4.07,4.07,0,0,1,.407.557,5.1,5.1,0,0,1,.41,1.137,4.022,4.022,0,0,1-.033.892c-.1.469-.245.931-.386,1.4-.151.512-.276,1.029-.431,1.544-.309,1.039-.688,2.066-1.084,3.085a48.685,48.685,0,0,1-2.581,5.775l.02-.035-.023.04-.109.2c.026-.05.054-.1.082-.15-.6,1.05-1.228,2.093-1.938,3.1a22.091,22.091,0,0,1-2.505,2.925l.079-.075-.083.079-.116.115.109-.108a16.857,16.857,0,0,1-2.9,2.23,14.323,14.323,0,0,1-2.33,1.058,9.919,9.919,0,0,1-1.511.322,16.9,16.9,0,0,1-2.753-.029,18.542,18.542,0,0,1-3.131-.635,29.064,29.064,0,0,1-5.349-2.584,39.016,39.016,0,0,1-3.425-2.245,31.083,31.083,0,0,1-3.211-2.779c.061.063.126.124.187.187l-.208-.205q5.322-.73,10.646-1.461l.277.067a2.021,2.021,0,0,0,1.6-.318l.008-.006q6.136-.837,12.278-1.645a.779.779,0,0,0,.717-.951.846.846,0,0,0-.473-.461,1.4,1.4,0,0,0-.788-.078c-3.884.476-7.777.912-11.665,1.368-.141-.222-.279-.445-.427-.665a6.333,6.333,0,0,0-.933-1.012,24.536,24.536,0,0,0-2.22-1.813c-.873-.652-1.76-1.292-2.633-1.942l2.089-.757.753-.275c.052.016.106.03.161.042a2.074,2.074,0,0,0,1.229-.121,1.251,1.251,0,0,0,.713-.7c2.167-.806,4.332-1.616,6.54-2.359.875-.294,1.767-.57,2.645-.864.834-.278,1.667-.563,2.507-.834,1.005-.316,2.022-.6,3.066-.838a27.487,27.487,0,0,1,3.129-.474,15.585,15.585,0,0,1,2.565-.063m-2.313.036-.206.021.206-.021M59.543,29.211q.443-.5.89-1,.628,1.108,1.286,2.206-1.408.541-2.8,1.1l-.2.079-.352-.128-.629-.229,1.8-2.035m-36.389-.48c-.012.023-.025.046-.039.069l.039-.069m-.056.1-.057.105c.018-.035.037-.07.057-.105m41.725.8v0h0v0m-18.042.1.294.121q.148.215.3.43l-.606-.382c0-.056.01-.113.015-.169m5.487,2.15.725.27-.287.325q-.221-.3-.438-.594m11.042,1.1.127.2-.284-.091.157-.1M46.155,35.447q.124-1.107.248-2.213,1.39.894,2.758,1.808l.39.262L46.02,36.65c.045-.4.089-.8.134-1.2M56.5,34.738l1.187-.484a15.2,15.2,0,0,0-1.663,1.36c-.112.108-.229.217-.348.326l-.318-.241-.185-.138L55,35.351l1.5-.613m4.136.047c.642.2,1.287.389,1.927.589l2.983.928q.36.512.731,1.019l-1.056.344c-1.347.41-2.678.842-4.054,1.189-.4.1-.8.184-1.206.267-.186-.168-.38-.33-.579-.488-.58-.459-1.226-.87-1.844-1.3.187-.185.376-.369.561-.553a23.347,23.347,0,0,1,2.539-1.995M75.12,36.726l2.258-.818.815.6c.962.7,1.969,1.372,2.944,2.064L80.2,38.3c-1.165-.337-2.336-.67-3.5-1.012l-1.722-.511.135-.05M45.708,44.276c.351-.269.711-.529,1.062-.8a10.3,10.3,0,0,0,1.059-.968c.644-.648,1.2-1.34,1.763-2.027.4-.49.833-.968,1.258-1.449l1.54-1.744q.647.47,1.281.951a2.2,2.2,0,0,0-.205.931,2.721,2.721,0,0,0,1.168,1.818,3.561,3.561,0,0,0,.991.563,4.607,4.607,0,0,0,1.66.25h.063c.3.261.616.516.906.785a1.781,1.781,0,0,0,1.107.347,1.906,1.906,0,0,0,1.107-.347,1.933,1.933,0,0,0,.55-.454c.145-.228.344-.486.3-.752-.016-.092-.031-.182-.049-.271l.161-.035c.592-.134,1.171-.294,1.744-.459,1.529-.438,3.033-.925,4.532-1.418q.186.235.375.469c.69.854,1.421,1.691,2.184,2.51l-1.962.255Q59.682,43.549,51.075,44.7l-9.035,1.2-1.8.24c-1.438.192-2.889.35-4.334.529-1.7.21-3.408.416-5.122.592-2.05.2-4.1.365-6.169.418-1.118.028-2.235-.02-3.351-.085l.194-.068c.793-.241,1.606-.448,2.394-.7.254-.083.5-.167.753-.253.84-.291,1.683-.58,2.523-.869,1.323-.456,2.652-.9,3.961-1.364q4.628-1.653,9.267-3.291c.52-.185,1.033-.382,1.544-.582q0,.239.02.478a5.409,5.409,0,0,0,.3,1.5c.154.423.386.828.563,1.243A1.63,1.63,0,0,0,44,44.616a2.276,2.276,0,0,0,.46.046,2.076,2.076,0,0,0,1.246-.386M71.262,38.03q4.661,1.344,9.322,2.683l.3.089-.329.042-7.566.98q-1.52-1.666-2.857-3.423l1.134-.372m-23.7.253-.264.3c-.569.642-1.1,1.3-1.681,1.937a14.27,14.27,0,0,1,.1-1.528l1.843-.708M31.122,47.228l-.233.023.233-.023m50.009,1.255.072.042-.072-.042m13.106,2.932-.094.029.094-.029m5-3.217.007-.006,0,0-.011.011m4.455-6.039.027-.048,0,0-.03.053M39.162,28.793l-.009-.005-.064-.037.073.042M37.6,19.5l-.117.069c.049-.028.1-.056.144-.085L37.6,19.5" transform="translate(0)" fill="#03ff00"/>
  </g>
</svg>
