<svg id="green-man-gaming-logo" xmlns="http://www.w3.org/2000/svg" width="211.107" height="51.785" viewBox="0 0 211.107 51.785">
  <g id="Group_277" data-name="Group 277">
    <path id="Path_184" data-name="Path 184" d="M41.367,35.8a17.989,17.989,0,0,1-11.83,5.533V35.8ZM22.248,41.329A18.083,18.083,0,0,1,10.38,35.8H22.248ZM51.746,0H25.911A25.892,25.892,0,1,0,51.746,27.7Z" fill="#00e205"/>
  </g>
  <g id="Group_278" data-name="Group 278" transform="translate(61.058 0.267)">
    <path id="Path_185" data-name="Path 185" d="M338.938,57.182H338.9v3.74h.038v.153h4.923V56.8h-4.923Z" transform="translate(-270.63 -35.392)" fill="#fff"/>
    <path id="Path_186" data-name="Path 186" d="M168.281,18.316a4.989,4.989,0,0,0,4.5-2.328h.076v.5c0,2.595-1.3,4.465-4.007,4.465a2.909,2.909,0,0,1-2.862-1.641h-5.686a5.7,5.7,0,0,0,.992,2.557c1.641,2.366,4.427,3.244,7.212,3.244,2.977,0,6.716-1.145,8.319-3.892a10.582,10.582,0,0,0,.992-5.419V1.334H172.9V2.861h-.076A5.223,5.223,0,0,0,168.281.8c-5,0-8.281,4.045-8.281,8.853S163.358,18.316,168.281,18.316Zm.611-12.937A3.97,3.97,0,0,1,172.9,9.615a3.9,3.9,0,0,1-4.045,4.083,4,4,0,0,1-3.931-4.236A3.991,3.991,0,0,1,168.892,5.379Z" transform="translate(-160 -0.762)" fill="#fff"/>
    <path id="Path_187" data-name="Path 187" d="M218.923,8.676c0-2.557,1.717-2.977,3.892-3.015V.7a4.106,4.106,0,0,0-4.121,2.328h-.076V1.272H214V17.72h4.923Z" transform="translate(-193.393 -0.7)" fill="#fff"/>
    <path id="Path_188" data-name="Path 188" d="M253.653,12.568h-5.037a3.522,3.522,0,0,1-2.977,1.526,3.7,3.7,0,0,1-3.854-3.129h12.326a7.793,7.793,0,0,0,.115-1.3A8.666,8.666,0,1,0,236.9,9.515a8.644,8.644,0,0,0,16.753,3.053Zm-8.09-7.709a3.635,3.635,0,0,1,3.74,2.824h-7.48A3.693,3.693,0,0,1,245.563,4.86Z" transform="translate(-207.554 -0.7)" fill="#fff"/>
    <path id="Path_189" data-name="Path 189" d="M292.539,18.254a8.885,8.885,0,0,0,8.052-5.686h-5.037a3.571,3.571,0,0,1-2.977,1.526,3.7,3.7,0,0,1-3.854-3.129h12.288a7.793,7.793,0,0,0,.115-1.3A8.666,8.666,0,1,0,283.8,9.515,8.762,8.762,0,0,0,292.539,18.254ZM292.463,4.86a3.635,3.635,0,0,1,3.74,2.824h-7.48A3.693,3.693,0,0,1,292.463,4.86Z" transform="translate(-236.557 -0.7)" fill="#fff"/>
    <path id="Path_190" data-name="Path 190" d="M343.4,17.72h4.923V7.416c0-1.908-.343-4.007-1.908-5.3A7.21,7.21,0,0,0,342.22.7a4.671,4.671,0,0,0-4.465,2.328h-.076V1.272H333.1V17.72h4.923V8.752c0-1.946.534-3.435,2.824-3.435,2.213,0,2.595,1.565,2.595,3.4L343.4,17.72Z" transform="translate(-267.043 -0.7)" fill="#fff"/>
    <path id="Path_191" data-name="Path 191" d="M408.257.7a6.016,6.016,0,0,0-5.228,2.938A5.128,5.128,0,0,0,398.3.7a4.825,4.825,0,0,0-4.541,2.328h-.076V1.272H389.1V17.72h4.923V8.981c0-1.908.5-3.663,2.786-3.663,2.061,0,2.442,1.755,2.442,3.435V17.72h4.923V8.752c0-1.87.534-3.4,2.709-3.4,2.29,0,2.519,1.832,2.519,3.663v8.7h4.923V8.752c0-2.519.076-4.465-1.794-6.373A5.721,5.721,0,0,0,408.257.7Z" transform="translate(-301.673 -0.7)" fill="#fff"/>
    <path id="Path_192" data-name="Path 192" d="M472.866,3.028h-.076A5.508,5.508,0,0,0,467.981.7C463.02.7,459.7,4.669,459.7,9.477c0,4.885,3.205,8.815,8.281,8.815,1.794,0,3.931-.649,4.808-2.328h.076v1.794h4.923V1.311h-4.923Zm-4.121,10.685a4.081,4.081,0,0,1-4.083-4.16,4.1,4.1,0,1,1,8.2-.038A4.075,4.075,0,0,1,468.744,13.713Z" transform="translate(-345.331 -0.7)" fill="#fff"/>
    <path id="Path_193" data-name="Path 193" d="M526.518,2.212A7.21,7.21,0,0,0,522.32.8a4.672,4.672,0,0,0-4.465,2.328h-.076V1.372H513.2V17.782h4.923V8.814c0-1.946.534-3.435,2.824-3.435,2.213,0,2.595,1.565,2.595,3.4v9.006h4.923V7.478C528.426,5.57,528.121,3.509,526.518,2.212Z" transform="translate(-378.415 -0.762)" fill="#fff"/>
    <path id="Path_194" data-name="Path 194" d="M173,72.861h-.076a5.223,5.223,0,0,0-4.541-2.061c-5,0-8.281,4.045-8.281,8.853s3.4,8.663,8.281,8.663a4.989,4.989,0,0,0,4.5-2.328h.076v.5c0,2.595-1.3,4.465-4.007,4.465a2.909,2.909,0,0,1-2.862-1.641h-5.686a5.7,5.7,0,0,0,.992,2.557c1.641,2.366,4.427,3.244,7.212,3.244,2.977,0,6.716-1.145,8.319-3.892a10.582,10.582,0,0,0,.992-5.419V71.334H173Zm-4.045,10.876A4.162,4.162,0,1,1,173,79.653,3.918,3.918,0,0,1,168.953,83.737Z" transform="translate(-160.062 -44.049)" fill="#fff"/>
    <path id="Path_195" data-name="Path 195" d="M224.566,73.028h-.076a5.508,5.508,0,0,0-4.808-2.328c-4.961,0-8.281,3.969-8.281,8.777,0,4.885,3.206,8.815,8.281,8.815,1.794,0,3.931-.649,4.808-2.328h.076v1.794h4.923V71.311h-4.923Zm-4.121,10.685a4.2,4.2,0,1,1,4.121-4.2A4.081,4.081,0,0,1,220.444,83.713Z" transform="translate(-191.785 -43.987)" fill="#fff"/>
    <path id="Path_196" data-name="Path 196" d="M285.157,70.7a6.016,6.016,0,0,0-5.228,2.938A5.128,5.128,0,0,0,275.2,70.7a4.825,4.825,0,0,0-4.541,2.328h-.076V71.272H266V87.72h4.923V78.981c0-1.908.5-3.663,2.786-3.663,2.061,0,2.442,1.755,2.442,3.435V87.72h4.923V78.752c0-1.87.534-3.4,2.709-3.4,2.29,0,2.519,1.832,2.519,3.663v8.7h4.923V78.752c0-2.519.076-4.465-1.794-6.373A5.664,5.664,0,0,0,285.157,70.7Z" transform="translate(-225.549 -43.987)" fill="#fff"/>
    <rect id="Rectangle_163" data-name="Rectangle 163" width="4.923" height="16.447" transform="translate(68.27 27.285)" fill="#fff"/>
    <path id="Path_197" data-name="Path 197" d="M372.256,72.212a7.211,7.211,0,0,0-4.2-1.412,4.671,4.671,0,0,0-4.465,2.328h-.114V71.372H358.9V87.782h4.923V78.814c0-1.946.534-3.435,2.824-3.435,2.213,0,2.595,1.565,2.595,3.4v9.006h4.923v-10.3C374.126,75.57,373.821,73.509,372.256,72.212Z" transform="translate(-282.997 -44.049)" fill="#fff"/>
    <path id="Path_198" data-name="Path 198" d="M416.5,72.861h-.076a5.223,5.223,0,0,0-4.541-2.061c-5,0-8.281,4.045-8.281,8.853s3.4,8.663,8.281,8.663a4.989,4.989,0,0,0,4.5-2.328h.076v.5c0,2.595-1.3,4.465-4.007,4.465a2.909,2.909,0,0,1-2.862-1.641h-5.686a5.7,5.7,0,0,0,.992,2.557c1.641,2.366,4.427,3.244,7.212,3.244,2.977,0,6.716-1.145,8.319-3.892a10.582,10.582,0,0,0,.992-5.419V71.334H416.5v1.526Zm-4.007,10.876a4.162,4.162,0,1,1,4.045-4.083A3.94,3.94,0,0,1,412.492,83.737Z" transform="translate(-310.639 -44.049)" fill="#fff"/>
  </g>
</svg>
