<svg xmlns="http://www.w3.org/2000/svg" xmlns:xlink="http://www.w3.org/1999/xlink" width="300" height="13" viewBox="0 0 300 13">
  <defs>
    <clipPath id="clip-path">
      <rect id="Rectangle_208" data-name="Rectangle 208" width="300" height="13" fill="none"/>
    </clipPath>
  </defs>
  <g id="NAV_ON" data-name="NAV ON" transform="translate(0 0)">
    <g id="Group_318" data-name="Group 318" transform="translate(0 0)" clip-path="url(#clip-path)">
      <path id="Path_220" data-name="Path 220" d="M64.761,11.515Q69.38,11.374,74,11.24q14.411-.4,28.82-.8c9.4-.247,18.789-.549,28.176-.826,6.828-.2,13.688-.359,20.493-.618q30.075-1.145,60.149-2.3c1.827-.068,3.653-.165,5.489-.249q8.163-.377,16.347-.752,16.8-.779,33.63-1.554c9.946-.458,19.876-.982,29.805-1.477,1.555-.079,2.832-.468,3.06-1,.218-.492-.6-1.074-2.054-1.253-.715-.09-1.44-.181-2.187-.246-.69-.061-1.35-.087-2.062-.114C292.18,0,290.675,0,289.184,0c-3.124,0-6.242.1-9.364.146-1.7.025-3.411.026-5.109.033q-9.117.053-18.233.1c-8.219.048-16.441.147-24.666.228-7.178.07-14.351.106-21.525.238q-17.549.322-35.125.644c-6.094.113-12.2.178-18.272.37l-33.6,1.055c-5.733.179-21,.639-22.884.707L26.75,5.553c-2.694.162-5.386.331-8.094.5-2.885.175-5.745.378-8.586.635-2.712.242-5.194.67-7.764,1.043C.805,7.944-.165,8.441.024,9c.111.315.577.606,1.307.807a9.857,9.857,0,0,0,2.7.266c2.934-.013,5.875.027,8.8-.029,3.2-.061,6.391-.207,9.564-.356,6.123-.289,12.207-.68,18.3-1.024,3.951-.222,7.908-.4,11.88-.582L88.795,6.429q5.38-.244,10.768-.492c1.85-.086,3.708-.12,5.556-.176q17.972-.562,35.931-1.12,7.651-.241,15.305-.475c1.579-.05,3.158-.109,4.747-.137q15.883-.286,31.773-.568,8.334-.151,16.674-.3c1.882-.034,3.763-.078,5.648-.1l29.931-.284L219.5,3.965q-7.549.349-15.13.635-18.221.681-36.462,1.355-7.551.28-15.108.563c-1.6.059-3.207.127-4.813.169q-16.337.42-32.685.848-10.665.282-21.326.515-13.786.29-27.555.587l-12.6.278c-2.11.047-4.215.052-6.336.06-1.962.01-3.911.077-5.791.271a23.842,23.842,0,0,0-3.017.486,14.555,14.555,0,0,0-2.393.894c-.99.4-1.232.974-.678,1.455a6.414,6.414,0,0,0,3.41.918Z" transform="translate(0 0)" fill="#03ff00"/>
    </g>
  </g>
</svg>
